<svg width="32" height="32" viewBox="0 0 32 32" fill="none" xmlns="http://www.w3.org/2000/svg">
<g clip-path="url(#clip0_28_1400)">
<path d="M24.7027 29.052C24.2843 29.7485 23.6927 30.3248 22.9853 30.7246C22.278 31.1244 21.4792 31.3341 20.6667 31.3333H11.3333C10.5217 31.3332 9.72399 31.123 9.01768 30.7233C8.31137 30.3235 7.72054 29.7477 7.30267 29.052C6.8557 28.3067 6.63786 27.4464 6.67627 26.5782C6.71467 25.71 7.00763 24.8723 7.51867 24.1693L11.6 18.5493C11.7237 18.3792 11.8859 18.2407 12.0734 18.1452C12.2609 18.0497 12.4683 18 12.6787 18H19.3213C19.5317 18 19.7391 18.0497 19.9266 18.1452C20.1141 18.2407 20.2763 18.3792 20.4 18.5493L24.4867 24.1693C24.9977 24.8723 25.2907 25.71 25.3291 26.5782C25.3675 27.4464 25.1496 28.3067 24.7027 29.052Z" fill="#FADEE3"/>
<path d="M21.6373 4.64138C22.304 4.73338 23.2227 2.90804 23.324 2.18271C23.368 1.83459 23.2729 1.48318 23.0595 1.20468C22.846 0.926172 22.5314 0.743026 22.1839 0.694952C21.8363 0.646878 21.4838 0.73775 21.2027 0.947864C20.9217 1.15798 20.7349 1.4704 20.6827 1.81738C20.5813 2.54671 20.9773 4.55071 21.6373 4.64138Z" fill="#FADEE3"/>
<path d="M22.0133 11.944C21.832 12.5854 23.5067 13.7534 24.216 13.9547C24.3855 14.0059 24.5634 14.0228 24.7395 14.0045C24.9156 13.9862 25.0863 13.933 25.2416 13.848C25.3969 13.763 25.5337 13.6479 25.6441 13.5095C25.7545 13.3711 25.8361 13.2121 25.8844 13.0417C25.9326 12.8714 25.9465 12.6931 25.9251 12.5174C25.9038 12.3416 25.8476 12.1719 25.7599 12.0181C25.6723 11.8643 25.5549 11.7295 25.4145 11.6215C25.2742 11.5136 25.1138 11.4347 24.9427 11.3894C24.2347 11.188 22.196 11.3027 22.0133 11.944Z" fill="#FADEE3"/>
<path d="M26.4907 8.94928C26.4387 9.61594 28.312 10.4266 29.0467 10.4839C29.3976 10.5083 29.744 10.3929 30.0103 10.163C30.2765 9.93307 30.4412 9.60723 30.4682 9.25647C30.4953 8.90571 30.3827 8.55846 30.1549 8.29038C29.9271 8.02231 29.6025 7.85513 29.252 7.82528C28.5173 7.76794 26.5413 8.28394 26.4907 8.94928Z" fill="#FADEE3"/>
<path d="M25.592 4.87471C26.1173 5.78404 29.2773 5.17338 30.2827 4.59337C30.5217 4.4554 30.7312 4.2717 30.8992 4.05276C31.0672 3.83383 31.1904 3.58394 31.2619 3.31738C31.3333 3.05081 31.3515 2.77278 31.3155 2.49917C31.2795 2.22556 31.19 1.96171 31.052 1.72271C30.914 1.4837 30.7303 1.27421 30.5114 1.1062C30.2925 0.93819 30.0426 0.814946 29.776 0.743507C29.5094 0.672068 29.2314 0.653832 28.9578 0.689841C28.6842 0.72585 28.4203 0.815399 28.1813 0.953375C27.176 1.53337 25.0667 3.96537 25.592 4.87471Z" fill="#FADEE3"/>
<path d="M10.3627 4.64138C9.696 4.73338 8.77733 2.90804 8.676 2.18271C8.63205 1.83459 8.7271 1.48318 8.94054 1.20468C9.15397 0.926172 9.46858 0.743026 9.81616 0.694952C10.1637 0.646878 10.5162 0.73775 10.7973 0.947864C11.0783 1.15798 11.2651 1.4704 11.3173 1.81738C11.4187 2.54671 11.0227 4.55071 10.3627 4.64138Z" fill="#FADEE3"/>
<path d="M16 8.00928C15.3333 8.00928 14.6667 6.07728 14.6667 5.34261C14.6667 4.98899 14.8071 4.64985 15.0572 4.3998C15.3072 4.14975 15.6464 4.00928 16 4.00928C16.3536 4.00928 16.6927 4.14975 16.9428 4.3998C17.1928 4.64985 17.3333 4.98899 17.3333 5.34261C17.3333 6.08128 16.6667 8.01061 16 8.00928Z" fill="#FADEE3"/>
<path d="M9.98667 11.944C10.168 12.5854 8.49334 13.7534 7.784 13.9547C7.61453 14.0059 7.43655 14.0228 7.26047 14.0045C7.08438 13.9862 6.9137 13.933 6.7584 13.848C6.60309 13.763 6.46626 13.6479 6.3559 13.5095C6.24554 13.3711 6.16385 13.2121 6.1156 13.0417C6.06735 12.8714 6.0535 12.6931 6.07487 12.5174C6.09624 12.3416 6.15239 12.1719 6.24006 12.0181C6.32772 11.8643 6.44514 11.7295 6.58546 11.6215C6.72578 11.5136 6.88619 11.4347 7.05734 11.3894C7.76534 11.188 9.804 11.3027 9.98667 11.944Z" fill="#FADEE3"/>
<path d="M5.50933 8.94928C5.56133 9.61594 3.688 10.4266 2.95333 10.4839C2.77799 10.4989 2.60142 10.4789 2.43382 10.4253C2.26621 10.3717 2.11088 10.2854 1.97678 10.1714C1.84268 10.0575 1.73247 9.9181 1.6525 9.76134C1.57253 9.60458 1.52438 9.43355 1.51083 9.25809C1.49727 9.08263 1.51859 8.90623 1.57354 8.73905C1.6285 8.57187 1.716 8.41722 1.83101 8.28403C1.94602 8.15083 2.08626 8.04172 2.24365 7.96298C2.40103 7.88425 2.57244 7.83745 2.748 7.82528C3.48267 7.76794 5.45867 8.28394 5.50933 8.94928Z" fill="#FADEE3"/>
<path d="M6.40799 4.87471C5.88266 5.78405 2.72266 5.17338 1.71733 4.59338C1.23463 4.31473 0.882404 3.85574 0.738126 3.31738C0.593848 2.77903 0.669339 2.20541 0.947994 1.72271C1.22665 1.24002 1.68564 0.88779 2.22399 0.743512C2.76235 0.599234 3.33597 0.674726 3.81866 0.95338C4.82399 1.53338 6.93333 3.96538 6.40799 4.87471Z" fill="#FADEE3"/>
<path d="M20.4 18.5493C20.2764 18.3793 20.1144 18.241 19.9272 18.1455C19.74 18.05 19.5328 18.0002 19.3227 18H12.6787C12.4683 18 12.2609 18.0497 12.0734 18.1452C11.8859 18.2407 11.7237 18.3792 11.6 18.5493L7.51333 24.1693C7.39326 24.3395 7.28501 24.5177 7.18933 24.7027C7.22666 24.772 7.25733 24.8453 7.29733 24.9147C7.71623 25.6103 8.30817 26.1856 9.01547 26.5844C9.72277 26.9833 10.5213 27.1921 11.3333 27.1907H20.6787C21.4901 27.1906 22.2877 26.9804 22.9938 26.5806C23.6999 26.1808 24.2904 25.6051 24.708 24.9093C24.748 24.84 24.7787 24.7667 24.816 24.6973C24.7203 24.5124 24.6121 24.3342 24.492 24.164L20.4 18.5493Z" fill="#FFF"/>
<path d="M24.7027 29.052C24.2843 29.7485 23.6927 30.3248 22.9853 30.7246C22.278 31.1244 21.4792 31.3341 20.6667 31.3333H11.3333C10.5217 31.3332 9.72399 31.123 9.01768 30.7233C8.31137 30.3235 7.72054 29.7477 7.30267 29.052C6.8557 28.3067 6.63786 27.4464 6.67627 26.5782C6.71467 25.71 7.00763 24.8723 7.51867 24.1693L11.6 18.5493C11.7237 18.3792 11.8859 18.2407 12.0734 18.1452C12.2609 18.0497 12.4683 18 12.6787 18H19.3213C19.5317 18 19.7391 18.0497 19.9266 18.1452C20.1141 18.2407 20.2763 18.3792 20.4 18.5493L24.4867 24.1693C24.9977 24.8723 25.2907 25.71 25.3291 26.5782C25.3675 27.4464 25.1496 28.3067 24.7027 29.052Z" stroke="#00303E" stroke-linecap="round" stroke-linejoin="round"/>
<path d="M24.6667 6.66663C18 9.33329 18 16.6666 18 16.6666V18" stroke="#00303E" stroke-linecap="round" stroke-linejoin="round"/>
<path d="M7.33333 6.66663C14 9.33329 14 16.6666 14 16.6666V18" stroke="#00303E" stroke-linecap="round" stroke-linejoin="round"/>
<path d="M21.6373 4.64138C22.304 4.73338 23.2227 2.90804 23.324 2.18271C23.368 1.83459 23.2729 1.48318 23.0595 1.20468C22.846 0.926172 22.5314 0.743026 22.1839 0.694952C21.8363 0.646878 21.4838 0.73775 21.2027 0.947864C20.9217 1.15798 20.7349 1.4704 20.6827 1.81738C20.5813 2.54671 20.9773 4.55071 21.6373 4.64138Z" stroke="#00303E" stroke-linecap="round" stroke-linejoin="round"/>
<path d="M22.0133 11.944C21.832 12.5854 23.5067 13.7534 24.216 13.9547C24.3855 14.0059 24.5634 14.0228 24.7395 14.0045C24.9156 13.9862 25.0863 13.933 25.2416 13.848C25.3969 13.763 25.5337 13.6479 25.6441 13.5095C25.7545 13.3711 25.8361 13.2121 25.8844 13.0417C25.9326 12.8714 25.9465 12.6931 25.9251 12.5174C25.9038 12.3416 25.8476 12.1719 25.7599 12.0181C25.6723 11.8643 25.5549 11.7295 25.4145 11.6215C25.2742 11.5136 25.1138 11.4347 24.9427 11.3894C24.2347 11.188 22.196 11.3027 22.0133 11.944Z" stroke="#00303E" stroke-linecap="round" stroke-linejoin="round"/>
<path d="M26.4907 8.94928C26.4387 9.61594 28.312 10.4266 29.0467 10.4839C29.3976 10.5083 29.744 10.3929 30.0103 10.163C30.2765 9.93307 30.4412 9.60723 30.4682 9.25647C30.4953 8.90571 30.3827 8.55846 30.1549 8.29038C29.9271 8.02231 29.6025 7.85513 29.252 7.82528C28.5173 7.76794 26.5413 8.28394 26.4907 8.94928Z" stroke="#00303E" stroke-linecap="round" stroke-linejoin="round"/>
<path d="M25.592 4.87471C26.1173 5.78404 29.2773 5.17338 30.2827 4.59338C30.5217 4.4554 30.7312 4.2717 30.8992 4.05276C31.0672 3.83383 31.1904 3.58394 31.2619 3.31738C31.3333 3.05081 31.3515 2.77278 31.3155 2.49917C31.2795 2.22556 31.19 1.96171 31.052 1.72271C30.914 1.4837 30.7303 1.27421 30.5114 1.1062C30.2925 0.93819 30.0426 0.814946 29.776 0.743507C29.5094 0.672068 29.2314 0.653832 28.9578 0.689841C28.6842 0.72585 28.4203 0.815399 28.1813 0.953375C27.176 1.53337 25.0667 3.96537 25.592 4.87471Z" stroke="#00303E" stroke-linecap="round" stroke-linejoin="round"/>
<path d="M10.3627 4.64138C9.696 4.73338 8.77733 2.90804 8.676 2.18271C8.63205 1.83459 8.7271 1.48318 8.94054 1.20468C9.15397 0.926172 9.46858 0.743026 9.81616 0.694952C10.1637 0.646878 10.5162 0.73775 10.7973 0.947864C11.0783 1.15798 11.2651 1.4704 11.3173 1.81738C11.4187 2.54671 11.0227 4.55071 10.3627 4.64138Z" stroke="#00303E" stroke-linecap="round" stroke-linejoin="round"/>
<path d="M16 8.00928C15.3333 8.00928 14.6667 6.07728 14.6667 5.34261C14.6667 4.98899 14.8071 4.64985 15.0572 4.3998C15.3072 4.14975 15.6464 4.00928 16 4.00928C16.3536 4.00928 16.6927 4.14975 16.9428 4.3998C17.1928 4.64985 17.3333 4.98899 17.3333 5.34261C17.3333 6.08128 16.6667 8.01061 16 8.00928Z" stroke="#00303E" stroke-linecap="round" stroke-linejoin="round"/>
<path d="M9.98667 11.944C10.168 12.5854 8.49334 13.7534 7.784 13.9547C7.61453 14.0059 7.43655 14.0228 7.26047 14.0045C7.08438 13.9862 6.9137 13.933 6.7584 13.848C6.60309 13.763 6.46626 13.6479 6.3559 13.5095C6.24554 13.3711 6.16385 13.2121 6.1156 13.0417C6.06735 12.8714 6.0535 12.6931 6.07487 12.5174C6.09624 12.3416 6.15239 12.1719 6.24006 12.0181C6.32772 11.8643 6.44514 11.7295 6.58546 11.6215C6.72578 11.5136 6.88619 11.4347 7.05734 11.3894C7.76534 11.188 9.804 11.3027 9.98667 11.944Z" stroke="#00303E" stroke-linecap="round" stroke-linejoin="round"/>
<path d="M5.50933 8.94928C5.56133 9.61594 3.688 10.4266 2.95333 10.4839C2.77799 10.4989 2.60142 10.4789 2.43382 10.4253C2.26621 10.3717 2.11088 10.2854 1.97678 10.1714C1.84268 10.0575 1.73247 9.9181 1.6525 9.76134C1.57253 9.60458 1.52438 9.43355 1.51083 9.25809C1.49727 9.08263 1.51859 8.90623 1.57354 8.73905C1.6285 8.57187 1.716 8.41722 1.83101 8.28403C1.94602 8.15083 2.08626 8.04172 2.24365 7.96298C2.40103 7.88425 2.57244 7.83745 2.748 7.82528C3.48267 7.76794 5.45867 8.28394 5.50933 8.94928Z" stroke="#00303E" stroke-linecap="round" stroke-linejoin="round"/>
<path d="M6.40799 4.87471C5.88266 5.78405 2.72266 5.17338 1.71733 4.59338C1.23463 4.31473 0.882404 3.85574 0.738126 3.31738C0.593848 2.77903 0.669339 2.20541 0.947994 1.72271C1.22665 1.24002 1.68564 0.88779 2.22399 0.743512C2.76235 0.599234 3.33597 0.674726 3.81866 0.95338C4.82399 1.53338 6.93333 3.96538 6.40799 4.87471Z" stroke="#00303E" stroke-linecap="round" stroke-linejoin="round"/>
</g>
<defs>
<clipPath id="clip0_28_1400">
<rect width="32" height="32" fill="white"/>
</clipPath>
</defs>
</svg>
