<svg width="18" height="18" viewBox="0 0 18 18" fill="none" xmlns="http://www.w3.org/2000/svg">
<g clip-path="url(#clip0_205_3639)">
<path d="M1.25915 13.5119C1.47054 15.3543 3.0034 16.8171 4.89894 16.9063C6.20909 16.968 7.54745 17 9.00003 17C10.4526 17 11.7909 16.968 13.101 16.9063C14.9967 16.8171 16.5295 15.3543 16.7408 13.5119C16.8833 12.2712 17 10.9992 17 9.70343C17 8.40765 16.8833 7.13563 16.7408 5.89494C16.5295 4.05254 14.9967 2.58973 13.101 2.50054C11.7909 2.4389 10.4526 2.40686 9.00003 2.40686C7.54745 2.40686 6.20909 2.4389 4.89894 2.50054C3.00342 2.58973 1.47054 4.05254 1.25915 5.89494C1.11679 7.13563 1 8.40765 1 9.70343C1 10.9992 1.11679 12.2712 1.25915 13.5119Z" fill="white"/>
<path d="M1.25915 13.5119C1.47054 15.3543 3.0034 16.8171 4.89894 16.9063C6.20909 16.968 7.54745 17 9.00003 17C10.4526 17 11.7909 16.968 13.101 16.9063C14.9967 16.8171 16.5295 15.3543 16.7408 13.5119C16.8833 12.2712 17 10.9992 17 9.70343C17 8.40765 16.8833 7.13563 16.7408 5.89494C16.5295 4.05254 14.9967 2.58973 13.101 2.50054C11.7909 2.4389 10.4526 2.40686 9.00003 2.40686C7.54745 2.40686 6.20909 2.4389 4.89894 2.50054C3.00342 2.58973 1.47054 4.05254 1.25915 5.89494C1.11679 7.13563 1 8.40765 1 9.70343C1 10.9992 1.11679 12.2712 1.25915 13.5119Z" stroke="#CB3A60" stroke-width="1.2" stroke-linecap="round" stroke-linejoin="round"/>
<path d="M5.2627 1V4.19995" stroke="#CB3A60" stroke-width="1.2" stroke-linecap="round" stroke-linejoin="round"/>
<path d="M12.4648 1V4.19995" stroke="#CB3A60" stroke-width="1.2" stroke-linecap="round" stroke-linejoin="round"/>
<path d="M4.93066 7.78317H5.58577" stroke="#CB3A60" stroke-width="1.2" stroke-linecap="round" stroke-linejoin="round"/>
<path d="M4.93066 11.6231H5.58577" stroke="#CB3A60" stroke-width="1.2" stroke-linecap="round" stroke-linejoin="round"/>
<path d="M8.53369 7.78317H9.1888" stroke="#CB3A60" stroke-width="1.2" stroke-linecap="round" stroke-linejoin="round"/>
<path d="M12.1367 7.78317H12.7918" stroke="#CB3A60" stroke-width="1.2" stroke-linecap="round" stroke-linejoin="round"/>
<path d="M8.53369 11.6231H9.1888" stroke="#CB3A60" stroke-width="1.2" stroke-linecap="round" stroke-linejoin="round"/>
</g>
<defs>
<clipPath id="clip0_205_3639">
<rect width="18" height="18" fill="white"/>
</clipPath>
</defs>
</svg>
