<svg width="32" height="32" viewBox="0 0 32 32" fill="none" xmlns="http://www.w3.org/2000/svg">
<path d="M1.94467 4.38879C1.94467 3.74048 2.2022 3.11872 2.66063 2.66031C3.11905 2.20188 3.74081 1.94434 4.38911 1.94434H27.6113C28.2596 1.94434 28.8813 2.20188 29.3397 2.66031C29.7983 3.11872 30.0557 3.74048 30.0557 4.38879V27.611C30.0557 28.2593 29.7983 28.881 29.3397 29.3395C28.8813 29.7979 28.2596 30.0554 27.6113 30.0554H4.38911C3.74081 30.0554 3.11905 29.7979 2.66063 29.3395C2.2022 28.881 1.94467 28.2593 1.94467 27.611V4.38879Z" fill="#FAF0F2"/>
<path d="M27.6113 1.94434H4.38911C3.74081 1.94434 3.11905 2.20188 2.66063 2.66031C2.2022 3.11872 1.94467 3.74048 1.94467 4.38879V8.05546C1.94467 7.40715 2.2022 6.78539 2.66063 6.32698C3.11905 5.86854 3.74081 5.611 4.38911 5.611H27.6113C28.2596 5.611 28.8813 5.86854 29.3397 6.32698C29.7983 6.78539 30.0557 7.40715 30.0557 8.05546V4.38879C30.0557 3.74048 29.7983 3.11872 29.3397 2.66031C28.8813 2.20188 28.2596 1.94434 27.6113 1.94434Z" fill="white"/>
<path d="M1.94467 4.38879C1.94467 3.74048 2.2022 3.11872 2.66063 2.66031C3.11905 2.20188 3.74081 1.94434 4.38911 1.94434H27.6113C28.2596 1.94434 28.8813 2.20188 29.3397 2.66031C29.7983 3.11872 30.0557 3.74048 30.0557 4.38879V27.611C30.0557 28.2593 29.7983 28.881 29.3397 29.3395C28.8813 29.7979 28.2596 30.0554 27.6113 30.0554H4.38911C3.74081 30.0554 3.11905 29.7979 2.66063 29.3395C2.2022 28.881 1.94467 28.2593 1.94467 27.611V4.38879Z" stroke="#191919" stroke-linecap="round" stroke-linejoin="round"/>
<path d="M20.2776 12.3332C20.2781 11.5689 20.074 10.8184 19.6863 10.1597C19.2985 9.50104 18.7415 8.9583 18.0729 8.5879C17.4044 8.21751 16.6487 8.03299 15.8847 8.05355C15.1207 8.07412 14.376 8.29902 13.7284 8.70483C13.0808 9.11066 12.5537 9.68259 12.2019 10.3612C11.8502 11.0397 11.6867 11.8001 11.7284 12.5633C11.7701 13.3265 12.0155 14.0645 12.4392 14.7007C12.8628 15.3369 13.4491 15.8479 14.1371 16.1807L12.3331 23.9443H19.6664L17.86 16.1807C18.5837 15.8313 19.1943 15.285 19.6219 14.6045C20.0495 13.9241 20.2767 13.1369 20.2776 12.3332Z" fill="#FADEE3" stroke="#191919" stroke-linecap="round" stroke-linejoin="round"/>
</svg>
