<svg width="18" height="18" viewBox="0 0 18 18" fill="none" xmlns="http://www.w3.org/2000/svg">
<g clip-path="url(#clip0_168_230)">
<path d="M10.575 16.0973C13.9801 12.1265 8.10271 2.94893 13.5657 1.28638H4.61736C-0.617507 2.94893 4.80247 12.4314 1.62662 15.7824C1.62662 15.7824 2.70624 16.714 6.02046 16.714C9.33467 16.714 10.575 16.0973 10.575 16.0973Z" fill="white"/>
<path d="M16.0469 7.57332H11.3029C10.3965 2.42433 12.685 1.24798 14.022 1.28655C16.799 1.71853 16.574 5.65772 16.0469 7.57332Z" fill="#FADEE3"/>
<path d="M16.0469 7.57332H11.3029C10.3965 2.42433 12.685 1.24798 14.022 1.28655C16.799 1.71853 16.574 5.65772 16.0469 7.57332Z" stroke="#CB3A60" stroke-width="1.3" stroke-linecap="round" stroke-linejoin="round"/>
<path d="M10.575 16.0973C13.9801 12.1265 8.10271 2.94893 13.5657 1.28638H4.61736C-0.617507 2.94893 4.80247 12.4314 1.62662 15.7824C1.62662 15.7824 2.70624 16.714 6.02046 16.714C9.33467 16.714 10.575 16.0973 10.575 16.0973Z" stroke="#CB3A60" stroke-width="1.3" stroke-linecap="round" stroke-linejoin="round"/>
<path d="M5.57605 5.0647H7.96155" stroke="#CB3A60" stroke-width="1.3" stroke-linecap="round" stroke-linejoin="round"/>
<path d="M5.88428 9.00024H8.26978" stroke="#CB3A60" stroke-width="1.3" stroke-linecap="round" stroke-linejoin="round"/>
<path d="M5.88428 12.936H8.26978" stroke="#CB3A60" stroke-width="1.3" stroke-linecap="round" stroke-linejoin="round"/>
</g>
<defs>
<clipPath id="clip0_168_230">
<rect width="18" height="18" fill="white"/>
</clipPath>
</defs>
</svg>
