<svg width="32" height="32" viewBox="0 0 32 32" fill="none" xmlns="http://www.w3.org/2000/svg">
<path d="M26.5987 16C26.4478 16.0022 26.3009 15.9521 26.1828 15.8583C26.0647 15.7645 25.9827 15.6327 25.9507 15.4853C25.8322 14.8781 25.5063 14.331 25.0289 13.9377C24.5514 13.5443 23.952 13.3292 23.3333 13.3292C22.7147 13.3292 22.1153 13.5443 21.6378 13.9377C21.1603 14.331 20.8344 14.8781 20.716 15.4853C20.684 15.6327 20.602 15.7645 20.4839 15.8583C20.3658 15.9521 20.2188 16.0022 20.068 16H17.3333V18.7347C17.3311 18.8855 17.3812 19.0324 17.475 19.1505C17.5688 19.2686 17.7006 19.3507 17.848 19.3827C18.4552 19.5011 19.0023 19.827 19.3957 20.3045C19.789 20.782 20.0041 21.3814 20.0041 22C20.0041 22.6186 19.789 23.218 19.3957 23.6955C19.0023 24.173 18.4552 24.4989 17.848 24.6173C17.7006 24.6493 17.5688 24.7313 17.475 24.8495C17.3812 24.9676 17.3311 25.1145 17.3333 25.2653V28H28C28.3536 28 28.6928 27.8595 28.9428 27.6095C29.1929 27.3594 29.3333 27.0203 29.3333 26.6667V16H26.5987Z" fill="#f3eadc" stroke="#00303E" stroke-linecap="round" stroke-linejoin="round"/>
<path d="M26.5987 3.99995C26.4478 3.99775 26.3009 4.0478 26.1828 4.14161C26.0647 4.23542 25.9827 4.36721 25.9507 4.51461C25.8322 5.12181 25.5063 5.66893 25.0289 6.06228C24.5514 6.45562 23.952 6.67072 23.3333 6.67072C22.7147 6.67072 22.1153 6.45562 21.6378 6.06228C21.1603 5.66893 20.8344 5.12181 20.716 4.51461C20.684 4.36721 20.602 4.23542 20.4839 4.14161C20.3658 4.0478 20.2188 3.99775 20.068 3.99995H17.3333V6.73461C17.3355 6.88543 17.2855 7.03237 17.1917 7.15049C17.0979 7.2686 16.9661 7.35062 16.8187 7.38261C16.2115 7.50106 15.6643 7.82693 15.271 8.30442C14.8777 8.78191 14.6626 9.38131 14.6626 9.99995C14.6626 10.6186 14.8777 11.218 15.271 11.6955C15.6643 12.173 16.2115 12.4988 16.8187 12.6173C16.9661 12.6493 17.0979 12.7313 17.1917 12.8494C17.2855 12.9675 17.3355 13.1145 17.3333 13.2653V15.9999H20.068C20.2188 16.0021 20.3658 15.9521 20.4839 15.8583C20.602 15.7645 20.684 15.6327 20.716 15.4853C20.8344 14.8781 21.1603 14.331 21.6378 13.9376C22.1153 13.5443 22.7147 13.3292 23.3333 13.3292C23.952 13.3292 24.5514 13.5443 25.0289 13.9376C25.5063 14.331 25.8322 14.8781 25.9507 15.4853C25.9827 15.6327 26.0647 15.7645 26.1828 15.8583C26.3009 15.9521 26.4478 16.0021 26.5987 15.9999H29.3333V5.33328C29.3333 4.97966 29.1929 4.64052 28.9428 4.39047C28.6928 4.14042 28.3536 3.99995 28 3.99995H26.5987Z" fill="#f3eadc"/>
<path d="M16.8187 12.6173C16.9661 12.6493 17.0979 12.7313 17.1917 12.8494C17.2855 12.9675 17.3355 13.1145 17.3333 13.2653V15.9999H17.532L29.0373 4.49461C28.9123 4.34003 28.7542 4.21537 28.5747 4.12978C28.3952 4.04419 28.1989 3.99983 28 3.99995H26.5987C26.4478 3.99775 26.3009 4.0478 26.1828 4.14161C26.0647 4.23542 25.9827 4.36721 25.9507 4.51461C25.8322 5.12181 25.5063 5.66893 25.0289 6.06228C24.5514 6.45562 23.952 6.67071 23.3333 6.67071C22.7147 6.67071 22.1153 6.45562 21.6378 6.06228C21.1603 5.66893 20.8344 5.12181 20.716 4.51461C20.684 4.36721 20.602 4.23542 20.4839 4.14161C20.3658 4.0478 20.2188 3.99775 20.068 3.99995H17.3333V6.73461C17.3355 6.88543 17.2855 7.03237 17.1917 7.15048C17.0979 7.2686 16.9661 7.35062 16.8187 7.38261C16.2115 7.50106 15.6643 7.82693 15.271 8.30442C14.8777 8.78191 14.6626 9.38131 14.6626 9.99995C14.6626 10.6186 14.8777 11.218 15.271 11.6955C15.6643 12.173 16.2115 12.4988 16.8187 12.6173Z" fill="#FFF"/>
<path d="M5.33334 6.73467C5.33114 6.88549 5.38119 7.03242 5.475 7.15054C5.56881 7.26865 5.7006 7.35067 5.848 7.38267C6.4552 7.50111 7.00232 7.82699 7.39567 8.30448C7.78901 8.78197 8.0041 9.38136 8.0041 10C8.0041 10.6186 7.78901 11.218 7.39567 11.6955C7.00232 12.173 6.4552 12.4989 5.848 12.6173C5.7006 12.6493 5.56881 12.7313 5.475 12.8495C5.38119 12.9676 5.33114 13.1145 5.33334 13.2653V16H8.068C8.21882 15.9978 8.36576 16.0479 8.48387 16.1417C8.60199 16.2355 8.68401 16.3673 8.716 16.5147C8.83445 17.1219 9.16032 17.669 9.63781 18.0623C10.1153 18.4557 10.7147 18.6708 11.3333 18.6708C11.952 18.6708 12.5514 18.4557 13.0289 18.0623C13.5064 17.669 13.8322 17.1219 13.9507 16.5147C13.9827 16.3673 14.0647 16.2355 14.1828 16.1417C14.3009 16.0479 14.4479 15.9978 14.5987 16H17.3333V13.2653C17.3355 13.1145 17.2855 12.9676 17.1917 12.8495C17.0979 12.7313 16.9661 12.6493 16.8187 12.6173C16.2115 12.4989 15.6644 12.173 15.271 11.6955C14.8777 11.218 14.6626 10.6186 14.6626 10C14.6626 9.38136 14.8777 8.78197 15.271 8.30448C15.6644 7.82699 16.2115 7.50111 16.8187 7.38267C16.9661 7.35067 17.0979 7.26865 17.1917 7.15054C17.2855 7.03242 17.3355 6.88549 17.3333 6.73467V4H6.66667C6.31305 4 5.97391 4.14048 5.72386 4.39052C5.47381 4.64057 5.33334 4.97971 5.33334 5.33333V6.73467Z" fill="#FFF" stroke="#00303E" stroke-linecap="round" stroke-linejoin="round"/>
<path d="M17.848 19.3826C17.7006 19.3506 17.5688 19.2686 17.475 19.1505C17.3812 19.0324 17.3311 18.8854 17.3333 18.7346V15.9999H14.5987C14.4478 15.9977 14.3009 16.0478 14.1828 16.1416C14.0647 16.2354 13.9827 16.3672 13.9507 16.5146C13.8322 17.1218 13.5063 17.6689 13.0289 18.0623C12.5514 18.4556 11.952 18.6707 11.3333 18.6707C10.7147 18.6707 10.1153 18.4556 9.63781 18.0623C9.16032 17.6689 8.83445 17.1218 8.716 16.5146C8.684 16.3672 8.60199 16.2354 8.48387 16.1416C8.36576 16.0478 8.21882 15.9977 8.068 15.9999H5.33333V18.7346C5.33554 18.8854 5.28548 19.0324 5.19167 19.1505C5.09786 19.2686 4.96607 19.3506 4.81867 19.3826C4.21147 19.5011 3.66435 19.8269 3.271 20.3044C2.87766 20.7819 2.66257 21.3813 2.66257 21.9999C2.66257 22.6186 2.87766 23.218 3.271 23.6955C3.66435 24.173 4.21147 24.4988 4.81867 24.6173C4.96607 24.6493 5.09786 24.7313 5.19167 24.8494C5.28548 24.9675 5.33554 25.1145 5.33333 25.2653V26.6666C5.33333 27.0202 5.47381 27.3594 5.72386 27.6094C5.97391 27.8595 6.31305 27.9999 6.66667 27.9999H17.3333V25.2653C17.3311 25.1145 17.3812 24.9675 17.475 24.8494C17.5688 24.7313 17.7006 24.6493 17.848 24.6173C18.4552 24.4988 19.0023 24.173 19.3957 23.6955C19.789 23.218 20.0041 22.6186 20.0041 21.9999C20.0041 21.3813 19.789 20.7819 19.3957 20.3044C19.0023 19.8269 18.4552 19.5011 17.848 19.3826Z" fill="#f3eadc"/>
<path d="M5.33333 25.2653V26.6666C5.33322 26.8655 5.37758 27.0618 5.46317 27.2413C5.54876 27.4208 5.67341 27.5789 5.828 27.7039L17.3333 16.1986V15.9999H14.5987C14.4478 15.9977 14.3009 16.0478 14.1828 16.1416C14.0647 16.2354 13.9827 16.3672 13.9507 16.5146C13.8322 17.1218 13.5063 17.6689 13.0289 18.0623C12.5514 18.4556 11.952 18.6707 11.3333 18.6707C10.7147 18.6707 10.1153 18.4556 9.63781 18.0623C9.16032 17.6689 8.83445 17.1218 8.716 16.5146C8.684 16.3672 8.60199 16.2354 8.48387 16.1416C8.36576 16.0478 8.21882 15.9977 8.068 15.9999H5.33333V18.7346C5.33554 18.8854 5.28548 19.0324 5.19167 19.1505C5.09786 19.2686 4.96607 19.3506 4.81867 19.3826C4.21147 19.5011 3.66435 19.8269 3.271 20.3044C2.87766 20.7819 2.66257 21.3813 2.66257 21.9999C2.66257 22.6186 2.87766 23.218 3.271 23.6955C3.66435 24.173 4.21147 24.4988 4.81867 24.6173C4.96607 24.6493 5.09786 24.7313 5.19167 24.8494C5.28548 24.9675 5.33554 25.1145 5.33333 25.2653Z" fill="#FFF"/>
<path d="M26.5987 3.99995C26.4478 3.99775 26.3009 4.0478 26.1828 4.14161C26.0647 4.23542 25.9827 4.36721 25.9507 4.51461C25.8322 5.12181 25.5063 5.66893 25.0289 6.06228C24.5514 6.45562 23.952 6.67072 23.3333 6.67072C22.7147 6.67072 22.1153 6.45562 21.6378 6.06228C21.1603 5.66893 20.8344 5.12181 20.716 4.51461C20.684 4.36721 20.602 4.23542 20.4839 4.14161C20.3658 4.0478 20.2188 3.99775 20.068 3.99995H17.3333V6.73461C17.3355 6.88543 17.2855 7.03237 17.1917 7.15049C17.0979 7.2686 16.9661 7.35062 16.8187 7.38261C16.2115 7.50106 15.6643 7.82693 15.271 8.30442C14.8777 8.78191 14.6626 9.38131 14.6626 9.99995C14.6626 10.6186 14.8777 11.218 15.271 11.6955C15.6643 12.173 16.2115 12.4988 16.8187 12.6173C16.9661 12.6493 17.0979 12.7313 17.1917 12.8494C17.2855 12.9675 17.3355 13.1145 17.3333 13.2653V15.9999H20.068C20.2188 16.0021 20.3658 15.9521 20.4839 15.8583C20.602 15.7645 20.684 15.6327 20.716 15.4853C20.8344 14.8781 21.1603 14.331 21.6378 13.9376C22.1153 13.5443 22.7147 13.3292 23.3333 13.3292C23.952 13.3292 24.5514 13.5443 25.0289 13.9376C25.5063 14.331 25.8322 14.8781 25.9507 15.4853C25.9827 15.6327 26.0647 15.7645 26.1828 15.8583C26.3009 15.9521 26.4478 16.0021 26.5987 15.9999H29.3333V5.33328C29.3333 4.97966 29.1929 4.64052 28.9428 4.39047C28.6928 4.14042 28.3536 3.99995 28 3.99995H26.5987Z" stroke="#00303E" stroke-linecap="round" stroke-linejoin="round"/>
<path d="M17.848 19.3826C17.7006 19.3506 17.5688 19.2686 17.475 19.1505C17.3812 19.0324 17.3311 18.8854 17.3333 18.7346V15.9999H14.5987C14.4478 15.9977 14.3009 16.0478 14.1828 16.1416C14.0647 16.2354 13.9827 16.3672 13.9507 16.5146C13.8322 17.1218 13.5063 17.6689 13.0289 18.0623C12.5514 18.4556 11.952 18.6707 11.3333 18.6707C10.7147 18.6707 10.1153 18.4556 9.63781 18.0623C9.16032 17.6689 8.83445 17.1218 8.716 16.5146C8.684 16.3672 8.60199 16.2354 8.48387 16.1416C8.36576 16.0478 8.21882 15.9977 8.068 15.9999H5.33333V18.7346C5.33554 18.8854 5.28548 19.0324 5.19167 19.1505C5.09786 19.2686 4.96607 19.3506 4.81867 19.3826C4.21147 19.5011 3.66435 19.8269 3.271 20.3044C2.87766 20.7819 2.66257 21.3813 2.66257 21.9999C2.66257 22.6186 2.87766 23.218 3.271 23.6955C3.66435 24.173 4.21147 24.4988 4.81867 24.6173C4.96607 24.6493 5.09786 24.7313 5.19167 24.8494C5.28548 24.9675 5.33554 25.1145 5.33333 25.2653V26.6666C5.33333 27.0202 5.47381 27.3594 5.72386 27.6094C5.97391 27.8595 6.31305 27.9999 6.66667 27.9999H17.3333V25.2653C17.3311 25.1145 17.3812 24.9675 17.475 24.8494C17.5688 24.7313 17.7006 24.6493 17.848 24.6173C18.4552 24.4988 19.0023 24.173 19.3957 23.6955C19.789 23.218 20.0041 22.6186 20.0041 21.9999C20.0041 21.3813 19.789 20.7819 19.3957 20.3044C19.0023 19.8269 18.4552 19.5011 17.848 19.3826Z" stroke="#00303E" stroke-linecap="round" stroke-linejoin="round"/>
</svg>
