<svg xmlns="http://www.w3.org/2000/svg" version="1.1" xmlns:xlink="http://www.w3.org/1999/xlink" xmlns:svgjs="http://svgjs.dev/svgjs" width="100" height="100"><svg width="100" height="100" viewBox="0 0 100 100" fill="none" xmlns="http://www.w3.org/2000/svg">
<path d="M65.9574 64.8084C65.9574 55.5757 73.3082 48.06 82.4766 47.7944C81.3909 32.8034 68.8848 20.9786 53.6169 20.9786C40.7353 20.9786 29.8197 29.3959 26.0702 41.0304C34.9468 43.3814 41.4894 51.4692 41.4894 61.0852C41.4894 65.8476 39.8845 70.2353 37.1861 73.7368C41.8533 76.962 47.5145 78.851 53.6169 78.851C59.2503 78.851 64.5076 77.2413 68.9541 74.4566C67.064 71.7145 65.9574 68.3907 65.9574 64.8084Z" fill="#CB3A60"></path>
<path fill-rule="evenodd" clip-rule="evenodd" d="M55.652 26.1325C55.6683 26.8374 55.1101 27.422 54.4053 27.4382C47.3237 27.6018 40.8778 31.0639 36.7743 36.5C36.3495 37.0627 35.5489 37.1745 34.9862 36.7498C34.4235 36.325 34.3117 35.5245 34.7365 34.9617C39.2962 28.9213 46.4622 25.0679 54.3463 24.8857C55.0511 24.8694 55.6357 25.4276 55.652 26.1325Z" fill="white"></path>
<path d="M97.0213 64.8084C97.0213 72.5639 90.7342 78.851 82.9787 78.851C75.2232 78.851 68.9361 72.5639 68.9361 64.8084C68.9361 57.0529 75.2232 50.7659 82.9787 50.7659C90.7342 50.7659 97.0213 57.0529 97.0213 64.8084Z" fill="#CB3A60"></path>
<path fill-rule="evenodd" clip-rule="evenodd" d="M83.9612 54.7484C83.9892 55.3353 83.5361 55.8337 82.9493 55.8617C79.8212 56.0109 77.0327 57.8002 75.5576 60.4754C75.2739 60.9899 74.6269 61.177 74.1124 60.8933C73.5979 60.6096 73.4107 59.9625 73.6944 59.448C75.5196 56.1379 78.9681 53.9215 82.8479 53.7364C83.4348 53.7085 83.9332 54.1615 83.9612 54.7484Z" fill="white"></path>
<path d="M38.5107 61.0852C38.5107 70.8971 30.5566 78.8512 20.7447 78.8512C10.9328 78.8512 2.97873 70.8971 2.97873 61.0852C2.97873 51.2733 10.9328 43.3192 20.7447 43.3192C30.5566 43.3192 38.5107 51.2733 38.5107 61.0852Z" fill="#CB3A60"></path>
<path fill-rule="evenodd" clip-rule="evenodd" d="M21.1721 48.0116C21.2617 48.6516 20.8154 49.2431 20.1754 49.3327C16.2735 49.8787 12.9051 52.1854 10.939 55.4513C10.6056 56.005 9.88655 56.1837 9.33286 55.8503C8.77916 55.517 8.60052 54.7979 8.93386 54.2442C11.2546 50.3893 15.232 47.6612 19.851 47.0148C20.4911 46.9253 21.0826 47.3715 21.1721 48.0116Z" fill="white"></path>
</svg><style>@media (prefers-color-scheme: light) { :root { filter: none; } }
@media (prefers-color-scheme: dark) { :root { filter: none; } }
</style></svg>