<svg width="684" height="233" viewBox="0 0 684 233" fill="none" xmlns="http://www.w3.org/2000/svg">
<path d="M380.497 210.84C380.497 212.68 380.857 214.28 381.577 215.64C382.377 216.92 383.377 218 384.577 218.88C385.777 219.68 387.137 220.28 388.657 220.68C390.257 221.08 391.897 221.28 393.577 221.28C394.777 221.28 396.017 221.16 397.297 220.92C398.657 220.6 399.857 220.16 400.897 219.6C402.017 218.96 402.937 218.16 403.657 217.2C404.377 216.16 404.737 214.88 404.737 213.36C404.737 210.8 403.017 208.88 399.577 207.6C396.217 206.32 391.497 205.04 385.417 203.76C382.937 203.2 380.497 202.56 378.097 201.84C375.777 201.04 373.697 200.04 371.857 198.84C370.017 197.56 368.537 196 367.417 194.16C366.297 192.24 365.737 189.92 365.737 187.2C365.737 183.2 366.497 179.92 368.017 177.36C369.617 174.8 371.697 172.8 374.257 171.36C376.817 169.84 379.697 168.8 382.897 168.24C386.097 167.6 389.377 167.28 392.737 167.28C396.097 167.28 399.337 167.6 402.457 168.24C405.657 168.88 408.497 169.96 410.977 171.48C413.457 173 415.497 175.04 417.097 177.6C418.777 180.08 419.777 183.24 420.097 187.08H403.897C403.657 183.8 402.417 181.6 400.177 180.48C397.937 179.28 395.297 178.68 392.257 178.68C391.297 178.68 390.257 178.76 389.137 178.92C388.017 179 386.977 179.24 386.017 179.64C385.137 180.04 384.377 180.64 383.737 181.44C383.097 182.16 382.777 183.16 382.777 184.44C382.777 185.96 383.337 187.2 384.457 188.16C385.577 189.12 387.017 189.92 388.777 190.56C390.617 191.12 392.697 191.64 395.017 192.12C397.337 192.6 399.697 193.12 402.097 193.68C404.577 194.24 406.977 194.92 409.297 195.72C411.697 196.52 413.817 197.6 415.657 198.96C417.497 200.24 418.977 201.88 420.097 203.88C421.217 205.8 421.777 208.2 421.777 211.08C421.777 215.16 420.937 218.6 419.257 221.4C417.657 224.12 415.537 226.32 412.897 228C410.257 229.68 407.217 230.84 403.777 231.48C400.417 232.2 396.977 232.56 393.457 232.56C389.857 232.56 386.337 232.2 382.897 231.48C379.457 230.76 376.377 229.56 373.657 227.88C371.017 226.2 368.817 224 367.057 221.28C365.377 218.48 364.457 215 364.297 210.84H380.497Z" fill="#CB3B62"/>
<path d="M344.951 193.32C344.151 189 342.711 185.72 340.631 183.48C338.631 181.24 335.551 180.12 331.391 180.12C328.671 180.12 326.391 180.6 324.551 181.56C322.791 182.44 321.351 183.56 320.231 184.92C319.191 186.28 318.431 187.72 317.951 189.24C317.551 190.76 317.311 192.12 317.231 193.32H344.951ZM317.231 204.12C317.471 209.64 318.871 213.64 321.431 216.12C323.991 218.6 327.671 219.84 332.471 219.84C335.911 219.84 338.871 219 341.351 217.32C343.831 215.56 345.351 213.72 345.911 211.8H360.911C358.511 219.24 354.831 224.56 349.871 227.76C344.911 230.96 338.911 232.56 331.871 232.56C326.991 232.56 322.591 231.8 318.671 230.28C314.751 228.68 311.431 226.44 308.711 223.56C305.991 220.68 303.871 217.24 302.351 213.24C300.911 209.24 300.191 204.84 300.191 200.04C300.191 195.4 300.951 191.08 302.471 187.08C303.991 183.08 306.151 179.64 308.951 176.76C311.751 173.8 315.071 171.48 318.911 169.8C322.831 168.12 327.151 167.28 331.871 167.28C337.151 167.28 341.751 168.32 345.671 170.4C349.591 172.4 352.791 175.12 355.271 178.56C357.831 182 359.671 185.92 360.791 190.32C361.911 194.72 362.311 199.32 361.991 204.12H317.231Z" fill="#CB3B62"/>
<path d="M277.533 145.32H294.573V231H277.533V145.32Z" fill="#CB3B62"/>
<path d="M253.974 200.04C253.974 197.4 253.694 194.88 253.134 192.48C252.574 190.08 251.694 187.96 250.494 186.12C249.294 184.28 247.774 182.84 245.934 181.8C244.174 180.68 242.014 180.12 239.454 180.12C236.974 180.12 234.814 180.68 232.974 181.8C231.134 182.84 229.614 184.28 228.414 186.12C227.214 187.96 226.334 190.08 225.774 192.48C225.214 194.88 224.934 197.4 224.934 200.04C224.934 202.6 225.214 205.08 225.774 207.48C226.334 209.88 227.214 212 228.414 213.84C229.614 215.68 231.134 217.16 232.974 218.28C234.814 219.32 236.974 219.84 239.454 219.84C242.014 219.84 244.174 219.32 245.934 218.28C247.774 217.16 249.294 215.68 250.494 213.84C251.694 212 252.574 209.88 253.134 207.48C253.694 205.08 253.974 202.6 253.974 200.04ZM208.494 145.32H225.534V176.52H225.774C227.854 173.32 230.654 171 234.174 169.56C237.774 168.04 241.494 167.28 245.334 167.28C248.454 167.28 251.534 167.92 254.574 169.2C257.614 170.48 260.334 172.44 262.734 175.08C265.214 177.72 267.214 181.12 268.734 185.28C270.254 189.36 271.014 194.24 271.014 199.92C271.014 205.6 270.254 210.52 268.734 214.68C267.214 218.76 265.214 222.12 262.734 224.76C260.334 227.4 257.614 229.36 254.574 230.64C251.534 231.92 248.454 232.56 245.334 232.56C240.774 232.56 236.694 231.84 233.094 230.4C229.494 228.96 226.774 226.52 224.934 223.08H224.694V231H208.494V145.32Z" fill="#CB3B62"/>
<path d="M166.653 168.96H182.853V180.48H183.093C183.893 178.56 184.973 176.8 186.333 175.2C187.693 173.52 189.253 172.12 191.013 171C192.773 169.8 194.653 168.88 196.653 168.24C198.653 167.6 200.733 167.28 202.893 167.28C204.013 167.28 205.253 167.48 206.613 167.88V183.72C205.813 183.56 204.853 183.44 203.733 183.36C202.613 183.2 201.533 183.12 200.493 183.12C197.373 183.12 194.733 183.64 192.573 184.68C190.413 185.72 188.653 187.16 187.293 189C186.013 190.76 185.093 192.84 184.533 195.24C183.973 197.64 183.693 200.24 183.693 203.04V231H166.653V168.96Z" fill="#CB3B62"/>
<path d="M101.827 188.04C102.067 184.04 103.067 180.72 104.827 178.08C106.587 175.44 108.827 173.32 111.547 171.72C114.267 170.12 117.307 169 120.667 168.36C124.107 167.64 127.547 167.28 130.987 167.28C134.107 167.28 137.267 167.52 140.467 168C143.667 168.4 146.587 169.24 149.227 170.52C151.867 171.8 154.027 173.6 155.707 175.92C157.387 178.16 158.227 181.16 158.227 184.92V217.2C158.227 220 158.387 222.68 158.707 225.24C159.027 227.8 159.587 229.72 160.387 231H143.107C142.787 230.04 142.507 229.08 142.267 228.12C142.107 227.08 141.987 226.04 141.907 225C139.187 227.8 135.987 229.76 132.307 230.88C128.627 232 124.867 232.56 121.027 232.56C118.067 232.56 115.307 232.2 112.747 231.48C110.187 230.76 107.947 229.64 106.027 228.12C104.107 226.6 102.587 224.68 101.467 222.36C100.427 220.04 99.9072 217.28 99.9072 214.08C99.9072 210.56 100.507 207.68 101.707 205.44C102.987 203.12 104.587 201.28 106.507 199.92C108.507 198.56 110.747 197.56 113.227 196.92C115.787 196.2 118.347 195.64 120.907 195.24C123.467 194.84 125.987 194.52 128.467 194.28C130.947 194.04 133.147 193.68 135.067 193.2C136.987 192.72 138.507 192.04 139.627 191.16C140.747 190.2 141.267 188.84 141.187 187.08C141.187 185.24 140.867 183.8 140.227 182.76C139.667 181.64 138.867 180.8 137.827 180.24C136.867 179.6 135.707 179.2 134.347 179.04C133.067 178.8 131.667 178.68 130.147 178.68C126.787 178.68 124.147 179.4 122.227 180.84C120.307 182.28 119.187 184.68 118.867 188.04H101.827ZM141.187 200.64C140.467 201.28 139.547 201.8 138.427 202.2C137.387 202.52 136.227 202.8 134.947 203.04C133.747 203.28 132.467 203.48 131.107 203.64C129.747 203.8 128.387 204 127.027 204.24C125.747 204.48 124.467 204.8 123.187 205.2C121.987 205.6 120.907 206.16 119.947 206.88C119.067 207.52 118.347 208.36 117.787 209.4C117.227 210.44 116.947 211.76 116.947 213.36C116.947 214.88 117.227 216.16 117.787 217.2C118.347 218.24 119.107 219.08 120.067 219.72C121.027 220.28 122.147 220.68 123.427 220.92C124.707 221.16 126.027 221.28 127.387 221.28C130.747 221.28 133.347 220.72 135.187 219.6C137.027 218.48 138.387 217.16 139.267 215.64C140.147 214.04 140.667 212.44 140.827 210.84C141.067 209.24 141.187 207.96 141.187 207V200.64Z" fill="#CB3B62"/>
<path d="M0.279999 145.32H26.8L46.84 204.24H47.08L66.04 145.32H92.56V231H74.92V170.28H74.68L53.68 231H39.16L18.16 170.88H17.92V231H0.279999V145.32Z" fill="#CB3B62"/>
<g filter="url(#filter0_b_117_91)">
<path d="M634.494 29.62H653.394V43.06H653.674C654.608 40.82 655.868 38.7667 657.454 36.9C659.041 34.94 660.861 33.3067 662.914 32C664.968 30.6 667.161 29.5267 669.494 28.78C671.828 28.0333 674.254 27.66 676.774 27.66C678.081 27.66 679.528 27.8933 681.114 28.36V46.84C680.181 46.6533 679.061 46.5133 677.754 46.42C676.448 46.2333 675.188 46.14 673.974 46.14C670.334 46.14 667.254 46.7467 664.734 47.96C662.214 49.1733 660.161 50.8533 658.574 53C657.081 55.0533 656.008 57.48 655.354 60.28C654.701 63.08 654.374 66.1133 654.374 69.38V102H634.494V29.62Z" fill="white"/>
</g>
<g filter="url(#filter1_b_117_91)">
<path d="M625.006 102H606.106V91.92H605.686C603.166 96.12 599.899 99.1533 595.886 101.02C591.873 102.887 587.766 103.82 583.566 103.82C578.246 103.82 573.859 103.12 570.406 101.72C567.046 100.32 564.386 98.36 562.426 95.84C560.466 93.2267 559.066 90.1 558.226 86.46C557.479 82.7267 557.106 78.62 557.106 74.14V29.62H576.986V70.5C576.986 76.4733 577.919 80.9533 579.786 83.94C581.653 86.8333 584.966 88.28 589.726 88.28C595.139 88.28 599.059 86.6933 601.486 83.52C603.913 80.2533 605.126 74.9333 605.126 67.56V29.62H625.006V102Z" fill="white"/>
</g>
<g filter="url(#filter2_b_117_91)">
<path d="M494.76 65.88C494.76 68.7733 495.04 71.62 495.6 74.42C496.16 77.1267 497.093 79.6 498.4 81.84C499.8 83.9867 501.62 85.7133 503.86 87.02C506.1 88.3267 508.9 88.98 512.26 88.98C515.62 88.98 518.42 88.3267 520.66 87.02C522.993 85.7133 524.813 83.9867 526.12 81.84C527.52 79.6 528.5 77.1267 529.06 74.42C529.62 71.62 529.9 68.7733 529.9 65.88C529.9 62.9867 529.62 60.14 529.06 57.34C528.5 54.54 527.52 52.0667 526.12 49.92C524.813 47.7733 522.993 46.0467 520.66 44.74C518.42 43.34 515.62 42.64 512.26 42.64C508.9 42.64 506.1 43.34 503.86 44.74C501.62 46.0467 499.8 47.7733 498.4 49.92C497.093 52.0667 496.16 54.54 495.6 57.34C495.04 60.14 494.76 62.9867 494.76 65.88ZM474.88 65.88C474.88 60.0933 475.767 54.8667 477.54 50.2C479.313 45.44 481.833 41.4267 485.1 38.16C488.367 34.8 492.287 32.2333 496.86 30.46C501.433 28.5933 506.567 27.66 512.26 27.66C517.953 27.66 523.087 28.5933 527.66 30.46C532.327 32.2333 536.293 34.8 539.56 38.16C542.827 41.4267 545.347 45.44 547.12 50.2C548.893 54.8667 549.78 60.0933 549.78 65.88C549.78 71.6667 548.893 76.8933 547.12 81.56C545.347 86.2267 542.827 90.24 539.56 93.6C536.293 96.8667 532.327 99.3867 527.66 101.16C523.087 102.933 517.953 103.82 512.26 103.82C506.567 103.82 501.433 102.933 496.86 101.16C492.287 99.3867 488.367 96.8667 485.1 93.6C481.833 90.24 479.313 86.2267 477.54 81.56C475.767 76.8933 474.88 71.6667 474.88 65.88Z" fill="white"/>
</g>
<g filter="url(#filter3_b_117_91)">
<path d="M432.927 63.08L396.247 2.03999H420.887L444.267 41.52L467.507 2.03999H492.007L454.907 63.64V102H432.927V63.08Z" fill="white"/>
</g>
<g filter="url(#filter4_b_117_91)">
<path d="M328.116 88.98C331.383 88.98 334.09 88.3267 336.236 87.02C338.476 85.7133 340.25 84.0333 341.556 81.98C342.956 79.8333 343.936 77.36 344.496 74.56C345.056 71.76 345.336 68.9133 345.336 66.02C345.336 63.1267 345.01 60.28 344.356 57.48C343.796 54.68 342.816 52.2067 341.416 50.06C340.016 47.82 338.196 46.0467 335.956 44.74C333.81 43.34 331.15 42.64 327.976 42.64C324.71 42.64 321.956 43.34 319.716 44.74C317.57 46.0467 315.796 47.7733 314.396 49.92C313.09 52.0667 312.156 54.54 311.596 57.34C311.036 60.14 310.756 63.0333 310.756 66.02C310.756 68.9133 311.036 71.76 311.596 74.56C312.25 77.36 313.23 79.8333 314.536 81.98C315.936 84.0333 317.756 85.7133 319.996 87.02C322.236 88.3267 324.943 88.98 328.116 88.98ZM291.576 29.62H310.476V38.86H310.756C313.183 34.94 316.263 32.0933 319.996 30.32C323.73 28.5467 327.836 27.66 332.316 27.66C338.01 27.66 342.91 28.7333 347.016 30.88C351.123 33.0267 354.53 35.8733 357.236 39.42C359.943 42.9667 361.95 47.12 363.256 51.88C364.563 56.5467 365.216 61.4467 365.216 66.58C365.216 71.4333 364.563 76.1 363.256 80.58C361.95 85.06 359.943 89.0267 357.236 92.48C354.623 95.9333 351.31 98.6867 347.296 100.74C343.376 102.793 338.756 103.82 333.436 103.82C328.956 103.82 324.803 102.933 320.976 101.16C317.243 99.2933 314.163 96.5867 311.736 93.04H311.456V127.34H291.576V29.62Z" fill="white"/>
</g>
<g filter="url(#filter5_b_117_91)">
<path d="M265.506 58.04C264.572 53 262.892 49.1733 260.466 46.56C258.132 43.9467 254.539 42.64 249.686 42.64C246.512 42.64 243.852 43.2 241.706 44.32C239.652 45.3467 237.972 46.6533 236.666 48.24C235.452 49.8267 234.566 51.5067 234.006 53.28C233.539 55.0533 233.259 56.64 233.166 58.04H265.506ZM233.166 70.64C233.446 77.08 235.079 81.7467 238.066 84.64C241.052 87.5333 245.346 88.98 250.946 88.98C254.959 88.98 258.412 88 261.306 86.04C264.199 83.9867 265.972 81.84 266.626 79.6H284.126C281.326 88.28 277.032 94.4867 271.246 98.22C265.459 101.953 258.459 103.82 250.246 103.82C244.552 103.82 239.419 102.933 234.846 101.16C230.272 99.2933 226.399 96.68 223.226 93.32C220.052 89.96 217.579 85.9467 215.806 81.28C214.126 76.6133 213.286 71.48 213.286 65.88C213.286 60.4667 214.172 55.4267 215.946 50.76C217.719 46.0933 220.239 42.08 223.506 38.72C226.772 35.2667 230.646 32.56 235.126 30.6C239.699 28.64 244.739 27.66 250.246 27.66C256.406 27.66 261.772 28.8733 266.346 31.3C270.919 33.6333 274.652 36.8067 277.546 40.82C280.532 44.8333 282.679 49.4067 283.986 54.54C285.292 59.6733 285.759 65.04 285.386 70.64H233.166Z" fill="white"/>
</g>
<g filter="url(#filter6_b_117_91)">
<path d="M190.715 58.04C189.782 53 188.102 49.1733 185.675 46.56C183.342 43.9467 179.748 42.64 174.895 42.64C171.722 42.64 169.062 43.2 166.915 44.32C164.862 45.3467 163.182 46.6533 161.875 48.24C160.662 49.8267 159.775 51.5067 159.215 53.28C158.748 55.0533 158.468 56.64 158.375 58.04H190.715ZM158.375 70.64C158.655 77.08 160.288 81.7467 163.275 84.64C166.262 87.5333 170.555 88.98 176.155 88.98C180.168 88.98 183.622 88 186.515 86.04C189.408 83.9867 191.182 81.84 191.835 79.6H209.335C206.535 88.28 202.242 94.4867 196.455 98.22C190.668 101.953 183.668 103.82 175.455 103.82C169.762 103.82 164.628 102.933 160.055 101.16C155.482 99.2933 151.608 96.68 148.435 93.32C145.262 89.96 142.788 85.9467 141.015 81.28C139.335 76.6133 138.495 71.48 138.495 65.88C138.495 60.4667 139.382 55.4267 141.155 50.76C142.928 46.0933 145.448 42.08 148.715 38.72C151.982 35.2667 155.855 32.56 160.335 30.6C164.908 28.64 169.948 27.66 175.455 27.66C181.615 27.66 186.982 28.8733 191.555 31.3C196.128 33.6333 199.862 36.8067 202.755 40.82C205.742 44.8333 207.888 49.4067 209.195 54.54C210.502 59.6733 210.968 65.04 210.595 70.64H158.375Z" fill="white"/>
</g>
<g filter="url(#filter7_b_117_91)">
<path d="M48.66 2.03999H70.64V43.48L109.7 2.03999H137.14L98.08 41.52L140.92 102H113.34L83.24 57.06L70.64 69.8V102H48.66V2.03999Z" fill="white"/>
</g>
<g filter="url(#filter8_b_117_91)">
<path fill-rule="evenodd" clip-rule="evenodd" d="M634.494 29.62V102H654.374V69.38C654.374 66.1133 654.701 63.08 655.354 60.28C656.008 57.48 657.081 55.0533 658.574 53C660.161 50.8533 662.214 49.1733 664.734 47.96C667.254 46.7467 670.334 46.14 673.974 46.14C675.188 46.14 676.448 46.2333 677.754 46.42C678.233 46.4542 678.686 46.4946 679.114 46.5413C679.856 46.6221 680.523 46.7217 681.114 46.84V28.36C679.528 27.8933 678.081 27.66 676.774 27.66C674.254 27.66 671.828 28.0333 669.494 28.78C667.161 29.5267 664.968 30.6 662.914 32C660.861 33.3067 659.041 34.94 657.454 36.9C656.692 37.7965 656.006 38.736 655.394 39.7186C654.733 40.782 654.16 41.8958 653.674 43.06H653.394V29.62H634.494ZM655.394 36.2564V27.62H632.494V104H656.374V69.38C656.374 66.246 656.688 63.3669 657.302 60.7345C657.902 58.1644 658.872 55.9933 660.186 54.1847C661.569 52.3142 663.362 50.8404 665.602 49.762C667.783 48.7121 670.548 48.14 673.974 48.14C675.085 48.14 676.251 48.2255 677.472 48.3999L677.541 48.4099L677.612 48.4149C678.863 48.5043 679.895 48.6358 680.722 48.8012L683.114 49.2796V26.8635L681.679 26.4413C679.955 25.9343 678.315 25.66 676.774 25.66C674.053 25.66 671.421 26.0636 668.885 26.8752C666.375 27.6782 664.017 28.8313 661.814 30.3296C659.59 31.7493 657.623 33.5171 655.916 35.622C655.738 35.8313 655.564 36.0427 655.394 36.2564Z" fill="#F0E0E3"/>
</g>
<g filter="url(#filter9_b_117_91)">
<path fill-rule="evenodd" clip-rule="evenodd" d="M625.006 102V29.62H605.126V67.56C605.126 74.9333 603.913 80.2533 601.486 83.52C599.059 86.6933 595.139 88.28 589.726 88.28C584.966 88.28 581.653 86.8333 579.786 83.94C577.919 80.9533 576.986 76.4733 576.986 70.5V29.62H557.106V74.14C557.106 78.62 557.479 82.7267 558.226 86.46C559.066 90.1 560.466 93.2267 562.426 95.84C564.386 98.36 567.046 100.32 570.406 101.72C573.859 103.12 578.246 103.82 583.566 103.82C587.766 103.82 591.873 102.887 595.886 101.02C599.107 99.5219 601.847 97.2724 604.106 94.2714C604.662 93.5331 605.189 92.7493 605.686 91.92H606.106V102H625.006ZM604.106 97.4002V104H627.006V27.62H603.126V67.56C603.126 74.7977 601.918 79.5741 599.89 82.3145C597.965 84.8249 594.748 86.28 589.726 86.28C585.367 86.28 582.842 84.978 581.474 82.8665C579.905 80.3481 578.986 76.3193 578.986 70.5V27.62H555.106V74.14C555.106 78.7293 555.488 82.9695 556.265 86.8522L556.271 86.8811L556.277 86.9097C557.171 90.7825 558.676 94.1738 560.826 97.04L560.837 97.054L560.847 97.0679C563.048 99.8967 566.004 102.052 569.637 103.566L569.646 103.57L569.655 103.573C573.426 105.102 578.09 105.82 583.566 105.82C588.073 105.82 592.467 104.816 596.73 102.833C599.535 101.529 601.993 99.7094 604.106 97.4002Z" fill="#F0E0E3"/>
</g>
<g filter="url(#filter10_b_117_91)">
<path fill-rule="evenodd" clip-rule="evenodd" d="M495.6 74.42C495.04 71.62 494.76 68.7733 494.76 65.88C494.76 62.9867 495.04 60.14 495.6 57.34C496.16 54.54 497.093 52.0667 498.4 49.92C499.8 47.7733 501.62 46.0467 503.86 44.74C506.1 43.34 508.9 42.64 512.26 42.64C515.62 42.64 518.42 43.34 520.66 44.74C522.993 46.0467 524.813 47.7733 526.12 49.92C527.52 52.0667 528.5 54.54 529.06 57.34C529.62 60.14 529.9 62.9867 529.9 65.88C529.9 68.7733 529.62 71.62 529.06 74.42C528.5 77.1267 527.52 79.6 526.12 81.84C524.813 83.9867 522.993 85.7133 520.66 87.02C518.42 88.3267 515.62 88.98 512.26 88.98C508.9 88.98 506.1 88.3267 503.86 87.02C501.62 85.7133 499.8 83.9867 498.4 81.84C497.093 79.6 496.16 77.1267 495.6 74.42ZM500.102 80.7888C501.327 82.6523 502.908 84.1491 504.868 85.2924C506.724 86.3754 509.152 86.98 512.26 86.98C515.368 86.98 517.796 86.3754 519.652 85.2924L519.668 85.2836L519.683 85.275C521.736 84.1254 523.296 82.6338 524.412 80.8001L524.418 80.79L524.424 80.78C525.692 78.7513 526.586 76.5027 527.101 74.0189C527.633 71.3526 527.9 68.6403 527.9 65.88C527.9 63.1166 527.633 60.4014 527.099 57.7322C526.583 55.1533 525.691 52.9231 524.445 51.0125L524.428 50.9865L524.412 50.9599C523.296 49.1262 521.736 47.6347 519.683 46.485L519.641 46.4615L519.6 46.436C517.754 45.2821 515.346 44.64 512.26 44.64C509.174 44.64 506.766 45.2821 504.92 46.436L504.894 46.4522L504.868 46.4676C502.903 47.614 501.318 49.116 500.092 50.9867C498.931 52.9027 498.079 55.1425 497.561 57.7322C497.027 60.4014 496.76 63.1166 496.76 65.88C496.76 68.6403 497.027 71.3526 497.56 74.0189C498.075 76.5081 498.926 78.7602 500.102 80.7888ZM477.54 50.2C475.767 54.8667 474.88 60.0933 474.88 65.88C474.88 71.6667 475.767 76.8933 477.54 81.56C479.313 86.2267 481.833 90.24 485.1 93.6C488.367 96.8667 492.287 99.3867 496.86 101.16C501.433 102.933 506.567 103.82 512.26 103.82C517.953 103.82 523.087 102.933 527.66 101.16C532.327 99.3867 536.293 96.8667 539.56 93.6C542.827 90.24 545.347 86.2267 547.12 81.56C548.893 76.8933 549.78 71.6667 549.78 65.88C549.78 60.0933 548.893 54.8667 547.12 50.2C545.347 45.44 542.827 41.4267 539.56 38.16C536.293 34.8 532.327 32.2333 527.66 30.46C523.087 28.5933 517.953 27.66 512.26 27.66C506.567 27.66 501.433 28.5933 496.86 30.46C492.287 32.2333 488.367 34.8 485.1 38.16C481.833 41.4267 479.313 45.44 477.54 50.2ZM475.668 49.4969C473.798 54.4216 472.88 59.8916 472.88 65.88C472.88 71.8714 473.798 77.3438 475.671 82.2704C477.534 87.1754 480.197 91.4258 483.666 94.9942L483.676 95.0043L483.686 95.0142C487.161 98.4894 491.321 101.157 496.137 103.025C500.975 104.901 506.359 105.82 512.26 105.82C518.159 105.82 523.54 104.902 528.376 103.027C533.283 101.162 537.494 98.495 540.974 95.0142L540.984 95.0043L540.994 94.9942C544.463 91.4258 547.126 87.1754 548.99 82.2704C550.862 77.3438 551.78 71.8714 551.78 65.88C551.78 59.8916 550.863 54.4218 548.993 49.4971C547.131 44.502 544.467 40.2418 540.984 36.7557C537.508 33.1834 533.301 30.4674 528.394 28.5993C523.552 26.627 518.165 25.66 512.26 25.66C506.354 25.66 500.964 26.6277 496.121 28.6015C491.304 30.4719 487.147 33.1889 483.676 36.7557C480.193 40.2418 477.529 44.5018 475.668 49.4969Z" fill="#F0E0E3"/>
</g>
<g filter="url(#filter11_b_117_91)">
<path fill-rule="evenodd" clip-rule="evenodd" d="M454.907 63.64V102H432.927V63.08L396.247 2.03999H420.887L444.267 41.52L467.507 2.03999H492.007L454.907 63.64ZM444.262 37.5863L422.027 0.0399933H392.712L430.927 63.6347V104H456.907V64.1957L495.546 0.0399933H466.364L444.262 37.5863Z" fill="#F0E0E3"/>
</g>
<g filter="url(#filter12_b_117_91)">
<path fill-rule="evenodd" clip-rule="evenodd" d="M336.236 87.02C334.09 88.3267 331.383 88.98 328.116 88.98C324.943 88.98 322.236 88.3267 319.996 87.02C317.756 85.7133 315.936 84.0333 314.536 81.98C313.23 79.8333 312.25 77.36 311.596 74.56C311.036 71.76 310.756 68.9133 310.756 66.02C310.756 63.0333 311.036 60.14 311.596 57.34C312.156 54.54 313.09 52.0667 314.396 49.92C315.796 47.7733 317.57 46.0467 319.716 44.74C321.956 43.34 324.71 42.64 327.976 42.64C331.15 42.64 333.81 43.34 335.956 44.74C338.196 46.0467 340.016 47.82 341.416 50.06C342.816 52.2067 343.796 54.68 344.356 57.48C345.01 60.28 345.336 63.1267 345.336 66.02C345.336 68.9133 345.056 71.76 344.496 74.56C343.936 77.36 342.956 79.8333 341.556 81.98C340.25 84.0333 338.476 85.7133 336.236 87.02ZM316.089 50.9866C317.326 49.0971 318.878 47.5914 320.756 46.4484L320.766 46.4423L320.776 46.436C322.631 45.2769 324.996 44.64 327.976 44.64C330.854 44.64 333.112 45.2727 334.864 46.4152L334.906 46.4425L334.949 46.4676C336.903 47.6077 338.489 49.1497 339.72 51.12L339.731 51.1364L339.741 51.1525C340.987 53.0631 341.879 55.2933 342.395 57.8722L342.402 57.9035L342.409 57.9345C343.027 60.5845 343.336 63.2787 343.336 66.02C343.336 68.7834 343.069 71.4986 342.535 74.1678C342.019 76.7467 341.127 78.9769 339.881 80.8875L339.875 80.8968L339.869 80.9063C338.745 82.6731 337.212 84.1356 335.229 85.2924L335.213 85.3019L335.197 85.3116C333.444 86.3784 331.124 86.98 328.116 86.98C325.218 86.98 322.877 86.3848 321.004 85.2924C319.025 84.1381 317.439 82.6734 316.218 80.8956C315.054 78.9715 314.158 76.7257 313.551 74.1358C313.022 71.477 312.756 68.7724 312.756 66.02C312.756 63.159 313.025 60.3973 313.558 57.7322C314.076 55.1424 314.927 52.9027 316.089 50.9866ZM291.576 29.62V127.34H311.456V93.04H311.736C312.277 93.8305 312.851 94.5793 313.456 95.2863C315.569 97.7515 318.075 99.7094 320.976 101.16C324.803 102.933 328.956 103.82 333.436 103.82C338.756 103.82 343.376 102.793 347.296 100.74C351.31 98.6867 354.623 95.9333 357.236 92.48C359.943 89.0267 361.95 85.06 363.256 80.58C364.563 76.1 365.216 71.4333 365.216 66.58C365.216 61.4467 364.563 56.5467 363.256 51.88C361.95 47.12 359.943 42.9667 357.236 39.42C354.53 35.8733 351.123 33.0267 347.016 30.88C342.91 28.7333 338.01 27.66 332.316 27.66C327.836 27.66 323.73 28.5467 319.996 30.32C317.095 31.6981 314.589 33.7243 312.476 36.3988C311.871 37.1659 311.297 37.9863 310.756 38.86H310.476V29.62H291.576ZM312.476 33.3517V27.62H289.576V129.34H313.456V98.2175C315.397 100.132 317.607 101.711 320.082 102.949L320.109 102.962L320.135 102.975C324.242 104.878 328.684 105.82 333.436 105.82C339.011 105.82 343.959 104.744 348.216 102.516C352.477 100.335 356.022 97.3953 358.821 93.7006C361.689 90.0374 363.805 85.8432 365.176 81.14C366.538 76.4709 367.216 71.6152 367.216 66.58C367.216 61.2764 366.541 56.1954 365.183 51.344C363.816 46.3655 361.703 41.9765 358.826 38.2067C355.935 34.4183 352.299 31.3844 347.943 29.1076C343.492 26.781 338.26 25.66 332.316 25.66C327.565 25.66 323.162 26.6023 319.138 28.5135C316.637 29.7014 314.418 31.321 312.476 33.3517Z" fill="#F0E0E3"/>
</g>
<g filter="url(#filter13_b_117_91)">
<path fill-rule="evenodd" clip-rule="evenodd" d="M265.081 56.04C265.236 56.684 265.378 57.3506 265.506 58.04H233.166C233.208 57.411 233.287 56.7444 233.405 56.04C233.548 55.1766 233.749 54.2566 234.006 53.28C234.566 51.5067 235.452 49.8267 236.666 48.24C237.972 46.6533 239.652 45.3467 241.706 44.32C243.852 43.2 246.512 42.64 249.686 42.64C254.539 42.64 258.132 43.9467 260.466 46.56C262.561 48.8159 264.099 51.9759 265.081 56.04ZM263.02 56.04C262.092 52.4405 260.722 49.7749 259 47.9209L258.987 47.9066L258.974 47.892C257.149 45.8482 254.197 44.64 249.686 44.64C246.738 44.64 244.417 45.1612 242.631 46.0932L242.616 46.1012L242.6 46.1089C240.78 47.0188 239.339 48.1492 238.232 49.4838C237.172 50.8772 236.41 52.3274 235.927 53.8371C235.722 54.6204 235.559 55.3544 235.435 56.04H263.02ZM233.302 72.64C233.241 71.9935 233.196 71.3269 233.166 70.64H285.386C285.759 65.04 285.292 59.6733 283.986 54.54C282.679 49.4067 280.532 44.8333 277.546 40.82C274.652 36.8067 270.919 33.6333 266.346 31.3C261.772 28.8733 256.406 27.66 250.246 27.66C244.739 27.66 239.699 28.64 235.126 30.6C230.646 32.56 226.772 35.2667 223.506 38.72C220.239 42.08 217.719 46.0933 215.946 50.76C214.172 55.4267 213.286 60.4667 213.286 65.88C213.286 71.48 214.126 76.6133 215.806 81.28C217.579 85.9467 220.052 89.96 223.226 93.32C226.399 96.68 230.272 99.2933 234.846 101.16C239.419 102.933 244.552 103.82 250.246 103.82C258.459 103.82 265.459 101.953 271.246 98.22C276.578 94.78 280.642 89.24 283.438 81.6C283.677 80.9486 283.906 80.2819 284.126 79.6H266.626C265.972 81.84 264.199 83.9867 261.306 86.04C258.412 88 254.959 88.98 250.946 88.98C245.346 88.98 241.052 87.5333 238.066 84.64C235.398 82.0553 233.81 78.0553 233.302 72.64ZM235.311 72.64C235.811 77.681 237.283 81.0972 239.457 83.2035C241.957 85.6247 245.681 86.98 250.946 86.98C254.612 86.98 257.655 86.0921 260.166 84.3962C262.862 82.4793 264.231 80.6693 264.706 79.04L265.126 77.6H286.872L286.029 80.214C283.134 89.19 278.615 95.8459 272.33 99.9006C266.162 103.88 258.769 105.82 250.246 105.82C244.344 105.82 238.961 104.901 234.123 103.025L234.106 103.018L234.09 103.012C229.271 101.045 225.154 98.2748 221.772 94.6933C218.404 91.1269 215.796 86.8833 213.936 81.9904L213.93 81.974L213.924 81.9575C212.156 77.0474 211.286 71.6814 211.286 65.88C211.286 60.2445 212.21 54.9616 214.076 50.0496C215.938 45.1492 218.597 40.9023 222.062 37.336C225.516 33.6869 229.61 30.8302 234.324 28.7677L234.331 28.7647L234.338 28.7617C239.186 26.6842 244.497 25.66 250.246 25.66C256.665 25.66 262.36 26.9244 267.269 29.5258C272.103 31.9948 276.077 35.3671 279.159 39.6379C282.306 43.87 284.558 48.6803 285.924 54.0466C287.286 59.3963 287.768 64.9751 287.381 70.773L287.257 72.64H235.311Z" fill="#F0E0E3"/>
</g>
<g filter="url(#filter14_b_117_91)">
<path fill-rule="evenodd" clip-rule="evenodd" d="M190.29 56.04C190.446 56.684 190.588 57.3506 190.715 58.04H158.375C158.417 57.411 158.497 56.7444 158.614 56.04C158.758 55.1766 158.958 54.2566 159.215 53.28C159.775 51.5067 160.662 49.8267 161.875 48.24C163.182 46.6533 164.862 45.3467 166.915 44.32C169.062 43.2 171.722 42.64 174.895 42.64C179.748 42.64 183.342 43.9467 185.675 46.56C187.77 48.8159 189.308 51.9759 190.29 56.04ZM188.229 56.04C187.302 52.4405 185.931 49.7749 184.21 47.9209L184.196 47.9066L184.183 47.892C182.358 45.8482 179.407 44.64 174.895 44.64C171.947 44.64 169.627 45.1612 167.84 46.0932L167.825 46.1012L167.81 46.1089C165.99 47.0188 164.548 48.1492 163.442 49.4839C162.381 50.8773 161.619 52.3274 161.137 53.837C160.932 54.6204 160.768 55.3544 160.644 56.04H188.229ZM158.511 72.64C158.45 71.9935 158.405 71.3269 158.375 70.64H210.595C210.968 65.04 210.502 59.6733 209.195 54.54C207.888 49.4067 205.742 44.8333 202.755 40.82C199.862 36.8067 196.128 33.6333 191.555 31.3C186.982 28.8733 181.615 27.66 175.455 27.66C169.948 27.66 164.908 28.64 160.335 30.6C155.855 32.56 151.982 35.2667 148.715 38.72C145.448 42.08 142.928 46.0933 141.155 50.76C139.382 55.4267 138.495 60.4667 138.495 65.88C138.495 71.48 139.335 76.6133 141.015 81.28C142.788 85.9467 145.262 89.96 148.435 93.32C151.608 96.68 155.482 99.2933 160.055 101.16C164.628 102.933 169.762 103.82 175.455 103.82C183.668 103.82 190.668 101.953 196.455 98.22C201.787 94.78 205.851 89.24 208.648 81.6C208.886 80.9486 209.115 80.2819 209.335 79.6H191.835C191.182 81.84 189.408 83.9867 186.515 86.04C183.622 88 180.168 88.98 176.155 88.98C170.555 88.98 166.262 87.5333 163.275 84.64C160.607 82.0553 159.019 78.0553 158.511 72.64ZM160.52 72.64C161.02 77.681 162.492 81.0972 164.667 83.2035C167.166 85.6247 170.89 86.98 176.155 86.98C179.821 86.98 182.864 86.0921 185.376 84.3962C188.072 82.4793 189.44 80.6693 189.915 79.04L190.335 77.6H212.082L211.239 80.214C208.343 89.19 203.824 95.8459 197.539 99.9006C191.372 103.88 183.978 105.82 175.455 105.82C169.554 105.82 164.17 104.901 159.332 103.025L159.316 103.018L159.299 103.012C154.48 101.045 150.364 98.2748 146.981 94.6933C143.613 91.1269 141.005 86.8833 139.146 81.9904L139.139 81.974L139.133 81.9575C137.366 77.0474 136.495 71.6814 136.495 65.88C136.495 60.2445 137.419 54.9616 139.286 50.0496C141.148 45.1491 143.807 40.902 147.272 37.3357C150.726 33.6867 154.819 30.8301 159.534 28.7677L159.54 28.7647L159.547 28.7617C164.395 26.6842 169.707 25.66 175.455 25.66C181.874 25.66 187.57 26.9245 192.479 29.526C197.313 31.995 201.287 35.3672 204.368 39.6379C207.515 43.87 209.767 48.6803 211.133 54.0466C212.495 59.3963 212.977 64.9751 212.591 70.773L212.466 72.64H160.52Z" fill="#F0E0E3"/>
</g>
<g filter="url(#filter15_b_117_91)">
<path fill-rule="evenodd" clip-rule="evenodd" d="M46.66 0.0399933H72.64V38.4423L108.837 0.0399933H141.932L100.682 41.7335L144.788 104H112.272L82.9406 60.2069L72.64 70.622V104H46.66V0.0399933ZM70.64 69.8L83.24 57.06L113.34 102H140.92L98.08 41.52L137.14 2.03999H109.7L70.64 43.48V2.03999H48.66V102H70.64V69.8Z" fill="#F0E0E3"/>
</g>
<defs>
<filter id="filter0_b_117_91" x="597.494" y="-9.34" width="120.62" height="148.34" filterUnits="userSpaceOnUse" color-interpolation-filters="sRGB">
<feFlood flood-opacity="0" result="BackgroundImageFix"/>
<feGaussianBlur in="BackgroundImageFix" stdDeviation="18.5"/>
<feComposite in2="SourceAlpha" operator="in" result="effect1_backgroundBlur_117_91"/>
<feBlend mode="normal" in="SourceGraphic" in2="effect1_backgroundBlur_117_91" result="shape"/>
</filter>
<filter id="filter1_b_117_91" x="520.106" y="-7.38" width="141.9" height="148.2" filterUnits="userSpaceOnUse" color-interpolation-filters="sRGB">
<feFlood flood-opacity="0" result="BackgroundImageFix"/>
<feGaussianBlur in="BackgroundImageFix" stdDeviation="18.5"/>
<feComposite in2="SourceAlpha" operator="in" result="effect1_backgroundBlur_117_91"/>
<feBlend mode="normal" in="SourceGraphic" in2="effect1_backgroundBlur_117_91" result="shape"/>
</filter>
<filter id="filter2_b_117_91" x="437.88" y="-9.34" width="148.9" height="150.16" filterUnits="userSpaceOnUse" color-interpolation-filters="sRGB">
<feFlood flood-opacity="0" result="BackgroundImageFix"/>
<feGaussianBlur in="BackgroundImageFix" stdDeviation="18.5"/>
<feComposite in2="SourceAlpha" operator="in" result="effect1_backgroundBlur_117_91"/>
<feBlend mode="normal" in="SourceGraphic" in2="effect1_backgroundBlur_117_91" result="shape"/>
</filter>
<filter id="filter3_b_117_91" x="359.247" y="-34.96" width="169.76" height="173.96" filterUnits="userSpaceOnUse" color-interpolation-filters="sRGB">
<feFlood flood-opacity="0" result="BackgroundImageFix"/>
<feGaussianBlur in="BackgroundImageFix" stdDeviation="18.5"/>
<feComposite in2="SourceAlpha" operator="in" result="effect1_backgroundBlur_117_91"/>
<feBlend mode="normal" in="SourceGraphic" in2="effect1_backgroundBlur_117_91" result="shape"/>
</filter>
<filter id="filter4_b_117_91" x="254.576" y="-9.34" width="147.64" height="173.68" filterUnits="userSpaceOnUse" color-interpolation-filters="sRGB">
<feFlood flood-opacity="0" result="BackgroundImageFix"/>
<feGaussianBlur in="BackgroundImageFix" stdDeviation="18.5"/>
<feComposite in2="SourceAlpha" operator="in" result="effect1_backgroundBlur_117_91"/>
<feBlend mode="normal" in="SourceGraphic" in2="effect1_backgroundBlur_117_91" result="shape"/>
</filter>
<filter id="filter5_b_117_91" x="176.286" y="-9.34" width="146.224" height="150.16" filterUnits="userSpaceOnUse" color-interpolation-filters="sRGB">
<feFlood flood-opacity="0" result="BackgroundImageFix"/>
<feGaussianBlur in="BackgroundImageFix" stdDeviation="18.5"/>
<feComposite in2="SourceAlpha" operator="in" result="effect1_backgroundBlur_117_91"/>
<feBlend mode="normal" in="SourceGraphic" in2="effect1_backgroundBlur_117_91" result="shape"/>
</filter>
<filter id="filter6_b_117_91" x="101.495" y="-9.34" width="146.224" height="150.16" filterUnits="userSpaceOnUse" color-interpolation-filters="sRGB">
<feFlood flood-opacity="0" result="BackgroundImageFix"/>
<feGaussianBlur in="BackgroundImageFix" stdDeviation="18.5"/>
<feComposite in2="SourceAlpha" operator="in" result="effect1_backgroundBlur_117_91"/>
<feBlend mode="normal" in="SourceGraphic" in2="effect1_backgroundBlur_117_91" result="shape"/>
</filter>
<filter id="filter7_b_117_91" x="11.66" y="-34.96" width="166.26" height="173.96" filterUnits="userSpaceOnUse" color-interpolation-filters="sRGB">
<feFlood flood-opacity="0" result="BackgroundImageFix"/>
<feGaussianBlur in="BackgroundImageFix" stdDeviation="18.5"/>
<feComposite in2="SourceAlpha" operator="in" result="effect1_backgroundBlur_117_91"/>
<feBlend mode="normal" in="SourceGraphic" in2="effect1_backgroundBlur_117_91" result="shape"/>
</filter>
<filter id="filter8_b_117_91" x="595.494" y="-11.34" width="124.62" height="152.34" filterUnits="userSpaceOnUse" color-interpolation-filters="sRGB">
<feFlood flood-opacity="0" result="BackgroundImageFix"/>
<feGaussianBlur in="BackgroundImageFix" stdDeviation="18.5"/>
<feComposite in2="SourceAlpha" operator="in" result="effect1_backgroundBlur_117_91"/>
<feBlend mode="normal" in="SourceGraphic" in2="effect1_backgroundBlur_117_91" result="shape"/>
</filter>
<filter id="filter9_b_117_91" x="518.106" y="-9.38" width="145.9" height="152.2" filterUnits="userSpaceOnUse" color-interpolation-filters="sRGB">
<feFlood flood-opacity="0" result="BackgroundImageFix"/>
<feGaussianBlur in="BackgroundImageFix" stdDeviation="18.5"/>
<feComposite in2="SourceAlpha" operator="in" result="effect1_backgroundBlur_117_91"/>
<feBlend mode="normal" in="SourceGraphic" in2="effect1_backgroundBlur_117_91" result="shape"/>
</filter>
<filter id="filter10_b_117_91" x="435.88" y="-11.34" width="152.9" height="154.16" filterUnits="userSpaceOnUse" color-interpolation-filters="sRGB">
<feFlood flood-opacity="0" result="BackgroundImageFix"/>
<feGaussianBlur in="BackgroundImageFix" stdDeviation="18.5"/>
<feComposite in2="SourceAlpha" operator="in" result="effect1_backgroundBlur_117_91"/>
<feBlend mode="normal" in="SourceGraphic" in2="effect1_backgroundBlur_117_91" result="shape"/>
</filter>
<filter id="filter11_b_117_91" x="355.712" y="-36.96" width="176.834" height="177.96" filterUnits="userSpaceOnUse" color-interpolation-filters="sRGB">
<feFlood flood-opacity="0" result="BackgroundImageFix"/>
<feGaussianBlur in="BackgroundImageFix" stdDeviation="18.5"/>
<feComposite in2="SourceAlpha" operator="in" result="effect1_backgroundBlur_117_91"/>
<feBlend mode="normal" in="SourceGraphic" in2="effect1_backgroundBlur_117_91" result="shape"/>
</filter>
<filter id="filter12_b_117_91" x="252.576" y="-11.34" width="151.64" height="177.68" filterUnits="userSpaceOnUse" color-interpolation-filters="sRGB">
<feFlood flood-opacity="0" result="BackgroundImageFix"/>
<feGaussianBlur in="BackgroundImageFix" stdDeviation="18.5"/>
<feComposite in2="SourceAlpha" operator="in" result="effect1_backgroundBlur_117_91"/>
<feBlend mode="normal" in="SourceGraphic" in2="effect1_backgroundBlur_117_91" result="shape"/>
</filter>
<filter id="filter13_b_117_91" x="174.286" y="-11.34" width="150.224" height="154.16" filterUnits="userSpaceOnUse" color-interpolation-filters="sRGB">
<feFlood flood-opacity="0" result="BackgroundImageFix"/>
<feGaussianBlur in="BackgroundImageFix" stdDeviation="18.5"/>
<feComposite in2="SourceAlpha" operator="in" result="effect1_backgroundBlur_117_91"/>
<feBlend mode="normal" in="SourceGraphic" in2="effect1_backgroundBlur_117_91" result="shape"/>
</filter>
<filter id="filter14_b_117_91" x="99.4951" y="-11.34" width="150.224" height="154.16" filterUnits="userSpaceOnUse" color-interpolation-filters="sRGB">
<feFlood flood-opacity="0" result="BackgroundImageFix"/>
<feGaussianBlur in="BackgroundImageFix" stdDeviation="18.5"/>
<feComposite in2="SourceAlpha" operator="in" result="effect1_backgroundBlur_117_91"/>
<feBlend mode="normal" in="SourceGraphic" in2="effect1_backgroundBlur_117_91" result="shape"/>
</filter>
<filter id="filter15_b_117_91" x="9.66" y="-36.96" width="172.128" height="177.96" filterUnits="userSpaceOnUse" color-interpolation-filters="sRGB">
<feFlood flood-opacity="0" result="BackgroundImageFix"/>
<feGaussianBlur in="BackgroundImageFix" stdDeviation="18.5"/>
<feComposite in2="SourceAlpha" operator="in" result="effect1_backgroundBlur_117_91"/>
<feBlend mode="normal" in="SourceGraphic" in2="effect1_backgroundBlur_117_91" result="shape"/>
</filter>
</defs>
</svg>
