<svg width="638" height="130" viewBox="0 0 638 130" fill="none" xmlns="http://www.w3.org/2000/svg">
<g filter="url(#filter0_b_124_119)">
<path d="M588.494 29.62H607.394V43.06H607.674C608.608 40.82 609.868 38.7667 611.454 36.9C613.041 34.94 614.861 33.3067 616.914 32C618.968 30.6 621.161 29.5267 623.494 28.78C625.828 28.0333 628.254 27.66 630.774 27.66C632.081 27.66 633.528 27.8933 635.114 28.36V46.84C634.181 46.6533 633.061 46.5133 631.754 46.42C630.448 46.2333 629.188 46.14 627.974 46.14C624.334 46.14 621.254 46.7467 618.734 47.96C616.214 49.1733 614.161 50.8533 612.574 53C611.081 55.0533 610.008 57.48 609.354 60.28C608.701 63.08 608.374 66.1133 608.374 69.38V102H588.494V29.62Z" fill="white"/>
</g>
<g filter="url(#filter1_b_124_119)">
<path d="M579.006 102H560.106V91.92H559.686C557.166 96.12 553.899 99.1533 549.886 101.02C545.873 102.887 541.766 103.82 537.566 103.82C532.246 103.82 527.859 103.12 524.406 101.72C521.046 100.32 518.386 98.36 516.426 95.84C514.466 93.2267 513.066 90.1 512.226 86.46C511.479 82.7267 511.106 78.62 511.106 74.14V29.62H530.986V70.5C530.986 76.4733 531.919 80.9533 533.786 83.94C535.653 86.8333 538.966 88.28 543.726 88.28C549.139 88.28 553.059 86.6933 555.486 83.52C557.913 80.2533 559.126 74.9333 559.126 67.56V29.62H579.006V102Z" fill="white"/>
</g>
<g filter="url(#filter2_b_124_119)">
<path d="M448.76 65.88C448.76 68.7733 449.04 71.62 449.6 74.42C450.16 77.1267 451.094 79.6 452.4 81.84C453.8 83.9867 455.62 85.7133 457.86 87.02C460.1 88.3267 462.9 88.98 466.26 88.98C469.62 88.98 472.42 88.3267 474.66 87.02C476.994 85.7133 478.814 83.9867 480.12 81.84C481.52 79.6 482.5 77.1267 483.06 74.42C483.62 71.62 483.9 68.7733 483.9 65.88C483.9 62.9867 483.62 60.14 483.06 57.34C482.5 54.54 481.52 52.0667 480.12 49.92C478.814 47.7733 476.994 46.0467 474.66 44.74C472.42 43.34 469.62 42.64 466.26 42.64C462.9 42.64 460.1 43.34 457.86 44.74C455.62 46.0467 453.8 47.7733 452.4 49.92C451.094 52.0667 450.16 54.54 449.6 57.34C449.04 60.14 448.76 62.9867 448.76 65.88ZM428.88 65.88C428.88 60.0933 429.767 54.8667 431.54 50.2C433.314 45.44 435.834 41.4267 439.1 38.16C442.367 34.8 446.287 32.2333 450.86 30.46C455.434 28.5933 460.567 27.66 466.26 27.66C471.954 27.66 477.087 28.5933 481.66 30.46C486.327 32.2333 490.294 34.8 493.56 38.16C496.827 41.4267 499.347 45.44 501.12 50.2C502.894 54.8667 503.78 60.0933 503.78 65.88C503.78 71.6667 502.894 76.8933 501.12 81.56C499.347 86.2267 496.827 90.24 493.56 93.6C490.294 96.8667 486.327 99.3867 481.66 101.16C477.087 102.933 471.954 103.82 466.26 103.82C460.567 103.82 455.434 102.933 450.86 101.16C446.287 99.3867 442.367 96.8667 439.1 93.6C435.834 90.24 433.314 86.2267 431.54 81.56C429.767 76.8933 428.88 71.6667 428.88 65.88Z" fill="white"/>
</g>
<g filter="url(#filter3_b_124_119)">
<path d="M386.927 63.08L350.247 2.03999H374.887L398.267 41.52L421.507 2.03999H446.007L408.907 63.64V102H386.927V63.08Z" fill="white"/>
</g>
<g filter="url(#filter4_b_124_119)">
<path d="M282.116 88.98C285.383 88.98 288.09 88.3267 290.236 87.02C292.476 85.7133 294.25 84.0333 295.556 81.98C296.956 79.8333 297.936 77.36 298.496 74.56C299.056 71.76 299.336 68.9133 299.336 66.02C299.336 63.1267 299.01 60.28 298.356 57.48C297.796 54.68 296.816 52.2067 295.416 50.06C294.016 47.82 292.196 46.0467 289.956 44.74C287.81 43.34 285.15 42.64 281.976 42.64C278.71 42.64 275.956 43.34 273.716 44.74C271.57 46.0467 269.796 47.7733 268.396 49.92C267.09 52.0667 266.156 54.54 265.596 57.34C265.036 60.14 264.756 63.0333 264.756 66.02C264.756 68.9133 265.036 71.76 265.596 74.56C266.25 77.36 267.23 79.8333 268.536 81.98C269.936 84.0333 271.756 85.7133 273.996 87.02C276.236 88.3267 278.943 88.98 282.116 88.98ZM245.576 29.62H264.476V38.86H264.756C267.183 34.94 270.263 32.0933 273.996 30.32C277.73 28.5467 281.836 27.66 286.316 27.66C292.01 27.66 296.91 28.7333 301.016 30.88C305.123 33.0267 308.53 35.8733 311.236 39.42C313.943 42.9667 315.95 47.12 317.256 51.88C318.563 56.5467 319.216 61.4467 319.216 66.58C319.216 71.4333 318.563 76.1 317.256 80.58C315.95 85.06 313.943 89.0267 311.236 92.48C308.623 95.9333 305.31 98.6867 301.296 100.74C297.376 102.793 292.756 103.82 287.436 103.82C282.956 103.82 278.803 102.933 274.976 101.16C271.243 99.2933 268.163 96.5867 265.736 93.04H265.456V127.34H245.576V29.62Z" fill="white"/>
</g>
<g filter="url(#filter5_b_124_119)">
<path d="M219.506 58.04C218.572 53 216.892 49.1733 214.466 46.56C212.132 43.9467 208.539 42.64 203.686 42.64C200.512 42.64 197.852 43.2 195.706 44.32C193.652 45.3467 191.972 46.6533 190.666 48.24C189.452 49.8267 188.566 51.5067 188.006 53.28C187.539 55.0533 187.259 56.64 187.166 58.04H219.506ZM187.166 70.64C187.446 77.08 189.079 81.7467 192.066 84.64C195.052 87.5333 199.346 88.98 204.946 88.98C208.959 88.98 212.412 88 215.306 86.04C218.199 83.9867 219.972 81.84 220.626 79.6H238.126C235.326 88.28 231.032 94.4867 225.246 98.22C219.459 101.953 212.459 103.82 204.246 103.82C198.552 103.82 193.419 102.933 188.846 101.16C184.272 99.2933 180.399 96.68 177.226 93.32C174.052 89.96 171.579 85.9467 169.806 81.28C168.126 76.6133 167.286 71.48 167.286 65.88C167.286 60.4667 168.172 55.4267 169.946 50.76C171.719 46.0933 174.239 42.08 177.506 38.72C180.772 35.2667 184.646 32.56 189.126 30.6C193.699 28.64 198.739 27.66 204.246 27.66C210.406 27.66 215.772 28.8733 220.346 31.3C224.919 33.6333 228.652 36.8067 231.546 40.82C234.532 44.8333 236.679 49.4067 237.986 54.54C239.292 59.6733 239.759 65.04 239.386 70.64H187.166Z" fill="white"/>
</g>
<g filter="url(#filter6_b_124_119)">
<path d="M144.715 58.04C143.782 53 142.102 49.1733 139.675 46.56C137.342 43.9467 133.749 42.64 128.895 42.64C125.722 42.64 123.062 43.2 120.915 44.32C118.862 45.3467 117.182 46.6533 115.875 48.24C114.662 49.8267 113.775 51.5067 113.215 53.28C112.749 55.0533 112.469 56.64 112.375 58.04H144.715ZM112.375 70.64C112.655 77.08 114.289 81.7467 117.275 84.64C120.262 87.5333 124.555 88.98 130.155 88.98C134.169 88.98 137.622 88 140.515 86.04C143.409 83.9867 145.182 81.84 145.835 79.6H163.335C160.535 88.28 156.242 94.4867 150.455 98.22C144.669 101.953 137.669 103.82 129.455 103.82C123.762 103.82 118.629 102.933 114.055 101.16C109.482 99.2933 105.609 96.68 102.435 93.32C99.2619 89.96 96.7886 85.9467 95.0152 81.28C93.3352 76.6133 92.4952 71.48 92.4952 65.88C92.4952 60.4667 93.3819 55.4267 95.1552 50.76C96.9286 46.0933 99.4486 42.08 102.715 38.72C105.982 35.2667 109.855 32.56 114.335 30.6C118.909 28.64 123.949 27.66 129.455 27.66C135.615 27.66 140.982 28.8733 145.555 31.3C150.129 33.6333 153.862 36.8067 156.755 40.82C159.742 44.8333 161.889 49.4067 163.195 54.54C164.502 59.6733 164.969 65.04 164.595 70.64H112.375Z" fill="white"/>
</g>
<g filter="url(#filter7_b_124_119)">
<path d="M2.66003 2.03999H24.64V43.48L63.7 2.03999H91.14L52.08 41.52L94.92 102H67.34L37.24 57.06L24.64 69.8V102H2.66003V2.03999Z" fill="white"/>
</g>
<g filter="url(#filter8_b_124_119)">
<path fill-rule="evenodd" clip-rule="evenodd" d="M588.494 29.62V102H608.374V69.38C608.374 66.1133 608.701 63.08 609.354 60.28C610.008 57.48 611.081 55.0533 612.574 53C614.161 50.8533 616.214 49.1733 618.734 47.96C621.254 46.7467 624.334 46.14 627.974 46.14C629.188 46.14 630.448 46.2333 631.754 46.42C632.233 46.4542 632.686 46.4946 633.114 46.5413C633.856 46.6221 634.523 46.7217 635.114 46.84V28.36C633.528 27.8933 632.081 27.66 630.774 27.66C628.254 27.66 625.828 28.0333 623.494 28.78C621.161 29.5267 618.968 30.6 616.914 32C614.861 33.3067 613.041 34.94 611.454 36.9C610.692 37.7965 610.006 38.736 609.394 39.7186C608.733 40.782 608.16 41.8958 607.674 43.06H607.394V29.62H588.494ZM609.394 36.2564V27.62H586.494V104H610.374V69.38C610.374 66.246 610.688 63.3669 611.302 60.7345C611.902 58.1644 612.872 55.9933 614.186 54.1847C615.569 52.3142 617.362 50.8404 619.602 49.762C621.783 48.7121 624.548 48.14 627.974 48.14C629.085 48.14 630.251 48.2255 631.472 48.3999L631.542 48.4099L631.612 48.4149C632.864 48.5043 633.895 48.6358 634.722 48.8012L637.114 49.2796V26.8635L635.679 26.4413C633.955 25.9343 632.315 25.66 630.774 25.66C628.054 25.66 625.421 26.0636 622.885 26.8752C620.375 27.6782 618.017 28.8313 615.814 30.3296C613.59 31.7493 611.623 33.5171 609.916 35.622C609.738 35.8312 609.565 36.0427 609.394 36.2564Z" fill="#F0E0E3"/>
</g>
<g filter="url(#filter9_b_124_119)">
<path fill-rule="evenodd" clip-rule="evenodd" d="M579.006 102V29.62H559.126V67.56C559.126 74.9333 557.913 80.2533 555.486 83.52C553.059 86.6933 549.139 88.28 543.726 88.28C538.966 88.28 535.653 86.8333 533.786 83.94C531.919 80.9533 530.986 76.4733 530.986 70.5V29.62H511.106V74.14C511.106 78.62 511.479 82.7267 512.226 86.46C513.066 90.1 514.466 93.2267 516.426 95.84C518.386 98.36 521.046 100.32 524.406 101.72C527.859 103.12 532.246 103.82 537.566 103.82C541.766 103.82 545.873 102.887 549.886 101.02C553.107 99.5219 555.847 97.2724 558.106 94.2714C558.662 93.5331 559.189 92.7493 559.686 91.92H560.106V102H579.006ZM558.106 97.4002V104H581.006V27.62H557.126V67.56C557.126 74.7977 555.918 79.5741 553.89 82.3145C551.965 84.8249 548.748 86.28 543.726 86.28C539.367 86.28 536.842 84.978 535.474 82.8665C533.905 80.3481 532.986 76.3193 532.986 70.5V27.62H509.106V74.14C509.106 78.7293 509.488 82.9695 510.265 86.8522L510.271 86.8811L510.277 86.9097C511.171 90.7825 512.676 94.1738 514.826 97.04L514.837 97.054L514.847 97.0679C517.048 99.8967 520.004 102.052 523.637 103.566L523.646 103.57L523.655 103.573C527.426 105.102 532.09 105.82 537.566 105.82C542.073 105.82 546.467 104.816 550.73 102.833C553.535 101.529 555.993 99.7094 558.106 97.4002Z" fill="#F0E0E3"/>
</g>
<g filter="url(#filter10_b_124_119)">
<path fill-rule="evenodd" clip-rule="evenodd" d="M449.6 74.42C449.04 71.62 448.76 68.7733 448.76 65.88C448.76 62.9867 449.04 60.14 449.6 57.34C450.16 54.54 451.094 52.0667 452.4 49.92C453.8 47.7733 455.62 46.0467 457.86 44.74C460.1 43.34 462.9 42.64 466.26 42.64C469.62 42.64 472.42 43.34 474.66 44.74C476.994 46.0467 478.814 47.7733 480.12 49.92C481.52 52.0667 482.5 54.54 483.06 57.34C483.62 60.14 483.9 62.9867 483.9 65.88C483.9 68.7733 483.62 71.62 483.06 74.42C482.5 77.1267 481.52 79.6 480.12 81.84C478.814 83.9867 476.994 85.7133 474.66 87.02C472.42 88.3267 469.62 88.98 466.26 88.98C462.9 88.98 460.1 88.3267 457.86 87.02C455.62 85.7133 453.8 83.9867 452.4 81.84C451.094 79.6 450.16 77.1267 449.6 74.42ZM454.102 80.7888C455.327 82.6523 456.908 84.1491 458.868 85.2924C460.724 86.3754 463.152 86.98 466.26 86.98C469.368 86.98 471.796 86.3754 473.652 85.2924L473.668 85.2836L473.683 85.275C475.736 84.1254 477.296 82.6338 478.412 80.8001L478.418 80.79L478.424 80.78C479.692 78.7513 480.586 76.5027 481.101 74.0189C481.633 71.3526 481.9 68.6403 481.9 65.88C481.9 63.1166 481.633 60.4014 481.099 57.7322C480.583 55.1533 479.691 52.9231 478.445 51.0125L478.428 50.9865L478.412 50.9599C477.296 49.1262 475.736 47.6346 473.683 46.485L473.641 46.4615L473.6 46.436C471.754 45.2821 469.346 44.64 466.26 44.64C463.174 44.64 460.766 45.2821 458.92 46.436L458.894 46.4522L458.868 46.4676C456.903 47.614 455.318 49.116 454.092 50.9867C452.931 52.9027 452.079 55.1425 451.561 57.7322C451.028 60.4014 450.76 63.1166 450.76 65.88C450.76 68.6403 451.027 71.3526 451.56 74.0189C452.075 76.5081 452.926 78.7602 454.102 80.7888ZM431.54 50.2C429.767 54.8667 428.88 60.0933 428.88 65.88C428.88 71.6667 429.767 76.8933 431.54 81.56C433.314 86.2267 435.834 90.24 439.1 93.6C442.367 96.8667 446.287 99.3867 450.86 101.16C455.434 102.933 460.567 103.82 466.26 103.82C471.954 103.82 477.087 102.933 481.66 101.16C486.327 99.3867 490.294 96.8667 493.56 93.6C496.827 90.24 499.347 86.2267 501.12 81.56C502.894 76.8933 503.78 71.6667 503.78 65.88C503.78 60.0933 502.894 54.8667 501.12 50.2C499.347 45.44 496.827 41.4267 493.56 38.16C490.294 34.8 486.327 32.2333 481.66 30.46C477.087 28.5933 471.954 27.66 466.26 27.66C460.567 27.66 455.434 28.5933 450.86 30.46C446.287 32.2333 442.367 34.8 439.1 38.16C435.834 41.4267 433.314 45.44 431.54 50.2ZM429.668 49.4969C427.798 54.4216 426.88 59.8916 426.88 65.88C426.88 71.8714 427.798 77.3438 429.671 82.2704C431.535 87.1754 434.197 91.4258 437.666 94.9942L437.676 95.0043L437.686 95.0142C441.161 98.4894 445.321 101.157 450.137 103.025C454.975 104.901 460.359 105.82 466.26 105.82C472.159 105.82 477.54 104.902 482.376 103.027C487.283 101.162 491.494 98.495 494.974 95.0142L494.984 95.0043L494.994 94.9942C498.463 91.4258 501.126 87.1754 502.99 82.2704C504.862 77.3438 505.78 71.8714 505.78 65.88C505.78 59.8916 504.863 54.4218 502.993 49.4971C501.131 44.502 498.467 40.2418 494.984 36.7557C491.508 33.1834 487.301 30.4674 482.394 28.5993C477.553 26.627 472.165 25.66 466.26 25.66C460.354 25.66 454.964 26.6277 450.121 28.6015C445.304 30.4718 441.147 33.1889 437.676 36.7557C434.193 40.2418 431.529 44.5018 429.668 49.4969Z" fill="#F0E0E3"/>
</g>
<g filter="url(#filter11_b_124_119)">
<path fill-rule="evenodd" clip-rule="evenodd" d="M408.907 63.64V102H386.927V63.08L350.247 2.03999H374.887L398.267 41.52L421.507 2.03999H446.007L408.907 63.64ZM398.262 37.5863L376.027 0.0399933H346.712L384.927 63.6347V104H410.907V64.1957L449.546 0.0399933H420.364L398.262 37.5863Z" fill="#F0E0E3"/>
</g>
<g filter="url(#filter12_b_124_119)">
<path fill-rule="evenodd" clip-rule="evenodd" d="M290.236 87.02C288.09 88.3267 285.383 88.98 282.116 88.98C278.943 88.98 276.236 88.3267 273.996 87.02C271.756 85.7133 269.936 84.0333 268.536 81.98C267.23 79.8333 266.25 77.36 265.596 74.56C265.036 71.76 264.756 68.9133 264.756 66.02C264.756 63.0333 265.036 60.14 265.596 57.34C266.156 54.54 267.09 52.0667 268.396 49.92C269.796 47.7733 271.57 46.0467 273.716 44.74C275.956 43.34 278.71 42.64 281.976 42.64C285.15 42.64 287.81 43.34 289.956 44.74C292.196 46.0467 294.016 47.82 295.416 50.06C296.816 52.2067 297.796 54.68 298.356 57.48C299.01 60.28 299.336 63.1267 299.336 66.02C299.336 68.9133 299.056 71.76 298.496 74.56C297.936 77.36 296.956 79.8333 295.556 81.98C294.25 84.0333 292.476 85.7133 290.236 87.02ZM270.089 50.9866C271.326 49.0971 272.878 47.5914 274.756 46.4484L274.766 46.4423L274.776 46.436C276.631 45.2769 278.996 44.64 281.976 44.64C284.854 44.64 287.112 45.2727 288.864 46.4152L288.906 46.4424L288.949 46.4676C290.903 47.6077 292.489 49.1497 293.72 51.12L293.731 51.1364L293.741 51.1525C294.987 53.0631 295.879 55.2933 296.395 57.8722L296.402 57.9035L296.409 57.9345C297.027 60.5845 297.336 63.2787 297.336 66.02C297.336 68.7834 297.069 71.4986 296.535 74.1678C296.019 76.7467 295.127 78.9769 293.881 80.8875L293.875 80.8968L293.869 80.9062C292.745 82.6731 291.212 84.1356 289.229 85.2924L289.213 85.3019L289.197 85.3116C287.444 86.3784 285.124 86.98 282.116 86.98C279.218 86.98 276.877 86.3848 275.004 85.2924C273.025 84.1381 271.439 82.6734 270.218 80.8956C269.054 78.9715 268.158 76.7257 267.551 74.1358C267.022 71.477 266.756 68.7724 266.756 66.02C266.756 63.159 267.025 60.3973 267.558 57.7322C268.076 55.1424 268.927 52.9027 270.089 50.9866ZM245.576 29.62V127.34H265.456V93.04H265.736C266.277 93.8305 266.851 94.5793 267.456 95.2863C269.569 97.7515 272.075 99.7094 274.976 101.16C278.803 102.933 282.956 103.82 287.436 103.82C292.756 103.82 297.376 102.793 301.296 100.74C305.31 98.6867 308.623 95.9333 311.236 92.48C313.943 89.0267 315.95 85.06 317.256 80.58C318.563 76.1 319.216 71.4333 319.216 66.58C319.216 61.4467 318.563 56.5467 317.256 51.88C315.95 47.12 313.943 42.9667 311.236 39.42C308.53 35.8733 305.123 33.0267 301.016 30.88C296.91 28.7333 292.01 27.66 286.316 27.66C281.836 27.66 277.73 28.5467 273.996 30.32C271.095 31.6981 268.589 33.7243 266.476 36.3988C265.871 37.1659 265.297 37.9863 264.756 38.86H264.476V29.62H245.576ZM266.476 33.3517V27.62H243.576V129.34H267.456V98.2175C269.397 100.132 271.607 101.711 274.082 102.949L274.109 102.962L274.135 102.975C278.242 104.878 282.684 105.82 287.436 105.82C293.011 105.82 297.959 104.744 302.216 102.516C306.477 100.335 310.022 97.3953 312.821 93.7006C315.689 90.0374 317.805 85.8432 319.176 81.14C320.538 76.4709 321.216 71.6152 321.216 66.58C321.216 61.2764 320.541 56.1953 319.183 51.344C317.816 46.3655 315.703 41.9764 312.826 38.2066C309.935 34.4183 306.299 31.3844 301.943 29.1075C297.492 26.781 292.26 25.66 286.316 25.66C281.565 25.66 277.162 26.6023 273.138 28.5134C270.637 29.7014 268.418 31.321 266.476 33.3517Z" fill="#F0E0E3"/>
</g>
<g filter="url(#filter13_b_124_119)">
<path fill-rule="evenodd" clip-rule="evenodd" d="M219.081 56.04C219.236 56.684 219.378 57.3506 219.506 58.04H187.166C187.208 57.411 187.287 56.7443 187.405 56.04C187.548 55.1766 187.749 54.2566 188.006 53.28C188.566 51.5067 189.452 49.8267 190.666 48.24C191.972 46.6533 193.652 45.3467 195.706 44.32C197.852 43.2 200.512 42.64 203.686 42.64C208.539 42.64 212.132 43.9467 214.466 46.56C216.561 48.8159 218.099 51.9759 219.081 56.04ZM217.02 56.04C216.092 52.4404 214.722 49.7749 213 47.9209L212.987 47.9066L212.974 47.892C211.149 45.8482 208.197 44.64 203.686 44.64C200.738 44.64 198.417 45.1612 196.631 46.0932L196.616 46.1011L196.6 46.1088C194.78 47.0188 193.339 48.1491 192.232 49.4838C191.172 50.8772 190.41 52.3274 189.927 53.8371C189.722 54.6204 189.559 55.3544 189.435 56.04H217.02ZM187.302 72.64C187.241 71.9935 187.196 71.3268 187.166 70.64H239.386C239.759 65.04 239.292 59.6733 237.986 54.54C236.679 49.4067 234.532 44.8333 231.546 40.82C228.652 36.8067 224.919 33.6333 220.346 31.3C215.772 28.8733 210.406 27.66 204.246 27.66C198.739 27.66 193.699 28.64 189.126 30.6C184.646 32.56 180.772 35.2667 177.506 38.72C174.239 42.08 171.719 46.0933 169.946 50.76C168.172 55.4267 167.286 60.4667 167.286 65.88C167.286 71.48 168.126 76.6133 169.806 81.28C171.579 85.9467 174.052 89.96 177.226 93.32C180.399 96.68 184.272 99.2933 188.846 101.16C193.419 102.933 198.552 103.82 204.246 103.82C212.459 103.82 219.459 101.953 225.246 98.22C230.578 94.78 234.642 89.24 237.438 81.6C237.677 80.9486 237.906 80.2819 238.126 79.6H220.626C219.972 81.84 218.199 83.9867 215.306 86.04C212.412 88 208.959 88.98 204.946 88.98C199.346 88.98 195.052 87.5333 192.066 84.64C189.398 82.0553 187.81 78.0553 187.302 72.64ZM189.311 72.64C189.811 77.681 191.283 81.0972 193.457 83.2035C195.957 85.6247 199.681 86.98 204.946 86.98C208.612 86.98 211.655 86.0921 214.166 84.3962C216.862 82.4793 218.231 80.6693 218.706 79.04L219.126 77.6H240.872L240.029 80.214C237.134 89.19 232.615 95.8459 226.33 99.9006C220.162 103.88 212.769 105.82 204.246 105.82C198.344 105.82 192.961 104.901 188.123 103.025L188.106 103.018L188.09 103.012C183.271 101.045 179.154 98.2748 175.772 94.6933C172.404 91.1269 169.796 86.8833 167.936 81.9904L167.93 81.974L167.924 81.9574C166.156 77.0473 165.286 71.6814 165.286 65.88C165.286 60.2445 166.21 54.9616 168.076 50.0496C169.938 45.1492 172.597 40.9023 176.062 37.336C179.516 33.6869 183.61 30.8302 188.324 28.7677L188.331 28.7647L188.338 28.7617C193.186 26.6841 198.497 25.66 204.246 25.66C210.665 25.66 216.36 26.9244 221.269 29.5258C226.103 31.9948 230.077 35.3671 233.159 39.6379C236.306 43.87 238.558 48.6803 239.924 54.0466C241.286 59.3963 241.768 64.9751 241.381 70.773L241.257 72.64H189.311Z" fill="#F0E0E3"/>
</g>
<g filter="url(#filter14_b_124_119)">
<path fill-rule="evenodd" clip-rule="evenodd" d="M144.29 56.04C144.446 56.684 144.588 57.3506 144.715 58.04H112.375C112.417 57.411 112.497 56.7443 112.614 56.04C112.758 55.1766 112.958 54.2566 113.215 53.28C113.775 51.5067 114.662 49.8267 115.875 48.24C117.182 46.6533 118.862 45.3467 120.915 44.32C123.062 43.2 125.722 42.64 128.895 42.64C133.749 42.64 137.342 43.9467 139.675 46.56C141.77 48.8159 143.308 51.9759 144.29 56.04ZM142.229 56.04C141.302 52.4404 139.931 49.7749 138.21 47.9209L138.196 47.9066L138.183 47.892C136.359 45.8482 133.407 44.64 128.895 44.64C125.948 44.64 123.627 45.1612 121.84 46.0932L121.825 46.1011L121.81 46.1088C119.99 47.0188 118.548 48.1492 117.442 49.4839C116.381 50.8773 115.619 52.3274 115.137 53.837C114.932 54.6204 114.768 55.3544 114.644 56.04H142.229ZM112.511 72.64C112.45 71.9935 112.405 71.3268 112.375 70.64H164.595C164.969 65.04 164.502 59.6733 163.195 54.54C161.889 49.4067 159.742 44.8333 156.755 40.82C153.862 36.8067 150.129 33.6333 145.555 31.3C140.982 28.8733 135.615 27.66 129.455 27.66C123.949 27.66 118.909 28.64 114.335 30.6C109.855 32.56 105.982 35.2667 102.715 38.72C99.4486 42.08 96.9286 46.0933 95.1552 50.76C93.3819 55.4267 92.4952 60.4667 92.4952 65.88C92.4952 71.48 93.3352 76.6133 95.0152 81.28C96.7886 85.9467 99.2619 89.96 102.435 93.32C105.609 96.68 109.482 99.2933 114.055 101.16C118.629 102.933 123.762 103.82 129.455 103.82C137.669 103.82 144.669 101.953 150.455 98.22C155.787 94.78 159.851 89.24 162.648 81.6C162.886 80.9486 163.115 80.2819 163.335 79.6H145.835C145.182 81.84 143.409 83.9867 140.515 86.04C137.622 88 134.169 88.98 130.155 88.98C124.555 88.98 120.262 87.5333 117.275 84.64C114.607 82.0553 113.019 78.0553 112.511 72.64ZM114.52 72.64C115.02 77.681 116.493 81.0972 118.667 83.2035C121.166 85.6247 124.89 86.98 130.155 86.98C133.821 86.98 136.864 86.0921 139.376 84.3962C142.072 82.4793 143.44 80.6693 143.915 79.04L144.335 77.6H166.082L165.239 80.214C162.343 89.19 157.824 95.8459 151.539 99.9006C145.372 103.88 137.978 105.82 129.455 105.82C123.554 105.82 118.17 104.901 113.332 103.025L113.316 103.018L113.299 103.012C108.48 101.045 104.364 98.2748 100.981 94.6933C97.613 91.1269 95.005 86.8833 93.1457 81.9904L93.1394 81.974L93.1335 81.9574C91.3658 77.0473 90.4952 71.6814 90.4952 65.88C90.4952 60.2445 91.4191 54.9616 93.2857 50.0496C95.1479 45.1491 97.8071 40.902 101.272 37.3357C104.726 33.6867 108.819 30.8301 113.534 28.7677L113.54 28.7647L113.547 28.7617C118.395 26.6841 123.707 25.66 129.455 25.66C135.874 25.66 141.57 26.9245 146.479 29.526C151.313 31.995 155.287 35.3672 158.369 39.6379C161.516 43.87 163.767 48.6803 165.133 54.0466C166.495 59.3963 166.977 64.9751 166.591 70.773L166.466 72.64H114.52Z" fill="#F0E0E3"/>
</g>
<g filter="url(#filter15_b_124_119)">
<path fill-rule="evenodd" clip-rule="evenodd" d="M0.660034 0.0399933H26.64V38.4423L62.8368 0.0399933H95.9322L54.6822 41.7335L98.7876 104H66.2724L36.9406 60.2069L26.64 70.622V104H0.660034V0.0399933ZM24.64 69.8L37.24 57.06L67.34 102H94.92L52.08 41.52L91.14 2.03999H63.7L24.64 43.48V2.03999H2.66003V102H24.64V69.8Z" fill="#F0E0E3"/>
</g>
<defs>
<filter id="filter0_b_124_119" x="551.494" y="-9.34" width="120.62" height="148.34" filterUnits="userSpaceOnUse" color-interpolation-filters="sRGB">
<feFlood flood-opacity="0" result="BackgroundImageFix"/>
<feGaussianBlur in="BackgroundImageFix" stdDeviation="18.5"/>
<feComposite in2="SourceAlpha" operator="in" result="effect1_backgroundBlur_124_119"/>
<feBlend mode="normal" in="SourceGraphic" in2="effect1_backgroundBlur_124_119" result="shape"/>
</filter>
<filter id="filter1_b_124_119" x="474.106" y="-7.38" width="141.9" height="148.2" filterUnits="userSpaceOnUse" color-interpolation-filters="sRGB">
<feFlood flood-opacity="0" result="BackgroundImageFix"/>
<feGaussianBlur in="BackgroundImageFix" stdDeviation="18.5"/>
<feComposite in2="SourceAlpha" operator="in" result="effect1_backgroundBlur_124_119"/>
<feBlend mode="normal" in="SourceGraphic" in2="effect1_backgroundBlur_124_119" result="shape"/>
</filter>
<filter id="filter2_b_124_119" x="391.88" y="-9.34" width="148.9" height="150.16" filterUnits="userSpaceOnUse" color-interpolation-filters="sRGB">
<feFlood flood-opacity="0" result="BackgroundImageFix"/>
<feGaussianBlur in="BackgroundImageFix" stdDeviation="18.5"/>
<feComposite in2="SourceAlpha" operator="in" result="effect1_backgroundBlur_124_119"/>
<feBlend mode="normal" in="SourceGraphic" in2="effect1_backgroundBlur_124_119" result="shape"/>
</filter>
<filter id="filter3_b_124_119" x="313.247" y="-34.96" width="169.76" height="173.96" filterUnits="userSpaceOnUse" color-interpolation-filters="sRGB">
<feFlood flood-opacity="0" result="BackgroundImageFix"/>
<feGaussianBlur in="BackgroundImageFix" stdDeviation="18.5"/>
<feComposite in2="SourceAlpha" operator="in" result="effect1_backgroundBlur_124_119"/>
<feBlend mode="normal" in="SourceGraphic" in2="effect1_backgroundBlur_124_119" result="shape"/>
</filter>
<filter id="filter4_b_124_119" x="208.576" y="-9.34" width="147.64" height="173.68" filterUnits="userSpaceOnUse" color-interpolation-filters="sRGB">
<feFlood flood-opacity="0" result="BackgroundImageFix"/>
<feGaussianBlur in="BackgroundImageFix" stdDeviation="18.5"/>
<feComposite in2="SourceAlpha" operator="in" result="effect1_backgroundBlur_124_119"/>
<feBlend mode="normal" in="SourceGraphic" in2="effect1_backgroundBlur_124_119" result="shape"/>
</filter>
<filter id="filter5_b_124_119" x="130.286" y="-9.34" width="146.224" height="150.16" filterUnits="userSpaceOnUse" color-interpolation-filters="sRGB">
<feFlood flood-opacity="0" result="BackgroundImageFix"/>
<feGaussianBlur in="BackgroundImageFix" stdDeviation="18.5"/>
<feComposite in2="SourceAlpha" operator="in" result="effect1_backgroundBlur_124_119"/>
<feBlend mode="normal" in="SourceGraphic" in2="effect1_backgroundBlur_124_119" result="shape"/>
</filter>
<filter id="filter6_b_124_119" x="55.4952" y="-9.34" width="146.224" height="150.16" filterUnits="userSpaceOnUse" color-interpolation-filters="sRGB">
<feFlood flood-opacity="0" result="BackgroundImageFix"/>
<feGaussianBlur in="BackgroundImageFix" stdDeviation="18.5"/>
<feComposite in2="SourceAlpha" operator="in" result="effect1_backgroundBlur_124_119"/>
<feBlend mode="normal" in="SourceGraphic" in2="effect1_backgroundBlur_124_119" result="shape"/>
</filter>
<filter id="filter7_b_124_119" x="-34.34" y="-34.96" width="166.26" height="173.96" filterUnits="userSpaceOnUse" color-interpolation-filters="sRGB">
<feFlood flood-opacity="0" result="BackgroundImageFix"/>
<feGaussianBlur in="BackgroundImageFix" stdDeviation="18.5"/>
<feComposite in2="SourceAlpha" operator="in" result="effect1_backgroundBlur_124_119"/>
<feBlend mode="normal" in="SourceGraphic" in2="effect1_backgroundBlur_124_119" result="shape"/>
</filter>
<filter id="filter8_b_124_119" x="549.494" y="-11.34" width="124.62" height="152.34" filterUnits="userSpaceOnUse" color-interpolation-filters="sRGB">
<feFlood flood-opacity="0" result="BackgroundImageFix"/>
<feGaussianBlur in="BackgroundImageFix" stdDeviation="18.5"/>
<feComposite in2="SourceAlpha" operator="in" result="effect1_backgroundBlur_124_119"/>
<feBlend mode="normal" in="SourceGraphic" in2="effect1_backgroundBlur_124_119" result="shape"/>
</filter>
<filter id="filter9_b_124_119" x="472.106" y="-9.38" width="145.9" height="152.2" filterUnits="userSpaceOnUse" color-interpolation-filters="sRGB">
<feFlood flood-opacity="0" result="BackgroundImageFix"/>
<feGaussianBlur in="BackgroundImageFix" stdDeviation="18.5"/>
<feComposite in2="SourceAlpha" operator="in" result="effect1_backgroundBlur_124_119"/>
<feBlend mode="normal" in="SourceGraphic" in2="effect1_backgroundBlur_124_119" result="shape"/>
</filter>
<filter id="filter10_b_124_119" x="389.88" y="-11.34" width="152.9" height="154.16" filterUnits="userSpaceOnUse" color-interpolation-filters="sRGB">
<feFlood flood-opacity="0" result="BackgroundImageFix"/>
<feGaussianBlur in="BackgroundImageFix" stdDeviation="18.5"/>
<feComposite in2="SourceAlpha" operator="in" result="effect1_backgroundBlur_124_119"/>
<feBlend mode="normal" in="SourceGraphic" in2="effect1_backgroundBlur_124_119" result="shape"/>
</filter>
<filter id="filter11_b_124_119" x="309.712" y="-36.96" width="176.834" height="177.96" filterUnits="userSpaceOnUse" color-interpolation-filters="sRGB">
<feFlood flood-opacity="0" result="BackgroundImageFix"/>
<feGaussianBlur in="BackgroundImageFix" stdDeviation="18.5"/>
<feComposite in2="SourceAlpha" operator="in" result="effect1_backgroundBlur_124_119"/>
<feBlend mode="normal" in="SourceGraphic" in2="effect1_backgroundBlur_124_119" result="shape"/>
</filter>
<filter id="filter12_b_124_119" x="206.576" y="-11.34" width="151.64" height="177.68" filterUnits="userSpaceOnUse" color-interpolation-filters="sRGB">
<feFlood flood-opacity="0" result="BackgroundImageFix"/>
<feGaussianBlur in="BackgroundImageFix" stdDeviation="18.5"/>
<feComposite in2="SourceAlpha" operator="in" result="effect1_backgroundBlur_124_119"/>
<feBlend mode="normal" in="SourceGraphic" in2="effect1_backgroundBlur_124_119" result="shape"/>
</filter>
<filter id="filter13_b_124_119" x="128.286" y="-11.34" width="150.224" height="154.16" filterUnits="userSpaceOnUse" color-interpolation-filters="sRGB">
<feFlood flood-opacity="0" result="BackgroundImageFix"/>
<feGaussianBlur in="BackgroundImageFix" stdDeviation="18.5"/>
<feComposite in2="SourceAlpha" operator="in" result="effect1_backgroundBlur_124_119"/>
<feBlend mode="normal" in="SourceGraphic" in2="effect1_backgroundBlur_124_119" result="shape"/>
</filter>
<filter id="filter14_b_124_119" x="53.4952" y="-11.34" width="150.224" height="154.16" filterUnits="userSpaceOnUse" color-interpolation-filters="sRGB">
<feFlood flood-opacity="0" result="BackgroundImageFix"/>
<feGaussianBlur in="BackgroundImageFix" stdDeviation="18.5"/>
<feComposite in2="SourceAlpha" operator="in" result="effect1_backgroundBlur_124_119"/>
<feBlend mode="normal" in="SourceGraphic" in2="effect1_backgroundBlur_124_119" result="shape"/>
</filter>
<filter id="filter15_b_124_119" x="-36.34" y="-36.96" width="172.128" height="177.96" filterUnits="userSpaceOnUse" color-interpolation-filters="sRGB">
<feFlood flood-opacity="0" result="BackgroundImageFix"/>
<feGaussianBlur in="BackgroundImageFix" stdDeviation="18.5"/>
<feComposite in2="SourceAlpha" operator="in" result="effect1_backgroundBlur_124_119"/>
<feBlend mode="normal" in="SourceGraphic" in2="effect1_backgroundBlur_124_119" result="shape"/>
</filter>
</defs>
</svg>
