<svg width="24" height="18" viewBox="0 0 24 18" fill="none" xmlns="http://www.w3.org/2000/svg">
<path d="M19.2513 15.305V4.35498C19.2513 3.78257 18.8867 3.26689 18.3292 3.13714C15.6921 2.52338 12.5515 2.82056 10.6255 4.10458V16.9355C12.56 15.6458 15.7199 15.3518 18.3642 15.9763C18.8058 16.0807 19.2513 15.7587 19.2513 15.305Z" fill="white"/>
<path d="M1.99951 15.305V4.35498C1.99951 3.78257 2.36416 3.26689 2.92167 3.13714C5.55882 2.52338 8.69939 2.82056 10.6254 4.10458V16.9355C8.69087 15.6458 5.53099 15.3518 2.88669 15.9763C2.44499 16.0807 1.99951 15.7587 1.99951 15.305Z" fill="white"/>
<path d="M19.2877 12.1388L19.2513 15.305C19.2513 15.7588 18.8058 16.0807 18.3642 15.9763C15.7199 15.3518 12.56 15.6459 10.6255 16.9355V4.10459C11.2028 3.71973 11.8892 3.42352 12.6384 3.21393" stroke="#CB3A60" stroke-width="1.2" stroke-linecap="round" stroke-linejoin="round"/>
<path d="M1.99951 15.305V4.35498C1.99951 3.78257 2.36416 3.26689 2.92167 3.13714C5.55882 2.52338 8.69939 2.82056 10.6254 4.10458V16.9355C8.69087 15.6458 5.53099 15.3518 2.88669 15.9763C2.44499 16.0807 1.99951 15.7587 1.99951 15.305Z" stroke="#CB3A60" stroke-width="1.2" stroke-linejoin="round"/>
<path d="M18.602 2.06243L14.5366 6.67436L13.9794 9.29417C13.8903 9.71574 14.3292 10.1147 14.7414 9.9857L17.3479 9.16518L21.5463 4.7474C22.2431 4.01333 22.1221 2.78587 21.2776 2.03982C20.4531 1.31107 19.2563 1.3217 18.602 2.06243Z" fill="#FADEE3"/>
<path d="M18.602 2.06243L14.5366 6.67436L13.9794 9.29417C13.8903 9.71574 14.3292 10.1147 14.7414 9.9857L17.3479 9.16518L21.5463 4.7474C22.2431 4.01333 22.1221 2.78587 21.2776 2.03982C20.4531 1.31107 19.2563 1.3217 18.602 2.06243Z" stroke="#CB3A60" stroke-width="1.2" stroke-linecap="round" stroke-linejoin="round"/>
</svg>
