<svg width="180" height="180" viewBox="0 0 180 180" fill="none" xmlns="http://www.w3.org/2000/svg">
<path d="M18.72 90C18.72 108.905 26.2298 127.035 39.5974 140.403C52.965 153.77 71.0954 161.28 90 161.28C108.905 161.28 127.035 153.77 140.403 140.403C153.77 127.035 161.28 108.905 161.28 90C161.28 80.6393 159.436 71.3704 155.854 62.7223C152.272 54.0742 147.022 46.2164 140.403 39.5974C133.784 32.9784 125.926 27.728 117.278 24.1458C108.63 20.5637 99.3606 18.72 90 18.72C80.6394 18.72 71.3704 20.5637 62.7223 24.1458C54.0742 27.728 46.2164 32.9784 39.5974 39.5974C32.9785 46.2164 27.728 54.0742 24.1459 62.7223C20.5637 71.3704 18.72 80.6393 18.72 90Z" fill="#D9EDFF"/>
<path d="M54.0713 147.708C54.0713 148.732 57.6197 149.714 63.9359 150.438C70.2521 151.161 78.8187 151.568 87.7511 151.568C96.6836 151.568 105.25 151.161 111.566 150.438C117.883 149.714 121.431 148.732 121.431 147.708C121.431 146.685 117.883 145.703 111.566 144.979C105.25 144.255 96.6836 143.849 87.7511 143.849C78.8187 143.849 70.2521 144.255 63.9359 144.979C57.6197 145.703 54.0713 146.685 54.0713 147.708Z" fill="#B0D9FF"/>
<path d="M121.431 35.5599C118.95 35.5608 116.571 36.5468 114.817 38.3011C113.062 40.0554 112.076 42.4344 112.075 44.9154V125.373C112.075 127.854 111.09 130.234 109.335 131.988C107.581 133.743 105.201 134.728 102.72 134.728C100.239 134.728 97.8591 133.743 96.1046 131.988C94.3501 130.234 93.3644 127.854 93.3644 125.373V116.017H91.4933C91.4933 117.01 91.099 117.962 90.3972 118.663C89.6954 119.365 88.7436 119.759 87.7511 119.759C86.7586 119.759 85.8068 119.365 85.105 118.663C84.4032 117.962 84.0089 117.01 84.0089 116.017C84.0089 117.01 83.6146 117.962 82.9128 118.663C82.2111 119.365 81.2592 119.759 80.2667 119.759C79.2742 119.759 78.3224 119.365 77.6206 118.663C76.9188 117.962 76.5245 117.01 76.5245 116.017C76.5245 117.01 76.1302 117.962 75.4284 118.663C74.7267 119.365 73.7748 119.759 72.7823 119.759C71.7898 119.759 70.838 119.365 70.1362 118.663C69.4344 117.962 69.0401 117.01 69.0401 116.017C69.0401 117.01 68.6458 117.962 67.944 118.663C67.2423 119.365 66.2904 119.759 65.2979 119.759C64.3054 119.759 63.3536 119.365 62.6518 118.663C61.95 117.962 61.5557 117.01 61.5557 116.017C61.5549 116.674 61.3814 117.318 61.0526 117.887C60.7238 118.455 60.2513 118.927 59.6826 119.254C59.1138 119.582 58.4688 119.755 57.8123 119.755C57.1558 119.754 56.511 119.582 55.9424 119.253V44.9154C55.9434 42.4344 56.9293 40.0554 58.6836 38.3011C60.4379 36.5468 62.817 35.5608 65.2979 35.5599H121.431Z" fill="white" stroke="#020064" stroke-linecap="round" stroke-linejoin="round"/>
<path d="M93.3644 125.373V116.017H91.4933C91.4933 117.01 91.099 117.962 90.3973 118.663C89.6954 119.365 88.7436 119.759 87.7511 119.759C86.7586 119.759 85.8068 119.365 85.105 118.663C84.4032 117.962 84.0089 117.01 84.0089 116.017C84.0089 117.01 83.6147 117.962 82.9128 118.663C82.2111 119.365 81.2592 119.759 80.2667 119.759C79.2742 119.759 78.3224 119.365 77.6206 118.663C76.9188 117.962 76.5245 117.01 76.5245 116.017C76.5245 117.01 76.1302 117.962 75.4285 118.663C74.7267 119.365 73.7748 119.759 72.7823 119.759C71.7898 119.759 70.838 119.365 70.1362 118.663C69.4344 117.962 69.0401 117.01 69.0401 116.017C69.0401 117.01 68.6458 117.962 67.944 118.663C67.2423 119.365 66.2904 119.759 65.2979 119.759C64.3054 119.759 63.3536 119.365 62.6518 118.663C61.95 117.962 61.5557 117.01 61.5557 116.017C61.5549 116.674 61.3814 117.318 61.0526 117.887C60.7238 118.455 60.2513 118.927 59.6826 119.255C59.1138 119.582 58.4688 119.755 57.8123 119.755C57.1558 119.754 56.511 119.582 55.9424 119.253C55.586 119.05 55.2691 118.785 55.0069 118.469C54.3982 117.798 54.0642 116.923 54.0713 116.017C54.0713 117.01 53.677 117.962 52.9753 118.663C52.2735 119.365 51.3216 119.759 50.3291 119.759C49.3366 119.759 48.3848 119.365 47.683 118.663C46.9812 117.962 46.5869 117.01 46.5869 116.017C46.5869 116.509 46.4901 116.995 46.3021 117.449C46.114 117.903 45.8383 118.316 45.4909 118.663C45.1434 119.011 44.7308 119.286 44.2768 119.475C43.8228 119.663 43.3361 119.759 42.8447 119.759C42.3533 119.759 41.8667 119.663 41.4126 119.475C40.9586 119.286 40.5461 119.011 40.1986 118.663C39.8511 118.316 39.5754 117.903 39.3874 117.449C39.1993 116.995 39.1025 116.509 39.1025 116.017H37.2314V125.373C37.2324 127.854 38.2183 130.233 39.9726 131.987C41.7269 133.741 44.106 134.727 46.5869 134.728H102.72C100.239 134.727 97.8599 133.741 96.1056 131.987C94.3513 130.233 93.3654 127.854 93.3644 125.373Z" fill="#B0D9FF" stroke="#020064" stroke-linecap="round" stroke-linejoin="round"/>
<path d="M130.786 67.3686C130.786 66.3761 130.392 65.4242 129.69 64.7224C128.989 64.0206 128.037 63.6264 127.044 63.6264C126.052 63.6264 125.1 64.0206 124.398 64.7224C123.696 65.4242 123.302 66.3761 123.302 67.3686C123.302 66.3761 122.908 65.4242 122.206 64.7224C121.504 64.0206 120.552 63.6264 119.56 63.6264C118.567 63.6264 117.615 64.0206 116.914 64.7224C116.212 65.4242 115.818 66.3761 115.818 67.3686C115.815 66.377 115.42 65.4267 114.718 64.7256C114.017 64.0244 113.067 63.6292 112.075 63.6264V44.9154C112.075 43.6868 112.317 42.4702 112.788 41.3352C113.258 40.2001 113.947 39.1688 114.816 38.3C115.684 37.4313 116.716 36.7422 117.851 36.272C118.986 35.8019 120.202 35.5599 121.431 35.5599C122.66 35.5599 123.876 35.8019 125.011 36.272C126.146 36.7422 127.178 37.4313 128.046 38.3C128.915 39.1688 129.604 40.2001 130.074 41.3352C130.544 42.4702 130.786 43.6868 130.786 44.9154V67.3686Z" fill="#B0D9FF" stroke="#020064" stroke-linecap="round" stroke-linejoin="round"/>
<path d="M68.6802 65.4975C68.3422 65.4979 68.0075 65.4315 67.6953 65.3021C67.383 65.1728 67.0994 64.983 66.8607 64.7437L63.4322 61.3098C63.1933 61.071 63.0039 60.7875 62.8747 60.4755C62.7454 60.1634 62.6789 59.829 62.6789 59.4913C62.6789 59.1535 62.7454 58.8191 62.8747 58.5071C63.0039 58.1951 63.1933 57.9116 63.4322 57.6727C63.671 57.4339 63.9545 57.2445 64.2665 57.1153C64.5785 56.986 64.913 56.9195 65.2507 56.9195C65.5884 56.9195 65.9229 56.986 66.2349 57.1153C66.5469 57.2445 66.8304 57.4339 67.0692 57.6727L68.673 59.2765L73.9976 53.7702C74.4799 53.2879 75.1341 53.0169 75.8162 53.0169C76.4983 53.0169 77.1524 53.2879 77.6347 53.7702C78.117 54.2525 78.388 54.9066 78.388 55.5887C78.388 56.2708 78.117 56.9249 77.6347 57.4072L70.4907 64.7312C70.2542 64.9719 69.9725 65.1634 69.6618 65.2949C69.3511 65.4264 69.0175 65.4953 68.6802 65.4975Z" fill="#B0D9FF" stroke="#020064" stroke-linecap="round" stroke-linejoin="round"/>
<path d="M68.6801 87.327C68.3422 87.3273 68.0075 87.2609 67.6952 87.1316C67.383 87.0022 67.0994 86.8125 66.8607 86.5732L63.4322 83.1393C62.9499 82.657 62.6789 82.0028 62.6789 81.3207C62.6789 80.6387 62.9499 79.9845 63.4322 79.5022C63.9145 79.0199 64.5686 78.749 65.2507 78.749C65.9328 78.749 66.5869 79.0199 67.0692 79.5022L68.673 81.106L73.9976 75.5996C74.4799 75.1173 75.1341 74.8464 75.8162 74.8464C76.4983 74.8464 77.1524 75.1173 77.6347 75.5996C78.117 76.0819 78.388 76.7361 78.388 77.4182C78.388 78.1002 78.117 78.7544 77.6347 79.2367L70.4907 86.5607C70.2542 86.8013 69.9725 86.9929 69.6618 87.1244C69.3511 87.2559 69.0175 87.3247 68.6801 87.327Z" fill="#B0D9FF" stroke="#020064" stroke-linecap="round" stroke-linejoin="round"/>
<path d="M68.6802 109.146C68.3422 109.146 68.0075 109.08 67.6953 108.95C67.383 108.821 67.0994 108.631 66.8607 108.392L63.4322 104.969C62.9499 104.487 62.6789 103.832 62.6789 103.15C62.6789 102.468 62.9499 101.814 63.4322 101.332C63.9145 100.849 64.5686 100.578 65.2507 100.578C65.9328 100.578 66.5869 100.849 67.0692 101.332L68.673 102.936L73.9976 97.4292C74.4799 96.9469 75.1341 96.6759 75.8162 96.6759C76.4983 96.6759 77.1524 96.9469 77.6347 97.4292C78.117 97.9115 78.388 98.5656 78.388 99.2477C78.388 99.9298 78.117 100.584 77.6347 101.066L70.4907 108.39C70.2533 108.629 69.9712 108.819 69.6606 108.948C69.3499 109.078 69.0168 109.145 68.6802 109.146Z" fill="#B0D9FF" stroke="#020064" stroke-linecap="round" stroke-linejoin="round"/>
<path d="M85.88 56.142H102.72" stroke="#020064" stroke-linecap="round" stroke-linejoin="round"/>
<path d="M85.88 80.4663H102.72" stroke="#020064" stroke-linecap="round" stroke-linejoin="round"/>
<path d="M85.88 104.791H91.4933" stroke="#020064" stroke-linecap="round" stroke-linejoin="round"/>
<path d="M151.479 69.4482L139.602 57.5676L143.562 53.608C145.144 52.0676 147.269 51.2123 149.478 51.2271C151.686 51.242 153.8 52.1258 155.361 53.6873C156.923 55.2489 157.806 57.3625 157.821 59.5708C157.836 61.7791 156.981 63.9044 155.44 65.4868L151.479 69.4482Z" fill="white"/>
<path d="M105.662 91.5093L99.8634 109.187L117.541 103.388L105.662 91.5093Z" fill="#B0D9FF"/>
<path d="M105.662 91.5093L99.8634 109.187L117.541 103.388L105.662 91.5093Z" stroke="#020064" stroke-linecap="round" stroke-linejoin="round"/>
<path d="M99.8634 109.187L98.0261 111.026" stroke="#020064" stroke-linecap="round" stroke-linejoin="round"/>
<path d="M151.479 69.4482L139.602 57.5676L143.562 53.608C145.144 52.0676 147.269 51.2123 149.478 51.2271C151.686 51.242 153.8 52.1258 155.361 53.6873C156.923 55.2489 157.806 57.3625 157.821 59.5708C157.836 61.7791 156.981 63.9044 155.44 65.4868L151.479 69.4482Z" stroke="#020064" stroke-linecap="round" stroke-linejoin="round"/>
<path d="M132.813 64.3571L139.601 57.5692L151.48 69.4478L144.692 76.2357L132.813 64.3571Z" fill="#B0D9FF" stroke="#020064" stroke-linecap="round" stroke-linejoin="round"/>
<path d="M105.661 91.5089L132.813 64.3571L144.691 76.2357L117.539 103.388L105.661 91.5089Z" fill="white" stroke="#020064" stroke-linecap="round" stroke-linejoin="round"/>
</svg>
