<svg width="32" height="32" viewBox="0 0 32 32" fill="none" xmlns="http://www.w3.org/2000/svg">
<path d="M0.664001 23.1601C0.664001 24.9282 2.27961 26.6239 5.15542 27.8741C8.03123 29.1244 11.9317 29.8267 15.9987 29.8267C20.0657 29.8267 23.9661 29.1244 26.8419 27.8741C29.7177 26.6239 31.3333 24.9282 31.3333 23.1601C31.3333 21.392 29.7177 19.6963 26.8419 18.446C23.9661 17.1958 20.0657 16.4934 15.9987 16.4934C11.9317 16.4934 8.03123 17.1958 5.15542 18.446C2.27961 19.6963 0.664001 21.392 0.664001 23.1601Z" fill="#fff"/>
<path d="M6.664 23.1613C6.664 23.5115 6.90545 23.8583 7.37456 24.1818C7.84367 24.5053 8.53126 24.7993 9.39806 25.0469C10.2649 25.2945 11.2939 25.491 12.4264 25.625C13.559 25.759 14.7728 25.828 15.9987 25.828C17.2245 25.828 18.4384 25.759 19.5709 25.625C20.7034 25.491 21.7325 25.2945 22.5993 25.0469C23.4661 24.7993 24.1537 24.5053 24.6228 24.1818C25.0919 23.8583 25.3333 23.5115 25.3333 23.1613C25.3333 22.4541 24.3499 21.7758 22.5993 21.2757C20.8487 20.7756 18.4744 20.4946 15.9987 20.4946C13.523 20.4946 11.1487 20.7756 9.39806 21.2757C7.64747 21.7758 6.664 22.4541 6.664 23.1613Z" fill="#FADEE3"/>
<path d="M28.872 9.93072C27.4028 9.63573 25.8941 9.59334 24.4107 9.80538C24.4393 8.09294 24.2457 6.38402 23.8347 4.72138C23.812 4.62953 23.7701 4.54355 23.7117 4.46916C23.6532 4.39476 23.5796 4.33365 23.4958 4.28989C23.4119 4.24612 23.3197 4.22071 23.2252 4.21534C23.1308 4.20996 23.0363 4.22475 22.948 4.25872C21.5507 4.79799 20.2462 5.55195 19.0813 6.49338L19.0653 6.56938C18.4144 5.07246 17.5572 3.67401 16.5187 2.41472C16.4561 2.33899 16.3776 2.27802 16.2887 2.23616C16.1999 2.19431 16.1029 2.17261 16.0047 2.17261C15.9064 2.17261 15.8094 2.19431 15.7206 2.23616C15.6317 2.27802 15.5532 2.33899 15.4907 2.41472C14.4603 3.66029 13.6077 5.04281 12.9573 6.52272C11.782 5.56625 10.4631 4.80128 9.04933 4.25605C8.96104 4.22208 8.86654 4.2073 8.77209 4.21267C8.67764 4.21804 8.58542 4.24346 8.50155 4.28722C8.41769 4.33098 8.34409 4.39209 8.28566 4.46649C8.22723 4.54089 8.18531 4.62687 8.16267 4.71872C7.75245 6.38104 7.55884 8.08942 7.58667 9.80138C6.10276 9.5925 4.59412 9.63759 3.12533 9.93472C2.95384 9.96896 2.80266 10.0692 2.7044 10.2139C2.60613 10.3585 2.56864 10.536 2.6 10.7081C2.90133 12.3561 3.96667 16.8587 6.97333 19.2001C10.7067 22.0921 16 20.5574 16 20.5574C16 20.5574 21.2973 22.0921 25.0253 19.2001C28.032 16.8654 29.0973 12.3627 29.3973 10.7107C29.4306 10.5377 29.3941 10.3585 29.2956 10.2123C29.1972 10.0661 29.0449 9.9649 28.872 9.93072Z" fill="#FADEE3"/>
<path d="M20.0693 11.1881C20.0693 16.3587 15.9987 20.5507 15.9987 20.5507C15.9987 20.5507 11.9293 16.3587 11.9293 11.1881C12.1176 7.95212 13.3674 4.86852 15.4853 2.41472C15.5479 2.33899 15.6264 2.27802 15.7153 2.23616C15.8041 2.19431 15.9011 2.17261 15.9993 2.17261C16.0976 2.17261 16.1946 2.19431 16.2834 2.23616C16.3723 2.27802 16.4508 2.33899 16.5133 2.41472C18.6312 4.86852 19.8811 7.95212 20.0693 11.1881Z" stroke="#00303E" stroke-linecap="round" stroke-linejoin="round"/>
<path d="M19.076 6.49323C20.2408 5.5518 21.5454 4.79784 22.9427 4.25857C23.031 4.2246 23.1255 4.20981 23.2199 4.21519C23.3144 4.22056 23.4066 4.24597 23.4904 4.28974C23.5743 4.3335 23.6479 4.39461 23.7063 4.46901C23.7648 4.5434 23.8067 4.62938 23.8293 4.72123C24.2493 6.41857 25.08 10.8679 23.4107 14.4799C21.3053 19.0466 16 20.5506 16 20.5506" stroke="#00303E" stroke-linecap="round" stroke-linejoin="round"/>
<path d="M24.4 9.8053C25.8852 9.59323 27.3957 9.63561 28.8667 9.93064C29.0382 9.96488 29.1893 10.0651 29.2876 10.2098C29.3859 10.3544 29.4234 10.5319 29.392 10.704C29.0933 12.356 28.0267 16.8586 25.02 19.1933C21.2867 22.0853 15.9933 20.5506 15.9933 20.5506" stroke="#00303E" stroke-linecap="round" stroke-linejoin="round"/>
<path d="M13.0507 6.59857C11.8528 5.60713 10.5019 4.81684 9.05067 4.25857C8.96238 4.2246 8.86787 4.20981 8.77342 4.21519C8.67898 4.22056 8.58676 4.24597 8.50289 4.28974C8.41902 4.3335 8.34543 4.39461 8.287 4.46901C8.22857 4.5434 8.18664 4.62938 8.164 4.72123C7.744 6.4199 6.91333 10.8679 8.58267 14.4799C10.6933 19.0466 16 20.5506 16 20.5506" stroke="#00303E" stroke-linecap="round" stroke-linejoin="round"/>
<path d="M7.63199 9.81062C6.13445 9.59189 4.61044 9.63248 3.12666 9.93062C2.95517 9.96486 2.80399 10.0651 2.70572 10.2098C2.60746 10.3544 2.56996 10.5319 2.60133 10.704C2.90133 12.356 3.96666 16.8586 6.97333 19.2C10.7013 22.0853 16 20.5506 16 20.5506C16 20.5506 16 20.5146 15.9867 20.448" stroke="#00303E" stroke-linecap="round" stroke-linejoin="round"/>
<path d="M24.704 22.1973C24.8775 22.2969 25.025 22.4362 25.1344 22.6037C25.2438 22.7713 25.3119 22.9623 25.3333 23.1613C25.3333 24.6279 21.1547 25.8279 16 25.8279C10.8453 25.8279 6.66667 24.6279 6.66667 23.1613C6.67843 22.9014 6.78966 22.656 6.97734 22.4759" stroke="#00303E" stroke-linecap="round" stroke-linejoin="round"/>
<path d="M29.2493 19.8027C29.8366 20.1589 30.3315 20.6488 30.6937 21.2324C31.0558 21.8161 31.275 22.477 31.3333 23.1614C31.3333 26.8427 24.468 29.8281 16 29.8281C7.532 29.8281 0.666672 26.8427 0.666672 23.1614C0.720417 22.4944 0.929228 21.8492 1.27646 21.2772C1.62369 20.7052 2.09974 20.2222 2.66667 19.8667" stroke="#00303E" stroke-linecap="round" stroke-linejoin="round"/>
<path d="M16 23.1613V20.4946" stroke="#00303E" stroke-linecap="round" stroke-linejoin="round"/>
</svg>
