<svg width="62" height="40" viewBox="0 0 62 40" fill="none" xmlns="http://www.w3.org/2000/svg">
<path d="M59.1295 40C58.6745 40 58.2581 39.944 57.8801 39.832C57.5092 39.7201 57.1767 39.5556 56.8827 39.3386C56.5958 39.1216 56.3368 38.8592 56.1058 38.5512L57.0927 37.4278C57.4357 37.9038 57.7751 38.2292 58.1111 38.4042C58.454 38.5722 58.825 38.6562 59.2239 38.6562C59.4409 38.6562 59.6334 38.6282 59.8014 38.5722C59.9764 38.5092 60.1128 38.4217 60.2108 38.3097C60.3088 38.1977 60.3578 38.0648 60.3578 37.9108C60.3578 37.7988 60.3333 37.6973 60.2843 37.6063C60.2353 37.5083 60.1653 37.4243 60.0743 37.3544C59.9834 37.2774 59.8749 37.2109 59.7489 37.1549C59.6229 37.0919 59.4829 37.0394 59.3289 36.9974C59.175 36.9484 59.007 36.9099 58.825 36.8819C58.433 36.7909 58.0901 36.6824 57.7961 36.5565C57.5022 36.4235 57.2572 36.2625 57.0612 36.0735C56.8652 35.8775 56.7183 35.6571 56.6203 35.4121C56.5293 35.1671 56.4838 34.8907 56.4838 34.5827C56.4838 34.2677 56.5538 33.9773 56.6938 33.7113C56.8337 33.4383 57.0262 33.2039 57.2712 33.0079C57.5232 32.8119 57.8101 32.6614 58.1321 32.5565C58.461 32.4515 58.8075 32.399 59.1715 32.399C59.6194 32.399 60.0114 32.4515 60.3473 32.5565C60.6833 32.6544 60.9737 32.7979 61.2187 32.9869C61.4707 33.1759 61.6806 33.4068 61.8486 33.6798L60.8512 34.6457C60.7043 34.4497 60.5433 34.2852 60.3683 34.1523C60.2003 34.0193 60.0149 33.9213 59.8119 33.8583C59.6159 33.7883 59.4129 33.7533 59.203 33.7533C58.972 33.7533 58.7725 33.7848 58.6045 33.8478C58.4365 33.9038 58.3036 33.9878 58.2056 34.0998C58.1146 34.2117 58.0691 34.3482 58.0691 34.5092C58.0691 34.6352 58.1006 34.7472 58.1636 34.8452C58.2266 34.9432 58.3176 35.0306 58.4365 35.1076C58.5555 35.1776 58.699 35.2406 58.867 35.2966C59.035 35.3526 59.2205 35.4016 59.4234 35.4436C59.8084 35.5206 60.1548 35.6221 60.4628 35.7481C60.7708 35.874 61.0332 36.028 61.2502 36.21C61.4742 36.385 61.6456 36.5949 61.7646 36.8399C61.8836 37.0779 61.9431 37.3474 61.9431 37.6483C61.9431 38.1453 61.8241 38.5687 61.5862 38.9187C61.3482 39.2686 61.0192 39.5381 60.5993 39.7271C60.1793 39.909 59.6894 40 59.1295 40Z" fill="#17191C"/>
<path d="M47.9823 39.8951V32.546H52.9482V33.9318H49.5151V38.5092H53.0217V39.8951H47.9823ZM48.7172 36.8189V35.4751H52.4442V36.8189H48.7172Z" fill="#17191C"/>
<path d="M39.5157 39.8951V32.546H41.0905V38.4777H44.4186V39.8951H39.5157Z" fill="#17191C"/>
<path d="M30.1263 39.8951V32.546H33.3179C33.8079 32.546 34.2208 32.6195 34.5568 32.7664C34.8997 32.9064 35.1587 33.1129 35.3337 33.3859C35.5086 33.6588 35.5961 33.9843 35.5961 34.3622C35.5961 34.7822 35.4911 35.1321 35.2812 35.4121C35.0712 35.6921 34.7702 35.8846 34.3783 35.9895L34.3678 35.7796C34.6897 35.8566 34.9732 35.9825 35.2182 36.1575C35.4631 36.3325 35.6521 36.5495 35.7851 36.8084C35.9181 37.0674 35.9846 37.3614 35.9846 37.6903C35.9846 38.0543 35.9251 38.3762 35.8061 38.6562C35.6871 38.9292 35.5121 39.1566 35.2812 39.3386C35.0502 39.5206 34.7772 39.6606 34.4623 39.7586C34.1543 39.8496 33.8079 39.8951 33.4229 39.8951H30.1263ZM31.6381 38.5302H33.3599C33.5839 38.5302 33.7729 38.4987 33.9268 38.4357C34.0878 38.3657 34.2103 38.2608 34.2943 38.1208C34.3783 37.9808 34.4203 37.8163 34.4203 37.6273C34.4203 37.4454 34.3748 37.2914 34.2838 37.1654C34.1928 37.0394 34.0633 36.9449 33.8953 36.8819C33.7344 36.8119 33.5384 36.7769 33.3074 36.7769H31.6381V38.5302ZM31.6381 35.5276H33.1289C33.3179 35.5276 33.4824 35.4926 33.6224 35.4226C33.7624 35.3526 33.8673 35.2581 33.9373 35.1391C34.0143 35.0202 34.0528 34.8802 34.0528 34.7192C34.0528 34.4602 33.9688 34.2608 33.8009 34.1208C33.6329 33.9808 33.3809 33.9108 33.0449 33.9108H31.6381V35.5276Z" fill="#17191C"/>
<path d="M20.6754 39.8951V32.546H23.93C24.385 32.546 24.7979 32.651 25.1689 32.8609C25.5398 33.0639 25.8303 33.3404 26.0403 33.6903C26.2573 34.0403 26.3657 34.4392 26.3657 34.8872C26.3657 35.3281 26.2573 35.7306 26.0403 36.0945C25.8303 36.4515 25.5398 36.7349 25.1689 36.9449C24.7979 37.1549 24.385 37.2599 23.93 37.2599H22.1978V39.8951H20.6754ZM24.8434 39.8951L22.9747 36.5775L24.5915 36.315L26.6702 39.9056L24.8434 39.8951ZM22.1978 35.979H23.8565C24.0455 35.979 24.21 35.937 24.35 35.8531C24.497 35.7621 24.609 35.6396 24.6859 35.4856C24.7629 35.3246 24.8014 35.1461 24.8014 34.9502C24.8014 34.7402 24.7559 34.5582 24.6649 34.4042C24.574 34.2503 24.441 34.1313 24.266 34.0473C24.091 33.9563 23.888 33.9108 23.6571 33.9108H22.1978V35.979Z" fill="#17191C"/>
<path d="M10.3942 39.8951L13.2708 32.546H14.6777L17.5438 39.8951H15.927L14.4467 35.937C14.4047 35.8251 14.3522 35.6816 14.2892 35.5066C14.2332 35.3316 14.1737 35.1461 14.1107 34.9502C14.0477 34.7542 13.9882 34.5687 13.9323 34.3937C13.8763 34.2118 13.8343 34.0613 13.8063 33.9423L14.0897 33.9318C14.0477 34.0928 13.9987 34.2608 13.9428 34.4357C13.8938 34.6037 13.8413 34.7787 13.7853 34.9607C13.7293 35.1356 13.6698 35.3071 13.6068 35.4751C13.5438 35.6431 13.4843 35.8076 13.4283 35.9685L11.948 39.8951H10.3942ZM11.7275 38.3517L12.242 37.0814H15.612L16.137 38.3517H11.7275Z" fill="#17191C"/>
<path d="M0 39.8951V32.546H1.43832L4.11549 36.9029L3.1706 36.8924L5.87927 32.546H7.2546V39.8951H5.71129V37.3754C5.71129 36.7454 5.72529 36.1785 5.75328 35.6746C5.78828 35.1706 5.84427 34.6702 5.92126 34.1733L6.11024 34.6667L3.95801 38.0053H3.26509L1.15486 34.6877L1.33333 34.1733C1.41032 34.6422 1.46282 35.1251 1.49081 35.6221C1.52581 36.112 1.54331 36.6965 1.54331 37.3754V39.8951H0Z" fill="#17191C"/>
<circle cx="32.2905" cy="13.1234" r="13.1234" fill="white"/>
<path fill-rule="evenodd" clip-rule="evenodd" d="M32.2905 25.0219C38.8618 25.0219 44.189 19.6947 44.189 13.1234C44.189 6.552 38.8618 1.22485 32.2905 1.22485C25.7191 1.22485 20.392 6.552 20.392 13.1234C20.392 19.6947 25.7191 25.0219 32.2905 25.0219ZM32.2905 26.2467C39.5383 26.2467 45.4138 20.3712 45.4138 13.1234C45.4138 5.87553 39.5383 0 32.2905 0C25.0426 0 19.1671 5.87553 19.1671 13.1234C19.1671 20.3712 25.0426 26.2467 32.2905 26.2467Z" fill="#17191C"/>
<path fill-rule="evenodd" clip-rule="evenodd" d="M33.1273 3.34408C33.134 3.63392 32.9044 3.87431 32.6146 3.881C29.7027 3.94828 27.0521 5.37187 25.3648 7.60718C25.1901 7.83857 24.8609 7.88455 24.6295 7.70988C24.3981 7.53521 24.3522 7.20604 24.5268 6.97465C26.4018 4.49084 29.3484 2.90631 32.5904 2.83141C32.8802 2.82472 33.1206 3.05425 33.1273 3.34408Z" fill="#17191C"/>
<circle cx="44.364" cy="19.2476" r="6.99913" fill="white"/>
<path fill-rule="evenodd" clip-rule="evenodd" d="M44.364 25.0219C47.553 25.0219 50.1382 22.4366 50.1382 19.2476C50.1382 16.0586 47.553 13.4733 44.364 13.4733C41.1749 13.4733 38.5897 16.0586 38.5897 19.2476C38.5897 22.4366 41.1749 25.0219 44.364 25.0219ZM44.364 26.2467C48.2295 26.2467 51.3631 23.1131 51.3631 19.2476C51.3631 15.3821 48.2295 12.2485 44.364 12.2485C40.4985 12.2485 37.3648 15.3821 37.3648 19.2476C37.3648 23.1131 40.4985 26.2467 44.364 26.2467Z" fill="#17191C"/>
<path fill-rule="evenodd" clip-rule="evenodd" d="M44.768 15.1111C44.7795 15.3524 44.5932 15.5573 44.3519 15.5688C43.0656 15.6302 41.919 16.366 41.3125 17.466C41.1958 17.6775 40.9297 17.7545 40.7182 17.6378C40.5066 17.5212 40.4297 17.2551 40.5463 17.0435C41.2968 15.6824 42.7148 14.771 44.3102 14.6949C44.5515 14.6834 44.7565 14.8697 44.768 15.1111Z" fill="#17191C"/>
<circle cx="18.7734" cy="17.7165" r="8.53019" fill="white"/>
<path fill-rule="evenodd" clip-rule="evenodd" d="M18.7734 25.0219C22.808 25.0219 26.0788 21.7512 26.0788 17.7165C26.0788 13.6819 22.808 10.4112 18.7734 10.4112C14.7388 10.4112 11.4681 13.6819 11.4681 17.7165C11.4681 21.7512 14.7388 25.0219 18.7734 25.0219ZM18.7734 26.2467C23.4845 26.2467 27.3036 22.4276 27.3036 17.7165C27.3036 13.0055 23.4845 9.18636 18.7734 9.18636C14.0623 9.18636 10.2432 13.0055 10.2432 17.7165C10.2432 22.4276 14.0623 26.2467 18.7734 26.2467Z" fill="#17191C"/>
<path fill-rule="evenodd" clip-rule="evenodd" d="M18.9491 12.3406C18.986 12.6038 18.8025 12.847 18.5393 12.8839C16.9348 13.1084 15.5498 14.0569 14.7413 15.3998C14.6042 15.6275 14.3085 15.701 14.0808 15.5639C13.8532 15.4268 13.7797 15.1311 13.9168 14.9035C14.8711 13.3183 16.5066 12.1965 18.4059 11.9308C18.6691 11.8939 18.9123 12.0774 18.9491 12.3406Z" fill="#17191C"/>
</svg>
