<svg width="18" height="18" viewBox="0 0 18 18" fill="none" xmlns="http://www.w3.org/2000/svg">
<g clip-path="url(#clip0_168_224)">
<path d="M16.7143 10.2856C16.0939 14.1149 12.4119 16.1815 9.64285 16.4728C10.6972 15.0677 11.4397 13.6374 11.7632 11.4752C11.863 10.8084 12.415 10.2856 13.0892 10.2856H16.7143Z" fill="#FADEE3"/>
<path fill-rule="evenodd" clip-rule="evenodd" d="M16.552 3.4983C16.6583 5.19309 16.7143 6.94934 16.7143 8.74894L16.7031 10.0023C16.7022 10.1018 16.6783 10.1985 16.6346 10.2855H13.0892C12.415 10.2855 11.863 10.8083 11.7632 11.4751C11.4457 13.5973 10.7245 15.0145 9.70099 16.3946C9.61355 16.4381 9.51669 16.4613 9.41762 16.4617L8.99999 16.4633C7.20039 16.4633 5.44413 16.4073 3.74934 16.301C2.50989 16.2232 1.52579 15.239 1.44799 13.9996C1.34162 12.3048 1.28571 10.5486 1.28571 8.74894C1.28571 6.94934 1.34162 5.19309 1.44799 3.4983C1.52579 2.25885 2.50989 1.27475 3.74934 1.19695C5.44413 1.09058 7.20039 1.03467 8.99999 1.03467C10.7996 1.03467 12.5559 1.09058 14.2506 1.19695C15.4901 1.27475 16.4742 2.25885 16.552 3.4983Z" fill="white"/>
<path d="M9.65802 16.4607L8.99999 16.4633C7.20039 16.4633 5.44413 16.4073 3.74934 16.301C2.50989 16.2232 1.52579 15.239 1.44799 13.9996C1.34162 12.3048 1.28571 10.5486 1.28571 8.74894C1.28571 6.94934 1.34162 5.19309 1.44799 3.4983C1.52579 2.25885 2.50989 1.27475 3.74934 1.19695C5.44413 1.09058 7.20039 1.03467 8.99999 1.03467C10.7996 1.03467 12.5559 1.09058 14.2506 1.19695C15.4901 1.27475 16.4742 2.25885 16.552 3.4983C16.6583 5.19309 16.7143 6.94934 16.7143 8.74894L16.7005 10.2903" stroke="#CB3A60" stroke-width="1.3" stroke-linecap="round" stroke-linejoin="round"/>
<path d="M16.7143 10.2856C16.0939 14.1149 12.4119 16.1815 9.64285 16.4728C10.6972 15.0677 11.4397 13.6374 11.7632 11.4752C11.863 10.8084 12.415 10.2856 13.0892 10.2856H16.7143Z" stroke="#CB3A60" stroke-width="1.3" stroke-linecap="round" stroke-linejoin="round"/>
</g>
<defs>
<clipPath id="clip0_168_224">
<rect width="18" height="18" fill="white"/>
</clipPath>
</defs>
</svg>
