<svg width="180" height="180" viewBox="0 0 180 180" fill="none" xmlns="http://www.w3.org/2000/svg">
<rect width="180" height="180" fill="white"/>
<path d="M19 90.28C19 109.185 26.5098 127.315 39.8774 140.683C53.245 154.05 71.3754 161.56 90.28 161.56C109.185 161.56 127.315 154.05 140.683 140.683C154.05 127.315 161.56 109.185 161.56 90.28C161.56 80.9194 159.716 71.6504 156.134 63.0023C152.552 54.3542 147.302 46.4964 140.683 39.8774C134.064 33.2585 126.206 28.008 117.558 24.4259C108.91 20.8437 99.6406 19 90.28 19C80.9194 19 71.6504 20.8437 63.0023 24.4259C54.3542 28.008 46.4964 33.2585 39.8774 39.8774C33.2585 46.4964 28.008 54.3542 24.4259 63.0023C20.8437 71.6504 19 80.9194 19 90.28Z" fill="#FAF0F2"/>
<path d="M62 148C62 149.061 65.1607 150.078 70.7868 150.828C76.4129 151.579 84.0435 152 92 152C99.9565 152 107.587 151.579 113.213 150.828C118.839 150.078 122 149.061 122 148C122 146.939 118.839 145.922 113.213 145.172C107.587 144.421 99.9565 144 92 144C84.0435 144 76.4129 144.421 70.7868 145.172C65.1607 145.922 62 146.939 62 148Z" fill="#FADEE3"/>
<path d="M49 51C49 48.7909 50.7909 47 53 47H132C134.209 47 136 48.7909 136 51V111C136 123.703 125.703 134 113 134H53C50.7909 134 49 132.209 49 130V51Z" fill="white"/>
<path d="M49.5 51C49.5 49.067 51.067 47.5 53 47.5H132C133.933 47.5 135.5 49.067 135.5 51V107V111C135.5 123.426 125.426 133.5 113 133.5H109.5H53C51.067 133.5 49.5 131.933 49.5 130V51Z" stroke="black"/>
<path d="M135.5 110.377C135.5 110.501 135.5 110.628 135.499 110.76C135.461 122.818 126.3 132.661 114.25 133.121C112.453 133.19 110.536 133.251 108.5 133.3C112.45 128.193 115.5 126 115.5 117.5C115.5 112 115.5 110.377 121.411 110.377H135.5Z" fill="#FADEE3" stroke="black" stroke-linecap="round" stroke-linejoin="round"/>
<path d="M64 73L66.2495 75.5119C66.9857 76.3341 68.2488 76.4044 69.0718 75.6692L70.7891 74.1351C71.5213 73.481 72.6201 73.4551 73.3823 74.0741L75.7776 76.0194C76.4878 76.5962 77.4989 76.6175 78.2328 76.0712L81.0488 73.9748C81.8109 73.4074 82.867 73.4545 83.5756 74.0875L85.6185 75.9125C86.327 76.5455 87.3831 76.5926 88.1452 76.0252L90.8996 73.9748C91.6617 73.4074 92.7178 73.4545 93.4263 74.0875L95.3541 75.8097C96.1131 76.4877 97.2601 76.4877 98.019 75.8097L99.8935 74.1351C100.626 73.481 101.725 73.4551 102.487 74.0741L104.402 75.6294C105.31 76.3672 106.658 76.1702 107.422 75.2842C108.358 74.1991 109.61 73 110.567 73C111.379 73 112.426 74.0646 113.249 75.0953C114.015 76.0542 115.441 76.282 116.376 75.4869L118.003 74.1026C118.75 73.467 119.847 73.467 120.595 74.1026L124 77" stroke="black" stroke-linecap="round"/>
<path d="M64 89L66.2495 91.5119C66.9857 92.3341 68.2488 92.4044 69.0718 91.6692L70.7891 90.1351C71.5213 89.481 72.6201 89.4551 73.3823 90.0741L75.7776 92.0194C76.4878 92.5962 77.4989 92.6175 78.2328 92.0712L81.0488 89.9748C81.8109 89.4074 82.867 89.4545 83.5756 90.0875L85.6185 91.9125C86.327 92.5455 87.3831 92.5926 88.1452 92.0252L90.8996 89.9748C91.6617 89.4074 92.7178 89.4545 93.4263 90.0875L95.3541 91.8097C96.1131 92.4877 97.2601 92.4877 98.019 91.8097L99.8935 90.1351C100.626 89.481 101.725 89.4551 102.487 90.0741L104.402 91.6294C105.31 92.3672 106.658 92.1702 107.422 91.2842C108.358 90.1991 109.61 89 110.567 89C111.379 89 112.426 90.0646 113.249 91.0953C114.015 92.0542 115.441 92.282 116.376 91.4869L118.003 90.1026C118.75 89.467 119.847 89.467 120.595 90.1026L124 93" stroke="black" stroke-linecap="round"/>
<path d="M64 105L66.7342 107.734C67.4548 108.455 68.602 108.518 69.3978 107.882L71.8084 105.953C72.5121 105.39 73.5053 105.368 74.2341 105.898L77.3734 108.181C78.0504 108.673 78.9625 108.692 79.6591 108.227L83.2832 105.811C84.0079 105.328 84.9619 105.369 85.642 105.914L89.5 109" stroke="black" stroke-linecap="round"/>
<path d="M91.6284 57.6655L109.628 37.6655" stroke="black" stroke-linecap="round"/>
<circle cx="115.5" cy="32.5" r="9" fill="#FADEE3" stroke="#0A0969"/>
</svg>
