<svg width="40" height="40" viewBox="0 0 40 40" fill="none" xmlns="http://www.w3.org/2000/svg">
<mask id="mask0_27_494" style="mask-type:alpha" maskUnits="userSpaceOnUse" x="0" y="0" width="40" height="40">
<circle cx="20" cy="20" r="20" fill="#F9B2BA"/>
</mask>
<g mask="url(#mask0_27_494)">
<g filter="url(#filter0_i_27_494)">
<circle cx="20" cy="20" r="20" fill="#83D7ED"/>
</g>
<g filter="url(#filter1_f_27_494)">
<ellipse cx="17.7885" cy="16.5014" rx="20.8654" ry="20.977" fill="#65D4F0"/>
</g>
<path d="M28.9586 22.3265C28.3186 26.277 24.52 28.4091 21.6632 28.7095C22.7509 27.26 23.5169 25.7844 23.8507 23.5537C23.9537 22.8658 24.5231 22.3265 25.2187 22.3265H28.9586Z" fill="white"/>
<path fill-rule="evenodd" clip-rule="evenodd" d="M28.7912 15.3241C28.9009 17.0725 28.9586 18.8844 28.9586 20.741L28.947 22.0341C28.9461 22.1367 28.9214 22.2365 28.8763 22.3262H25.2187C24.5231 22.3262 23.9537 22.8655 23.8507 23.5534C23.5231 25.7428 22.7791 27.205 21.7232 28.6288C21.633 28.6736 21.533 28.6976 21.4308 28.698L21 28.6996C19.1434 28.6996 17.3315 28.6419 15.5831 28.5322C14.3044 28.4519 13.2891 27.4366 13.2088 26.1579C13.0991 24.4094 13.0414 22.5976 13.0414 20.741C13.0414 18.8844 13.0991 17.0725 13.2088 15.3241C13.2891 14.0454 14.3044 13.0301 15.5831 12.9499C17.3315 12.8401 19.1434 12.7824 21 12.7824C22.8566 12.7824 24.6684 12.8401 26.4169 12.9499C27.6957 13.0301 28.7109 14.0454 28.7912 15.3241Z" fill="white"/>
<path d="M21.6789 28.6969L21 28.6996C19.1434 28.6996 17.3315 28.6419 15.5831 28.5322C14.3044 28.4519 13.2891 27.4366 13.2088 26.1579C13.0991 24.4094 13.0414 22.5976 13.0414 20.741C13.0414 18.8844 13.0991 17.0725 13.2088 15.3241C13.2891 14.0454 14.3044 13.0301 15.5831 12.9499C17.3315 12.8401 19.1434 12.7824 21 12.7824C22.8566 12.7824 24.6684 12.8401 26.4169 12.9499C27.6957 13.0301 28.7109 14.0454 28.7912 15.3241C28.9009 17.0725 28.9586 18.8844 28.9586 20.741L28.9444 22.3312" stroke="black" stroke-width="1.43" stroke-linecap="round" stroke-linejoin="round"/>
<path d="M28.9586 22.3265C28.3186 26.277 24.52 28.4091 21.6632 28.7095C22.7509 27.26 23.5169 25.7844 23.8507 23.5537C23.9537 22.8658 24.5231 22.3265 25.2187 22.3265H28.9586Z" stroke="black" stroke-width="1.43" stroke-linecap="round" stroke-linejoin="round"/>
<g filter="url(#filter2_f_27_494)">
<ellipse cx="14.7327" cy="10.729" rx="12.8987" ry="12.9121" fill="white" fill-opacity="0.7"/>
</g>
<g opacity="0.2" filter="url(#filter3_f_27_494)">
<ellipse cx="5.46866" cy="3.34926" rx="5.46866" ry="3.34926" transform="matrix(0.981091 -0.193545 0.191567 0.981479 16.5385 32.0552)" fill="white"/>
</g>
</g>
<defs>
<filter id="filter0_i_27_494" x="0" y="0" width="40" height="40" filterUnits="userSpaceOnUse" color-interpolation-filters="sRGB">
<feFlood flood-opacity="0" result="BackgroundImageFix"/>
<feBlend mode="normal" in="SourceGraphic" in2="BackgroundImageFix" result="shape"/>
<feColorMatrix in="SourceAlpha" type="matrix" values="0 0 0 0 0 0 0 0 0 0 0 0 0 0 0 0 0 0 127 0" result="hardAlpha"/>
<feMorphology radius="4" operator="erode" in="SourceAlpha" result="effect1_innerShadow_27_494"/>
<feOffset/>
<feGaussianBlur stdDeviation="15"/>
<feComposite in2="hardAlpha" operator="arithmetic" k2="-1" k3="1"/>
<feColorMatrix type="matrix" values="0 0 0 0 0.512543 0 0 0 0 0.856241 0 0 0 0 0.942165 0 0 0 1 0"/>
<feBlend mode="normal" in2="shape" result="effect1_innerShadow_27_494"/>
</filter>
<filter id="filter1_f_27_494" x="-63.0769" y="-64.4755" width="161.731" height="161.954" filterUnits="userSpaceOnUse" color-interpolation-filters="sRGB">
<feFlood flood-opacity="0" result="BackgroundImageFix"/>
<feBlend mode="normal" in="SourceGraphic" in2="BackgroundImageFix" result="shape"/>
<feGaussianBlur stdDeviation="30" result="effect1_foregroundBlur_27_494"/>
</filter>
<filter id="filter2_f_27_494" x="-48.166" y="-52.1831" width="125.797" height="125.824" filterUnits="userSpaceOnUse" color-interpolation-filters="sRGB">
<feFlood flood-opacity="0" result="BackgroundImageFix"/>
<feBlend mode="normal" in="SourceGraphic" in2="BackgroundImageFix" result="shape"/>
<feGaussianBlur stdDeviation="25" result="effect1_foregroundBlur_27_494"/>
</filter>
<filter id="filter3_f_27_494" x="-12.8587" y="0.829636" width="70.808" height="66.9087" filterUnits="userSpaceOnUse" color-interpolation-filters="sRGB">
<feFlood flood-opacity="0" result="BackgroundImageFix"/>
<feBlend mode="normal" in="SourceGraphic" in2="BackgroundImageFix" result="shape"/>
<feGaussianBlur stdDeviation="15" result="effect1_foregroundBlur_27_494"/>
</filter>
</defs>
</svg>
