<svg width="180" height="180" viewBox="0 0 180 180" fill="none" xmlns="http://www.w3.org/2000/svg">
<rect width="180" height="180" fill="white"/>
<path d="M19 90.28C19 109.185 26.5098 127.315 39.8774 140.683C53.245 154.05 71.3754 161.56 90.28 161.56C109.185 161.56 127.315 154.05 140.683 140.683C154.05 127.315 161.56 109.185 161.56 90.28C161.56 80.9194 159.716 71.6504 156.134 63.0023C152.552 54.3542 147.302 46.4964 140.683 39.8774C134.064 33.2585 126.206 28.008 117.558 24.4259C108.91 20.8437 99.6406 19 90.28 19C80.9194 19 71.6504 20.8437 63.0023 24.4259C54.3542 28.008 46.4964 33.2585 39.8774 39.8774C33.2585 46.4964 28.008 54.3542 24.4259 63.0023C20.8437 71.6504 19 80.9194 19 90.28Z" fill="#E7F6BE"/>
<path d="M62 148C62 149.061 65.1607 150.078 70.7868 150.828C76.4129 151.579 84.0435 152 92 152C99.9565 152 107.587 151.579 113.213 150.828C118.839 150.078 122 149.061 122 148C122 146.939 118.839 145.922 113.213 145.172C107.587 144.421 99.9565 144 92 144C84.0435 144 76.4129 144.421 70.7868 145.172C65.1607 145.922 62 146.939 62 148Z" fill="#CEE788"/>
<rect x="59.4873" y="44.5213" width="70.07" height="91.8021" rx="3.5" transform="rotate(2.49013 59.4873 44.5213)" fill="white" stroke="black"/>
<path d="M85.1091 65.712L87.705 63.5036C88.475 62.8485 89.6127 62.8711 90.3562 63.5561L91.8826 64.9627C92.5761 65.6017 93.6218 65.6695 94.392 65.1253L96.3891 63.7142C97.1883 63.1495 98.2789 63.2461 98.9664 63.9426L100.221 65.2137C100.909 65.9102 101.999 66.0068 102.799 65.4421L104.731 64.077C105.53 63.5123 106.62 63.6089 107.308 64.3054L109.755 66.7838" stroke="black" stroke-linecap="round"/>
<path d="M84.5222 79.2083L86.1045 81.2223C86.8067 82.116 88.1115 82.2458 88.9759 81.5077L89.971 80.6581C90.7419 79.9999 91.8833 80.0225 92.6276 80.7107L94.1341 82.1039C94.8284 82.746 95.8775 82.814 96.6489 82.2669L98.6234 80.8668C99.4238 80.2991 100.518 80.3961 101.206 81.0956L102.443 82.3532C103.131 83.0528 104.225 83.1498 105.026 82.5821L106.935 81.2282C107.736 80.6605 108.83 80.7575 109.518 81.4571L111.949 83.9284" stroke="black" stroke-linecap="round"/>
<path d="M83.8588 94.4651L85.884 96.7495C86.5768 97.531 87.7541 97.6479 88.587 97.0179L90.2635 95.7499C91.0014 95.1919 92.0256 95.2127 92.7402 95.8002L94.9391 97.6082C95.6035 98.1545 96.5428 98.2148 97.2716 97.7579L100.032 96.0271C100.79 95.552 101.771 95.6378 102.435 96.2372L105.417 98.9301" stroke="black" stroke-linecap="round"/>
<path d="M69.3213 63.7439L71.4552 66.2942L77.7106 60.0992" stroke="black" stroke-linecap="round" stroke-linejoin="round"/>
<path d="M68.6321 79.5872L70.766 82.1374L77.0214 75.9425" stroke="black" stroke-linecap="round" stroke-linejoin="round"/>
<path d="M67.9431 95.4307L70.077 97.981L76.3324 91.786" stroke="black" stroke-linecap="round" stroke-linejoin="round"/>
<circle cx="118.901" cy="121.412" r="22.0885" fill="#CEE788" stroke="black"/>
<mask id="path-11-inside-1_124_158" fill="white">
<path fill-rule="evenodd" clip-rule="evenodd" d="M130.76 111.878C130.76 115.18 128.083 117.857 124.781 117.857C123.192 117.857 121.748 117.237 120.677 116.226L113.891 119.617C114.129 120.261 114.258 120.957 114.258 121.684C114.258 122.322 114.158 122.937 113.973 123.513L120.875 126.963C121.923 126.058 123.288 125.51 124.781 125.51C128.083 125.51 130.76 128.187 130.76 131.489C130.76 134.791 128.083 137.468 124.781 137.468C121.479 137.468 118.802 134.791 118.802 131.489C118.802 131.33 118.808 131.172 118.821 131.016L110.901 127.058C110.11 127.445 109.22 127.663 108.279 127.663C104.977 127.663 102.3 124.986 102.3 121.684C102.3 118.381 104.977 115.705 108.279 115.705C109.106 115.705 109.894 115.873 110.611 116.176L118.806 112.081C118.803 112.014 118.802 111.946 118.802 111.878C118.802 108.576 121.479 105.899 124.781 105.899C128.083 105.899 130.76 108.576 130.76 111.878Z"/>
</mask>
<path fill-rule="evenodd" clip-rule="evenodd" d="M130.76 111.878C130.76 115.18 128.083 117.857 124.781 117.857C123.192 117.857 121.748 117.237 120.677 116.226L113.891 119.617C114.129 120.261 114.258 120.957 114.258 121.684C114.258 122.322 114.158 122.937 113.973 123.513L120.875 126.963C121.923 126.058 123.288 125.51 124.781 125.51C128.083 125.51 130.76 128.187 130.76 131.489C130.76 134.791 128.083 137.468 124.781 137.468C121.479 137.468 118.802 134.791 118.802 131.489C118.802 131.33 118.808 131.172 118.821 131.016L110.901 127.058C110.11 127.445 109.22 127.663 108.279 127.663C104.977 127.663 102.3 124.986 102.3 121.684C102.3 118.381 104.977 115.705 108.279 115.705C109.106 115.705 109.894 115.873 110.611 116.176L118.806 112.081C118.803 112.014 118.802 111.946 118.802 111.878C118.802 108.576 121.479 105.899 124.781 105.899C128.083 105.899 130.76 108.576 130.76 111.878Z" fill="white"/>
<path d="M120.677 116.226L121.363 115.499L120.855 115.019L120.23 115.331L120.677 116.226ZM113.891 119.617L113.444 118.722L112.644 119.123L112.953 119.963L113.891 119.617ZM113.973 123.513L113.021 123.208L112.759 124.025L113.526 124.408L113.973 123.513ZM120.875 126.963L120.428 127.857L121.024 128.155L121.528 127.719L120.875 126.963ZM118.821 131.016L119.818 131.094L119.87 130.423L119.268 130.122L118.821 131.016ZM110.901 127.058L111.348 126.164L110.906 125.943L110.462 126.16L110.901 127.058ZM110.611 116.176L110.221 117.097L110.645 117.277L111.058 117.071L110.611 116.176ZM118.806 112.081L119.253 112.976L119.826 112.689L119.805 112.048L118.806 112.081ZM124.781 118.857C128.636 118.857 131.76 115.732 131.76 111.878H129.76C129.76 114.628 127.531 116.857 124.781 116.857V118.857ZM119.99 116.953C121.239 118.132 122.927 118.857 124.781 118.857V116.857C123.457 116.857 122.256 116.342 121.363 115.499L119.99 116.953ZM114.338 120.511L121.124 117.12L120.23 115.331L113.444 118.722L114.338 120.511ZM115.258 121.684C115.258 120.837 115.107 120.024 114.83 119.271L112.953 119.963C113.15 120.498 113.258 121.077 113.258 121.684H115.258ZM114.925 123.819C115.142 123.145 115.258 122.427 115.258 121.684H113.258C113.258 122.217 113.175 122.729 113.021 123.208L114.925 123.819ZM121.322 126.068L114.42 122.619L113.526 124.408L120.428 127.857L121.322 126.068ZM121.528 127.719C122.402 126.965 123.537 126.51 124.781 126.51V124.51C123.039 124.51 121.444 125.15 120.221 126.206L121.528 127.719ZM124.781 126.51C127.531 126.51 129.76 128.739 129.76 131.489H131.76C131.76 127.635 128.636 124.51 124.781 124.51V126.51ZM129.76 131.489C129.76 134.239 127.531 136.468 124.781 136.468V138.468C128.636 138.468 131.76 135.344 131.76 131.489H129.76ZM124.781 136.468C122.031 136.468 119.802 134.239 119.802 131.489H117.802C117.802 135.344 120.927 138.468 124.781 138.468V136.468ZM119.802 131.489C119.802 131.356 119.807 131.224 119.818 131.094L117.824 130.938C117.809 131.12 117.802 131.304 117.802 131.489H119.802ZM110.454 127.953L118.374 131.911L119.268 130.122L111.348 126.164L110.454 127.953ZM108.279 128.663C109.375 128.663 110.415 128.409 111.341 127.957L110.462 126.16C109.804 126.482 109.064 126.663 108.279 126.663V128.663ZM101.3 121.684C101.3 125.538 104.425 128.663 108.279 128.663V126.663C105.529 126.663 103.3 124.433 103.3 121.684H101.3ZM108.279 114.705C104.425 114.705 101.3 117.829 101.3 121.684H103.3C103.3 118.934 105.529 116.705 108.279 116.705V114.705ZM111.001 115.256C110.164 114.9 109.243 114.705 108.279 114.705V116.705C108.97 116.705 109.625 116.845 110.221 117.097L111.001 115.256ZM118.359 111.187L110.164 115.282L111.058 117.071L119.253 112.976L118.359 111.187ZM117.802 111.878C117.802 111.957 117.803 112.036 117.806 112.114L119.805 112.048C119.803 111.991 119.802 111.935 119.802 111.878H117.802ZM124.781 104.899C120.927 104.899 117.802 108.024 117.802 111.878H119.802C119.802 109.128 122.031 106.899 124.781 106.899V104.899ZM131.76 111.878C131.76 108.024 128.636 104.899 124.781 104.899V106.899C127.531 106.899 129.76 109.128 129.76 111.878H131.76Z" fill="black" mask="url(#path-11-inside-1_124_158)"/>
</svg>
