<svg width="40" height="40" viewBox="0 0 40 40" fill="none" xmlns="http://www.w3.org/2000/svg">
<mask id="mask0_27_476" style="mask-type:alpha" maskUnits="userSpaceOnUse" x="0" y="0" width="40" height="40">
<circle cx="20" cy="20" r="20" fill="#F9B2BA"/>
</mask>
<g mask="url(#mask0_27_476)">
<g filter="url(#filter0_i_27_476)">
<circle cx="20" cy="20" r="20" fill="#FFCE4E"/>
</g>
<g filter="url(#filter1_f_27_476)">
<ellipse cx="17.7885" cy="16.5014" rx="20.8654" ry="20.977" fill="#FDE093"/>
</g>
<path d="M27.2272 16.3639C27.067 18.0587 26.6267 19.505 26.2101 20.5084C25.8861 21.2887 25.2052 21.8388 24.3759 22.0011C23.5263 22.1674 22.2387 22.3343 20.4923 22.3343C19.2633 22.3343 18.2227 22.2516 17.3907 22.1447C15.9261 21.9565 14.8933 20.7586 14.6577 19.3008L13.9689 15.0389H25.9638C26.6964 15.0389 27.2962 15.6345 27.2272 16.3639Z" fill="white"/>
<path d="M27.2272 16.3639C27.067 18.0587 26.6267 19.505 26.2101 20.5084C25.8861 21.2887 25.2052 21.8388 24.3759 22.0011C23.5263 22.1674 22.2387 22.3343 20.4923 22.3343C19.2633 22.3343 18.2227 22.2516 17.3907 22.1447C15.9261 21.9565 14.8933 20.7586 14.6577 19.3008L13.9689 15.0389H25.9638C26.6964 15.0389 27.2962 15.6345 27.2272 16.3639Z" stroke="black" stroke-width="1.43" stroke-linecap="round" stroke-linejoin="round"/>
<path d="M25.3006 25.6504H17.9413C16.64 25.6504 15.5309 24.7066 15.3226 23.4221L14.0556 15.6091C13.8473 14.3246 12.7382 13.3809 11.437 13.3809H10.7098" stroke="black" stroke-width="1.43" stroke-linecap="round" stroke-linejoin="round"/>
<path d="M16.4845 28.6192C17.3043 28.6192 17.9689 27.9547 17.9689 27.1348C17.9689 26.3149 17.3043 25.6504 16.4845 25.6504C15.6646 25.6504 15 26.3149 15 27.1348C15 27.9547 15.6646 28.6192 16.4845 28.6192Z" fill="white"/>
<path d="M16.4845 28.6192C17.3043 28.6192 17.9689 27.9547 17.9689 27.1348C17.9689 26.3149 17.3043 25.6504 16.4845 25.6504C15.6646 25.6504 15 26.3149 15 27.1348C15 27.9547 15.6646 28.6192 16.4845 28.6192Z" stroke="black" stroke-width="1.43" stroke-linecap="round" stroke-linejoin="round"/>
<path d="M25.3006 28.6192C26.1204 28.6192 26.785 27.9547 26.785 27.1348C26.785 26.3149 26.1204 25.6504 25.3006 25.6504C24.4807 25.6504 23.8162 26.3149 23.8162 27.1348C23.8162 27.9547 24.4807 28.6192 25.3006 28.6192Z" fill="white"/>
<path d="M25.3006 28.6192C26.1204 28.6192 26.785 27.9547 26.785 27.1348C26.785 26.3149 26.1204 25.6504 25.3006 25.6504C24.4807 25.6504 23.8162 26.3149 23.8162 27.1348C23.8162 27.9547 24.4807 28.6192 25.3006 28.6192Z" stroke="black" stroke-width="1.43" stroke-linecap="round" stroke-linejoin="round"/>
<g filter="url(#filter2_f_27_476)">
<ellipse cx="14.7327" cy="10.729" rx="12.8987" ry="12.9121" fill="white" fill-opacity="0.7"/>
</g>
<g opacity="0.2" filter="url(#filter3_f_27_476)">
<ellipse cx="5.46866" cy="3.34926" rx="5.46866" ry="3.34926" transform="matrix(0.981091 -0.193545 0.191567 0.981479 16.5385 32.0552)" fill="white"/>
</g>
</g>
<defs>
<filter id="filter0_i_27_476" x="0" y="0" width="40" height="40" filterUnits="userSpaceOnUse" color-interpolation-filters="sRGB">
<feFlood flood-opacity="0" result="BackgroundImageFix"/>
<feBlend mode="normal" in="SourceGraphic" in2="BackgroundImageFix" result="shape"/>
<feColorMatrix in="SourceAlpha" type="matrix" values="0 0 0 0 0 0 0 0 0 0 0 0 0 0 0 0 0 0 127 0" result="hardAlpha"/>
<feMorphology radius="4" operator="erode" in="SourceAlpha" result="effect1_innerShadow_27_476"/>
<feOffset/>
<feGaussianBlur stdDeviation="15"/>
<feComposite in2="hardAlpha" operator="arithmetic" k2="-1" k3="1"/>
<feColorMatrix type="matrix" values="0 0 0 0 0.992885 0 0 0 0 0.84028 0 0 0 0 0.441636 0 0 0 1 0"/>
<feBlend mode="normal" in2="shape" result="effect1_innerShadow_27_476"/>
</filter>
<filter id="filter1_f_27_476" x="-63.0769" y="-64.4755" width="161.731" height="161.954" filterUnits="userSpaceOnUse" color-interpolation-filters="sRGB">
<feFlood flood-opacity="0" result="BackgroundImageFix"/>
<feBlend mode="normal" in="SourceGraphic" in2="BackgroundImageFix" result="shape"/>
<feGaussianBlur stdDeviation="30" result="effect1_foregroundBlur_27_476"/>
</filter>
<filter id="filter2_f_27_476" x="-48.166" y="-52.1831" width="125.797" height="125.824" filterUnits="userSpaceOnUse" color-interpolation-filters="sRGB">
<feFlood flood-opacity="0" result="BackgroundImageFix"/>
<feBlend mode="normal" in="SourceGraphic" in2="BackgroundImageFix" result="shape"/>
<feGaussianBlur stdDeviation="25" result="effect1_foregroundBlur_27_476"/>
</filter>
<filter id="filter3_f_27_476" x="-12.8587" y="0.829628" width="70.808" height="66.9087" filterUnits="userSpaceOnUse" color-interpolation-filters="sRGB">
<feFlood flood-opacity="0" result="BackgroundImageFix"/>
<feBlend mode="normal" in="SourceGraphic" in2="BackgroundImageFix" result="shape"/>
<feGaussianBlur stdDeviation="15" result="effect1_foregroundBlur_27_476"/>
</filter>
</defs>
</svg>
