<svg width="180" height="180" viewBox="0 0 180 180" fill="none" xmlns="http://www.w3.org/2000/svg">
<path d="M18.72 90C18.72 108.905 26.2298 127.035 39.5974 140.403C52.965 153.77 71.0954 161.28 90 161.28C108.905 161.28 127.035 153.77 140.403 140.403C153.77 127.035 161.28 108.905 161.28 90C161.28 80.6393 159.436 71.3704 155.854 62.7223C152.272 54.0742 147.022 46.2164 140.403 39.5974C133.784 32.9784 125.926 27.728 117.278 24.1458C108.63 20.5637 99.3606 18.72 90 18.72C80.6394 18.72 71.3704 20.5637 62.7223 24.1458C54.0742 27.728 46.2164 32.9784 39.5974 39.5974C32.9785 46.2164 27.728 54.0742 24.1459 62.7223C20.5637 71.3704 18.72 80.6393 18.72 90Z" fill="#FFF4D8"/>
<path d="M29.1661 147.273C29.1661 148.708 35.4334 150.084 46.5893 151.098C57.7453 152.112 72.8759 152.682 88.6528 152.682C104.43 152.682 119.56 152.112 130.716 151.098C141.872 150.084 148.14 148.708 148.14 147.273C148.14 145.839 141.872 144.463 130.716 143.449C119.56 142.435 104.43 141.865 88.6528 141.865C72.8759 141.865 57.7453 142.435 46.5893 143.449C35.4334 144.463 29.1661 145.839 29.1661 147.273Z" fill="#FFE090"/>
<path d="M29.1661 28.938H149.943V138.9H29.1661V28.938Z" fill="white"/>
<path d="M29.1661 28.938H149.943V138.9H29.1661V28.938Z" stroke="#020064" stroke-linecap="round" stroke-linejoin="round"/>
<path d="M29.1661 138.9V147.913H39.981V145.208H97.6662H137.325V147.913H149.943V138.9H29.1661Z" fill="#FFE090"/>
<path d="M29.1661 138.9V147.913H39.981V145.208H97.6662H137.325V147.913H149.943V138.9H29.1661Z" stroke="#020064" stroke-linecap="round" stroke-linejoin="round"/>
<path d="M34.5745 34.3464H85.0478V101.045H34.5745V34.3464Z" fill="#FFE090"/>
<path d="M34.5745 34.3464H85.0478V101.045H34.5745V34.3464Z" stroke="#020064" stroke-linecap="round" stroke-linejoin="round"/>
<path d="M34.5745 106.451H85.0478V119.07H34.5745V106.451Z" fill="#FFE090"/>
<path d="M34.5745 119.07H85.0478V131.688H34.5745V119.07Z" fill="#FFE090"/>
<path d="M34.5745 106.451H85.0478V119.07H34.5745V106.451Z" stroke="#020064" stroke-linecap="round" stroke-linejoin="round"/>
<path d="M34.5745 119.07H85.0478V131.688H34.5745V119.07Z" stroke="#020064" stroke-linecap="round" stroke-linejoin="round"/>
<path d="M117.496 34.3464H92.2578V131.688H117.496H142.733V34.3464H117.496Z" fill="#FFE090"/>
<path d="M92.2578 34.3464V102.665L142.733 52.1913V34.3464H117.496H92.2578Z" fill="white"/>
<path d="M117.496 34.3464H92.2578V131.688H117.496H142.733V34.3464H117.496Z" stroke="#020064" stroke-linecap="round" stroke-linejoin="round"/>
<path d="M34.5745 41.5563H85.0478V46.9647H34.5745V41.5563Z" fill="white" stroke="#020064" stroke-linecap="round" stroke-linejoin="round"/>
<path d="M43.7553 86.6231H39.8135C39.38 86.6227 38.9644 86.4501 38.6579 86.1434C38.3515 85.8366 38.1794 85.4208 38.1794 84.9872V53.8397C38.1792 53.4102 38.2636 52.9849 38.4279 52.588C38.5921 52.1912 38.833 51.8306 39.1367 51.5269C39.4404 51.2232 39.8009 50.9824 40.1978 50.8181C40.5946 50.6539 41.0199 50.5695 41.4494 50.5697H42.1194C42.9867 50.5697 43.8184 50.9142 44.4317 51.5275C45.0449 52.1407 45.3894 52.9724 45.3894 53.8397V84.9872C45.3894 85.4208 45.2173 85.8366 44.9109 86.1434C44.6045 86.4501 44.1889 86.6227 43.7553 86.6231Z" fill="white"/>
<path d="M43.7553 86.6231H39.8135C39.38 86.6227 38.9644 86.4501 38.6579 86.1434C38.3515 85.8366 38.1794 85.4208 38.1794 84.9872V53.8397C38.1792 53.4102 38.2636 52.9849 38.4279 52.588C38.5921 52.1912 38.833 51.8306 39.1367 51.5269C39.4404 51.2232 39.8009 50.9824 40.1978 50.8181C40.5946 50.6539 41.0199 50.5695 41.4494 50.5697H42.1194C42.9867 50.5697 43.8184 50.9142 44.4317 51.5275C45.0449 52.1407 45.3894 52.9724 45.3894 53.8397V84.9872C45.3894 85.4208 45.2173 85.8366 44.9109 86.1434C44.6045 86.4501 44.1889 86.6227 43.7553 86.6231Z" stroke="#020064" stroke-linecap="round" stroke-linejoin="round"/>
<path d="M59.8111 66.7787V54.36C59.8285 53.4835 59.5375 52.6288 58.9891 51.9449C58.4407 51.2609 57.6695 50.7913 56.8102 50.6178C56.2922 50.5298 55.7612 50.556 55.2543 50.6947C54.7475 50.8333 54.2771 51.0811 53.876 51.4206C53.4749 51.76 53.1528 52.183 52.9323 52.66C52.7118 53.1369 52.5982 53.6563 52.5994 54.1818V66.7859C52.5673 70.4813 52.0886 74.1593 51.1738 77.7398C50.158 82.6299 49.4704 87.5824 49.1156 92.5643C49.0772 92.9373 49.1574 93.3129 49.3449 93.6377C49.5324 93.9624 49.8176 94.2197 50.1598 94.373C52.0672 95.2104 54.1275 95.6427 56.2106 95.6427C58.2936 95.6427 60.354 95.2104 62.2614 94.373C62.6039 94.22 62.8895 93.9628 63.0773 93.638C63.2651 93.3133 63.3456 92.9375 63.3074 92.5643C62.9512 87.5825 62.263 82.63 61.2474 77.7398C60.3284 74.1574 59.8462 70.477 59.8111 66.7787Z" fill="white"/>
<path d="M59.8111 66.7787V54.36C59.8285 53.4835 59.5375 52.6288 58.9891 51.9449C58.4407 51.2609 57.6695 50.7913 56.8102 50.6178C56.2922 50.5298 55.7612 50.556 55.2543 50.6947C54.7475 50.8333 54.2771 51.0811 53.876 51.4206C53.4749 51.76 53.1528 52.183 52.9323 52.66C52.7118 53.1369 52.5982 53.6563 52.5994 54.1818V66.7859C52.5673 70.4813 52.0886 74.1593 51.1738 77.7398C50.158 82.6299 49.4704 87.5824 49.1156 92.5643C49.0772 92.9373 49.1574 93.3129 49.3449 93.6377C49.5324 93.9624 49.8176 94.2197 50.1598 94.373C52.0672 95.2104 54.1275 95.6427 56.2106 95.6427C58.2936 95.6427 60.354 95.2104 62.2614 94.373C62.6039 94.22 62.8895 93.9628 63.0773 93.638C63.2651 93.3133 63.3456 92.9375 63.3074 92.5643C62.9512 87.5825 62.263 82.63 61.2474 77.7398C60.3284 74.1574 59.8462 70.477 59.8111 66.7787Z" stroke="#020064" stroke-linecap="round" stroke-linejoin="round"/>
<path d="M41.7844 50.5697V41.5563" stroke="#020064" stroke-linecap="round" stroke-linejoin="round"/>
<path d="M72.4295 74.003H66.8536C66.6389 74.0032 66.4263 73.9611 66.228 73.8791C66.0296 73.797 65.8494 73.6767 65.6976 73.5249C65.5458 73.3731 65.4254 73.1929 65.3434 72.9945C65.2614 72.7961 65.2192 72.5835 65.2195 72.3689V53.8361C65.2192 53.4066 65.3037 52.9813 65.4679 52.5844C65.6322 52.1876 65.873 51.827 66.1767 51.5233C66.4804 51.2196 66.841 50.9788 67.2378 50.8145C67.6347 50.6503 68.06 50.5659 68.4895 50.5661H69.1595C70.0267 50.5661 70.8585 50.9106 71.4717 51.5239C72.0849 52.1371 72.4295 52.9688 72.4295 53.8361V74.003Z" fill="white" stroke="#020064" stroke-linecap="round" stroke-linejoin="round"/>
<path d="M68.8245 50.5697V41.5563" stroke="#020064" stroke-linecap="round" stroke-linejoin="round"/>
<path d="M56.2062 50.5697V41.5563" stroke="#020064" stroke-linecap="round" stroke-linejoin="round"/>
<path d="M78.0054 74.003H72.4295V53.8397C72.4293 53.4102 72.5137 52.9849 72.6779 52.588C72.8422 52.1912 73.083 51.8306 73.3867 51.5269C73.6904 51.2232 74.051 50.9824 74.4478 50.8181C74.8447 50.6539 75.27 50.5695 75.6995 50.5697H76.3695C76.799 50.5695 77.2243 50.6539 77.6211 50.8181C78.018 50.9824 78.3786 51.2232 78.6822 51.5269C78.9859 51.8306 79.2268 52.1912 79.391 52.588C79.5553 52.9849 79.6397 53.4102 79.6395 53.8397V72.3725C79.6385 72.8052 79.466 73.22 79.1596 73.5256C78.8533 73.8313 78.4382 74.003 78.0054 74.003Z" fill="white"/>
<path d="M78.0054 74.003H72.4295V53.8397C72.4293 53.4102 72.5137 52.9849 72.6779 52.588C72.8422 52.1912 73.083 51.8306 73.3867 51.5269C73.6904 51.2232 74.051 50.9824 74.4478 50.8181C74.8447 50.6539 75.27 50.5695 75.6995 50.5697H76.3695C76.799 50.5695 77.2243 50.6539 77.6211 50.8181C78.018 50.9824 78.3786 51.2232 78.6822 51.5269C78.9859 51.8306 79.2268 52.1912 79.391 52.588C79.5553 52.9849 79.6397 53.4102 79.6395 53.8397V72.3725C79.6385 72.8052 79.466 73.22 79.1596 73.5256C78.8533 73.8313 78.4382 74.003 78.0054 74.003Z" stroke="#020064" stroke-linecap="round" stroke-linejoin="round"/>
<path d="M76.0345 50.5697V41.5563" stroke="#020064" stroke-linecap="round" stroke-linejoin="round"/>
<path d="M50.7978 113.661H67.0211" stroke="#020064" stroke-linecap="round" stroke-linejoin="round"/>
<path d="M50.7978 126.281H67.0211" stroke="#020064" stroke-linecap="round" stroke-linejoin="round"/>
<path d="M117.496 34.3464V131.688" stroke="#020064" stroke-linecap="round" stroke-linejoin="round"/>
<path d="M112.088 68.5964V86.6231" stroke="#020064" stroke-linecap="round" stroke-linejoin="round"/>
<path d="M122.903 68.5964V86.6231" stroke="#020064" stroke-linecap="round" stroke-linejoin="round"/>
<path d="M25.5611 19.9246H153.55V28.938H25.5611V19.9246Z" fill="#FFE090"/>
<path d="M25.5611 19.9246H153.55V28.938H25.5611V19.9246Z" stroke="#020064" stroke-linecap="round" stroke-linejoin="round"/>
</svg>
